<svg width="24" height="24" viewBox="0 0 24 24" fill="none" xmlns="http://www.w3.org/2000/svg">
<g clip-path="url(#clip0_62_426)">
<path fill-rule="evenodd" clip-rule="evenodd" d="M20.6 5.55004C20.8486 5.88142 20.7814 6.35152 20.45 6.60004L4.45004 18.6C4.11867 18.8486 3.64857 18.7814 3.40004 18.45C3.15152 18.1187 3.21867 17.6486 3.55004 17.4L19.55 5.40004C19.8814 5.15152 20.3515 5.21867 20.6 5.55004Z" fill="#BFC5CC"/>
<path fill-rule="evenodd" clip-rule="evenodd" d="M16.4899 7.1049C15.1443 6.3987 13.6178 6 11.9999 6C7.97444 6 4.51484 8.46819 3 12C3.56074 13.3073 4.38794 14.4689 5.41168 15.4136L6.63529 14.4959C5.83298 13.8033 5.1598 12.9573 4.65938 12C6.06523 9.31058 8.83461 7.5 11.9999 7.5C13.106 7.5 14.1637 7.72107 15.1318 8.12347L16.4899 7.1049ZM13.459 9.37807C13.0271 9.13723 12.5296 9 12 9C10.3431 9 9 10.3431 9 12C9 12.2291 9.02568 12.4522 9.07432 12.6666L10.5704 11.5445C10.7596 10.9501 11.3093 10.5165 11.9625 10.5005L13.459 9.37807ZM13.4295 12.4557L14.9257 11.3336C14.9743 11.5479 15 11.771 15 12C15 13.6569 13.6569 15 12 15C11.4705 15 10.973 14.8628 10.5411 14.622L12.0378 13.4995C12.6908 13.4834 13.2403 13.0499 13.4295 12.4557ZM8.86832 15.8766C9.83634 16.279 10.894 16.5 11.9999 16.5C15.1653 16.5 17.9347 14.6894 19.3405 12C18.8401 11.0428 18.167 10.1969 17.3648 9.50429L18.5884 8.58659C19.612 9.53119 20.4392 10.6927 20.9999 12C19.485 15.5318 16.0255 18 11.9999 18C10.3821 18 8.85572 17.6013 7.51021 16.8952L8.86832 15.8766Z" fill="#BFC5CC"/>
</g>
<defs>
<clipPath id="clip0_62_426">
<rect width="24" height="24" fill="white"/>
</clipPath>
</defs>
</svg>
