<svg width="16" height="16" viewBox="0 0 16 16" fill="none" xmlns="http://www.w3.org/2000/svg">
<g clip-path="url(#clip0_971_42002)">
<path fill-rule="evenodd" clip-rule="evenodd" d="M4.38845 7.00134C4.38845 4.93072 6.01908 3.27762 7.99957 3.27762C9.98005 3.27762 11.6107 4.93072 11.6107 7.00134C11.6107 7.44837 11.4064 8.03466 11.0302 8.7081C10.6616 9.36791 10.1628 10.0505 9.65286 10.674C9.14458 11.2955 8.6348 11.8466 8.25133 12.243C8.15938 12.3381 8.07486 12.424 7.99957 12.4997C7.92427 12.424 7.83975 12.3381 7.7478 12.243C7.36433 11.8466 6.85455 11.2955 6.34628 10.674C5.83631 10.0505 5.33756 9.36791 4.96894 8.7081C4.5927 8.03466 4.38845 7.44837 4.38845 7.00134ZM7.61909 13.6824C7.61918 13.6825 7.61926 13.6826 7.99957 13.2776C8.37988 13.6826 8.37995 13.6825 8.38004 13.6824L7.99957 14.0397L7.61909 13.6824ZM7.61909 13.6824L7.99957 13.2776L8.38004 13.6824L8.38112 13.6814L8.38386 13.6788L8.39378 13.6694C8.40234 13.6613 8.41472 13.6496 8.43068 13.6343C8.4626 13.6037 8.50885 13.5591 8.56737 13.5017C8.68439 13.3871 8.85069 13.2215 9.04989 13.0156C9.44766 12.6044 9.97955 12.0296 10.5129 11.3775C11.0446 10.7273 11.5876 9.98858 12.0002 9.25002C12.4052 8.52509 12.7218 7.736 12.7218 7.00134C12.7218 4.34519 10.6215 2.1665 7.99957 2.1665C5.37768 2.1665 3.27734 4.34519 3.27734 7.00134C3.27734 7.736 3.59393 8.52509 3.99894 9.25002C4.41157 9.98858 4.95448 10.7273 5.48619 11.3775C6.01958 12.0296 6.55147 12.6044 6.94925 13.0156C7.14844 13.2215 7.31474 13.3871 7.43176 13.5017C7.49028 13.5591 7.53653 13.6037 7.56845 13.6343L7.58491 13.65L7.60535 13.6694L7.61527 13.6788L7.61802 13.6814L7.61909 13.6824ZM7.16623 6.61095C7.16623 6.15071 7.53933 5.77762 7.99957 5.77762C8.4598 5.77762 8.8329 6.15071 8.8329 6.61095C8.8329 7.07119 8.4598 7.44428 7.99957 7.44428C7.53933 7.44428 7.16623 7.07119 7.16623 6.61095ZM7.99957 4.6665C6.92568 4.6665 6.05512 5.53706 6.05512 6.61095C6.05512 7.68484 6.92568 8.55539 7.99957 8.55539C9.07345 8.55539 9.94401 7.68484 9.94401 6.61095C9.94401 5.53706 9.07345 4.6665 7.99957 4.6665Z" fill="#00AAA6"/>
</g>
<defs>
<clipPath id="clip0_971_42002">
<rect width="16" height="16" fill="white"/>
</clipPath>
</defs>
</svg>
