<svg width="20" height="20" viewBox="0 0 20 20" fill="none" xmlns="http://www.w3.org/2000/svg">
<g clip-path="url(#clip0_717_18981)">
<path d="M10.417 9.29196L9.9055 8.9328C9.83163 9.038 9.79199 9.16342 9.79199 9.29196H10.417ZM10.417 16.6666L10.1375 17.2256C10.3312 17.3225 10.5613 17.3121 10.7456 17.1982C10.9298 17.0844 11.042 16.8832 11.042 16.6666H10.417ZM7.08366 14.9999H6.45866C6.45866 15.2367 6.59241 15.4531 6.80415 15.5589L7.08366 14.9999ZM7.08366 9.29411H7.70866C7.70866 9.16556 7.66902 9.04014 7.59515 8.93494L7.08366 9.29411ZM3.33691 3.95825V3.33325C3.1037 3.33325 2.88989 3.46309 2.78234 3.67003C2.67479 3.87696 2.6914 4.12656 2.82542 4.31741L3.33691 3.95825ZM14.1622 3.95825L14.6737 4.31741C14.8077 4.12656 14.8244 3.87696 14.7168 3.67003C14.6093 3.46309 14.3954 3.33325 14.1622 3.33325V3.95825ZM9.79199 9.29196V16.6666H11.042V9.29196H9.79199ZM10.6965 16.1076L7.36317 14.4409L6.80415 15.5589L10.1375 17.2256L10.6965 16.1076ZM7.70866 14.9999V9.29411H6.45866V14.9999H7.70866ZM7.59515 8.93494L3.84841 3.59909L2.82542 4.31741L6.57216 9.65327L7.59515 8.93494ZM3.33691 4.58325H14.1622V3.33325H3.33691V4.58325ZM13.6507 3.59909L9.9055 8.9328L10.9285 9.65112L14.6737 4.31741L13.6507 3.59909Z" fill="white"/>
<path d="M14.583 9.5835H16.8766" stroke="white" stroke-width="1.25" stroke-linecap="round"/>
<path d="M14.583 12.5H16.8766" stroke="white" stroke-width="1.25" stroke-linecap="round"/>
<path d="M14.583 15.4167H16.8766" stroke="white" stroke-width="1.25" stroke-linecap="round"/>
</g>
<defs>
<clipPath id="clip0_717_18981">
<rect width="20" height="20" fill="white"/>
</clipPath>
</defs>
</svg>
