<svg width="40" height="40" viewBox="0 0 40 40" fill="none" xmlns="http://www.w3.org/2000/svg">
<circle cx="14" cy="27" r="8" stroke="#00AAA6" stroke-width="2" stroke-linecap="square" stroke-linejoin="round"/>
<rect x="14" y="13" width="17" height="2" fill="#00AAA6"/>
<rect x="15" y="23" width="6" height="2" transform="rotate(90 15 23)" fill="#00AAA6"/>
<rect x="18" y="29" width="5" height="2" transform="rotate(-180 18 29)" fill="#00AAA6"/>
<rect x="24" y="19" width="7" height="2" fill="#00AAA6"/>
<rect x="26" y="25" width="5" height="2" fill="#00AAA6"/>
<path fill-rule="evenodd" clip-rule="evenodd" d="M15.05 6C15.0172 6.16155 15 6.32877 15 6.5C15 7.0628 15.186 7.58217 15.4998 8H11V15.6786V16.6786H9V15.6786V7C9 6.44772 9.44772 6 10 6H15.05ZM29.95 6C29.9828 6.16155 30 6.32877 30 6.5C30 7.0628 29.814 7.58217 29.5002 8H34V33H23.587H22.587V35H23.587H35C35.5523 35 36 34.5523 36 34V7C36 6.44772 35.5523 6 35 6H29.95Z" fill="#00AAA6"/>
<rect x="15" y="4" width="15" height="5" rx="2.5" stroke="#00AAA6" stroke-width="2" stroke-linecap="square" stroke-linejoin="round"/>
</svg>
