<svg width="20" height="20" viewBox="0 0 20 20" fill="none" xmlns="http://www.w3.org/2000/svg">
<g clip-path="url(#clip0_7509_90016)">
<g clip-path="url(#clip1_7509_90016)">
<path fill-rule="evenodd" clip-rule="evenodd" d="M12.6668 4.99997C12.6667 4.50125 12.5267 4.01255 12.2628 3.58939C11.9988 3.16623 11.6215 2.82556 11.1737 2.60609C10.7259 2.38661 10.2254 2.29712 9.72929 2.34778C9.23314 2.39844 8.76114 2.58722 8.3669 2.89267C7.97266 3.19813 7.67198 3.60802 7.49901 4.0758C7.32605 4.54357 7.28772 5.05047 7.38839 5.53893C7.48906 6.0274 7.72469 6.47784 8.06853 6.8391C8.41236 7.20036 8.85061 7.45796 9.3335 7.58264V9.66664H5.3335C5.06828 9.66664 4.81393 9.772 4.62639 9.95953C4.43885 10.1471 4.3335 10.4014 4.3335 10.6666V12.7633C3.79641 12.9235 3.33493 13.2716 3.03342 13.7441C2.73191 14.2165 2.61052 14.7817 2.69145 15.3363C2.77239 15.8909 3.05023 16.3978 3.47419 16.7644C3.89814 17.1309 4.43987 17.3327 5.00033 17.3327C5.56079 17.3327 6.10252 17.1309 6.52647 16.7644C6.95043 16.3978 7.22827 15.8909 7.30921 15.3363C7.39014 14.7817 7.26876 14.2165 6.96725 13.7441C6.66574 13.2716 6.20425 12.9235 5.66716 12.7633L5.66683 11H14.3335V12.7633C13.7964 12.9235 13.3349 13.2716 13.0334 13.7441C12.7319 14.2165 12.6105 14.7817 12.6915 15.3363C12.7724 15.8909 13.0502 16.3978 13.4742 16.7644C13.8981 17.1309 14.4399 17.3327 15.0003 17.3327C15.5608 17.3327 16.1025 17.1309 16.5265 16.7644C16.9504 16.3978 17.2283 15.8909 17.3092 15.3363C17.3901 14.7817 17.2688 14.2165 16.9672 13.7441C16.6657 13.2716 16.2042 12.9235 15.6672 12.7633L15.6668 10.6666C15.6668 10.4014 15.5615 10.1471 15.3739 9.95953C15.1864 9.772 14.932 9.66664 14.6668 9.66664H10.6668V7.58264C11.8168 7.28664 12.6668 6.24264 12.6668 4.99997ZM14.0002 15C14.0002 14.7348 14.1055 14.4804 14.2931 14.2929C14.4806 14.1053 14.7349 14 15.0002 14C15.2654 14 15.5197 14.1053 15.7073 14.2929C15.8948 14.4804 16.0002 14.7348 16.0002 15C16.0002 15.2652 15.8948 15.5195 15.7073 15.7071C15.5197 15.8946 15.2654 16 15.0002 16C14.7349 16 14.4806 15.8946 14.2931 15.7071C14.1055 15.5195 14.0002 15.2652 14.0002 15ZM5.00016 14C4.73495 14 4.48059 14.1053 4.29306 14.2929C4.10552 14.4804 4.00016 14.7348 4.00016 15C4.00016 15.2652 4.10552 15.5195 4.29306 15.7071C4.48059 15.8946 4.73495 16 5.00016 16C5.26538 16 5.51973 15.8946 5.70727 15.7071C5.89481 15.5195 6.00016 15.2652 6.00016 15C6.00016 14.7348 5.89481 14.4804 5.70727 14.2929C5.51973 14.1053 5.26538 14 5.00016 14ZM8.66683 4.99997C8.66683 4.64635 8.80731 4.30721 9.05736 4.05717C9.3074 3.80712 9.64654 3.66664 10.0002 3.66664C10.3538 3.66664 10.6929 3.80712 10.943 4.05717C11.193 4.30721 11.3335 4.64635 11.3335 4.99997C11.3335 5.3536 11.193 5.69274 10.943 5.94278C10.6929 6.19283 10.3538 6.33331 10.0002 6.33331C9.64654 6.33331 9.3074 6.19283 9.05736 5.94278C8.80731 5.69274 8.66683 5.3536 8.66683 4.99997Z" fill="white"/>
</g>
</g>
<defs>
<clipPath id="clip0_7509_90016">
<rect width="20" height="20" fill="white"/>
</clipPath>
<clipPath id="clip1_7509_90016">
<rect width="16" height="16" fill="white" transform="translate(2 2)"/>
</clipPath>
</defs>
</svg>
