<svg width="71" height="12" viewBox="0 0 71 12" fill="none" xmlns="http://www.w3.org/2000/svg">
<path d="M8.95183 4.76411V7.34411H3.16783V7.90811H9.51583V11.1721H8.27983V10.7641H3.16783V11.1601H1.90783V4.76411H8.95183ZM3.16783 9.66011H8.27983V8.89211H3.16783V9.66011ZM3.16783 6.36011H7.73983V5.76011H3.16783V6.36011ZM10.6078 3.24011V5.59211H9.38383V4.29611H1.46383V5.59211H0.239828V3.24011H4.83583C4.73983 3.02411 4.64383 2.83211 4.54783 2.65211L5.60383 2.47211L5.36383 2.31611C5.91583 1.59611 6.31183 0.828109 6.55183 0.0121088L7.73983 0.276109C7.67983 0.456109 7.61983 0.636109 7.55983 0.804109H10.8598V1.89611H8.96383C9.13183 2.13611 9.27583 2.37611 9.39583 2.59211L8.29183 3.01211C8.09983 2.62811 7.88383 2.25611 7.63183 1.89611H7.09183C6.88783 2.28011 6.65983 2.64011 6.41983 2.97611L5.86783 2.62811C5.93983 2.82011 6.02383 3.02411 6.09583 3.24011H10.6078ZM1.93183 1.89611C1.67983 2.32811 1.40383 2.72411 1.09183 3.08411L-0.00017187 2.38811C0.695828 1.64411 1.17583 0.840109 1.45183 0.000108957L2.66383 0.264109C2.59183 0.444109 2.53183 0.624109 2.45983 0.804109H5.41183V1.89611H3.70783C3.89983 2.17211 4.06783 2.43611 4.19983 2.68811L3.05983 3.13211C2.86783 2.70011 2.63983 2.29211 2.37583 1.89611H1.93183ZM16.2718 0.432109H22.4158V6.25211H19.9798V7.35611H22.5598V8.52011H19.9798V9.63611H22.9678V10.8481H15.6838V9.63611H18.7318V8.52011H16.1398V7.35611H18.7318V6.25211H16.2718V0.432109ZM21.2158 5.14811V3.87611H19.9798V5.14811H21.2158ZM18.7318 5.14811V3.87611H17.4718V5.14811H18.7318ZM17.4718 2.80811H18.7318V1.53611H17.4718V2.80811ZM19.9798 1.53611V2.80811H21.2158V1.53611H19.9798ZM12.1558 4.36811H13.2958V1.92011H11.9758V0.732109H15.8758V1.92011H14.5678V4.36811H15.7318V5.56811H14.5678V7.83611C14.9518 7.70411 15.3238 7.56011 15.6958 7.40411V8.61611C14.5918 9.04811 13.4158 9.40811 12.1678 9.70811L11.8558 8.50811C12.3478 8.42411 12.8278 8.32811 13.2958 8.20811V5.56811H12.1558V4.36811ZM23.8918 1.93211H25.3078C25.1638 1.38011 24.9958 0.876109 24.8158 0.408109L26.0638 0.204109C26.2078 0.708109 26.3518 1.28411 26.4958 1.93211H27.7798V3.10811H23.8918V1.93211ZM25.1638 3.60011C25.3558 4.94411 25.5238 6.50411 25.6798 8.25611L24.6838 8.49611C24.5398 6.91211 24.3478 5.40011 24.1318 3.93611L25.1638 3.60011ZM27.7198 8.26811V9.46811C26.6158 9.85211 25.4278 10.1881 24.1678 10.4641L23.8438 9.24011C24.5398 9.13211 25.2238 8.98811 25.8958 8.82011C26.1118 7.14011 26.2798 5.37611 26.3878 3.50411L27.5038 3.66011C27.3718 5.41211 27.1798 7.03211 26.9398 8.52011L27.7198 8.26811ZM33.1798 2.24411V0.552109H34.3678V3.33611H28.3918V0.552109H29.5918V2.24411H30.7558V0.0841086H31.9798V2.24411H33.1798ZM28.0078 4.02011H34.8358V5.17211H31.8358C31.7638 5.46011 31.6918 5.73611 31.5958 6.00011H34.5958V10.0681C34.5958 10.7641 34.2958 11.1121 33.6958 11.1121H33.1558L32.8558 10.0081L33.3358 10.0441C33.4318 10.0441 33.4918 9.97211 33.4918 9.84011V7.10411H32.7598V10.8961H31.7278V7.10411H31.0918V10.9081H30.0598V7.10411H29.3638V11.1121H28.2358V6.00011H30.3718C30.4678 5.72411 30.5398 5.44811 30.5998 5.17211H28.0078V4.02011ZM38.2318 3.74411C37.7158 4.04411 37.1878 4.32011 36.6358 4.57211L35.9038 3.51611C37.9798 2.62811 39.6598 1.47611 40.9318 0.0721087H41.9398C43.0438 1.44011 44.7118 2.59211 46.9318 3.50411L46.2118 4.56011C45.6478 4.32011 45.1198 4.06811 44.6398 3.79211V4.40411H42.0598V5.73611H46.1878V6.90011H42.0598V9.73211H43.0918C43.4518 8.98811 43.7638 8.20811 44.0398 7.38011L45.1678 7.80011C44.9158 8.52011 44.6398 9.15611 44.3518 9.73211H46.6198V10.9201H36.2398V9.73211H38.5438C38.3278 9.08411 38.0518 8.46011 37.7278 7.88411L38.8678 7.46411C39.1918 8.10011 39.4918 8.85611 39.7558 9.73211H40.8118V6.90011H36.6718V5.73611H40.8118V4.40411H38.2318V3.74411ZM43.7998 3.28811C42.8878 2.68811 42.0958 2.00411 41.4358 1.24811C40.6918 2.01611 39.8638 2.68811 38.9638 3.28811H43.7998ZM53.2198 11.0521H51.9598L51.6478 9.88811L52.8358 9.94811C53.0998 9.94811 53.2318 9.76811 53.2318 9.40811V7.95611L52.2598 8.62811C52.0318 8.12411 51.7918 7.62011 51.5278 7.09211C51.1438 7.89611 50.6998 8.60411 50.2078 9.21611L49.4518 8.26811V11.1121H48.2518V0.432109H54.4078V9.67211C54.4078 10.5841 54.0118 11.0521 53.2198 11.0521ZM49.4518 8.24411C49.9918 7.52411 50.4478 6.70811 50.8318 5.79611C50.4118 5.05211 49.9558 4.27211 49.4518 3.46811V8.24411ZM49.4518 3.36011L50.3758 2.78411C50.7118 3.33611 51.0358 3.85211 51.3358 4.35611C51.5278 3.66011 51.6958 2.91611 51.8278 2.13611L52.9198 2.32811C52.7038 3.57611 52.4278 4.70411 52.0918 5.68811C52.5358 6.50411 52.9198 7.24811 53.2318 7.92011V1.60811H49.4518V3.36011ZM55.2838 1.11611H56.4598V8.49611H55.2838V1.11611ZM57.2878 11.0521H55.5598L55.2958 9.87611C55.8478 9.92411 56.3758 9.96011 56.8678 9.96011C57.1918 9.96011 57.3598 9.79211 57.3598 9.46811V0.0961092H58.5838V9.78011C58.5838 10.6201 58.1518 11.0521 57.2878 11.0521ZM63.5878 2.40011C64.6318 3.19211 65.6038 3.98411 66.4918 4.76411C67.0918 3.96011 67.6198 3.04811 68.0638 2.02811L69.2038 2.62811C68.6998 3.76811 68.1238 4.77611 67.4638 5.64011C68.3038 6.42011 69.0838 7.18811 69.7918 7.95611L68.8198 8.94011C68.1958 8.17211 67.4638 7.40411 66.6358 6.62411C65.6278 7.66811 64.4758 8.47211 63.1798 9.02411L62.4478 7.89611C63.6718 7.39211 64.7518 6.66011 65.6638 5.72411C64.7638 4.92011 63.7678 4.10411 62.6758 3.27611L63.5878 2.40011ZM60.6478 0.504109H70.3198V1.70411H61.8598V9.49211H70.6918V10.6921H60.6478V0.504109Z" fill="black"/>
</svg>
