<svg width="48" height="11" viewBox="0 0 48 11" fill="none" xmlns="http://www.w3.org/2000/svg">
<path d="M10.1522 7.42799V3.31199H5.73623V1.31999H10.6322V0.491992H4.89623V10.572H10.8602V9.74399H5.73623V7.42799H10.1522ZM5.73623 4.09199H9.32423V6.62399H5.73623V4.09199ZM2.83223 4.79999C3.16823 5.25599 3.56423 5.85599 4.02023 6.59999L4.52423 5.84399C3.94823 5.11199 3.38423 4.45199 2.83223 3.85199V3.16799H4.27223V2.32799H2.83223V-8.34465e-06H1.95623V2.32799H0.204227V3.16799H1.90823C1.52423 4.69199 0.888227 6.04799 0.000226572 7.24799L0.372227 8.19599C1.03223 7.19999 1.56023 6.09599 1.95623 4.87199V10.944H2.83223V4.79999ZM14.0162 0.419992V3.65999H21.0482V0.419992H14.0162ZM20.1602 2.87999H14.9042V1.19999H20.1602V2.87999ZM14.8802 5.51999L14.3162 7.70399H20.3402C20.2682 8.78399 20.1602 9.45599 20.0162 9.71999C19.8602 9.98399 19.4642 10.116 18.8162 10.116C18.3242 10.116 17.7602 10.092 17.1242 10.044L17.4122 10.836C17.8802 10.884 18.4082 10.908 19.0082 10.908C19.8242 10.908 20.3762 10.728 20.6642 10.368C20.9522 9.99599 21.1442 8.84399 21.2162 6.92399H15.3482L15.7562 5.51999H22.9202V4.69199H12.1322V5.51999H14.8802ZM26.2202 5.03999V7.95599H32.8922V5.03999H26.2202ZM32.0282 7.18799H27.0842V5.79599H32.0282V7.18799ZM27.2882 8.21999L26.4722 8.51999C26.8802 8.92799 27.2162 9.35999 27.5042 9.81599H24.3842V10.644H34.6562V9.81599H31.7042C32.0162 9.40799 32.3042 8.95199 32.5682 8.43599L31.7522 8.15999C31.4762 8.73599 31.1522 9.28799 30.7802 9.81599H28.4042C28.0682 9.19199 27.6962 8.66399 27.2882 8.21999ZM25.3682 1.63199L24.7922 2.18399C25.4282 2.62799 25.9682 3.05999 26.4122 3.47999C25.7402 3.97199 24.9602 4.40399 24.0722 4.76399L24.5882 5.43599C25.7642 4.94399 26.7482 4.34399 27.5402 3.62399V4.03199H31.9202V3.52799C32.6762 4.23599 33.5762 4.87199 34.6202 5.43599L35.1842 4.77599C34.4522 4.41599 33.7922 3.99599 33.1922 3.53999C33.7562 3.13199 34.2482 2.65199 34.6562 2.12399L34.0562 1.58399C33.6482 2.11199 33.1562 2.59199 32.5682 3.02399C32.2442 2.73599 31.9442 2.43599 31.6802 2.11199C32.2442 1.71599 32.7362 1.25999 33.1562 0.743992L32.5442 0.203992C32.1722 0.683991 31.7282 1.11599 31.2002 1.49999C30.8762 1.04399 30.6002 0.563992 30.3842 0.0599916L29.6762 0.455992C30.1322 1.46399 30.7802 2.39999 31.6202 3.23999H27.9242C28.5242 2.60399 28.9922 1.88399 29.3282 1.09199V0.443992H25.3442V1.23599H28.3442C28.0082 1.85999 27.5642 2.44799 27.0122 2.97599C26.5562 2.53199 26.0162 2.08799 25.3682 1.63199ZM47.1242 7.65599L46.2722 7.36799C46.2122 8.32799 46.1282 8.96399 46.0082 9.28799C45.8762 9.61199 45.5762 9.77999 45.1082 9.77999H42.4922C42.0842 9.76799 41.8802 9.55199 41.8802 9.14399V5.03999H46.1402V0.575992H40.4642V1.41599H45.3122V4.21199H41.0402V9.45599C41.0402 10.224 41.4122 10.608 42.1562 10.608H45.2642C45.9362 10.608 46.3922 10.416 46.6202 10.056C46.8482 9.68399 47.0162 8.87999 47.1242 7.65599ZM37.4762 0.107992L36.8762 0.695992C37.7402 1.34399 38.4362 1.96799 38.9402 2.55599L39.5282 1.95599C38.9762 1.33199 38.2922 0.719992 37.4762 0.107992ZM36.0722 3.65999V4.48799H37.8362V9.27599C37.8362 9.46799 37.7522 9.63599 37.5842 9.77999L37.9202 10.56C38.7842 10.008 39.6122 9.39599 40.3802 8.69999L40.1642 7.78799C39.6362 8.26799 39.1322 8.69999 38.6642 9.05999V3.65999H36.0722Z" fill="#1D2129"/>
</svg>
