<svg width="47" height="12" viewBox="0 0 47 12" fill="none" xmlns="http://www.w3.org/2000/svg">
<path d="M4.06796 0.767939V1.60794H7.60796V9.65994C7.60796 10.0319 7.42796 10.2239 7.06796 10.2239C6.61196 10.2239 6.11996 10.1999 5.61596 10.1639L5.79596 11.0039H7.36796C8.11196 11.0039 8.49596 10.6199 8.49596 9.87594V1.60794H11.016V0.767939H4.06796ZM1.41596 0.191939L0.803961 0.779939C1.66796 1.42794 2.36396 2.05194 2.86796 2.63994L3.45596 2.03994C2.90396 1.41594 2.21996 0.803939 1.41596 0.191939ZM-3.9041e-05 3.75594V4.58394H1.76396V9.37194C1.76396 9.56394 1.66796 9.73194 1.48796 9.88794L1.81196 10.6559C2.69996 10.1039 3.53996 9.47994 4.31996 8.77194L4.09196 7.85994C3.55196 8.35194 3.04796 8.77194 2.59196 9.13194V3.75594H-3.9041e-05ZM13.272 1.95594V6.88794H17.028V8.02794H12.132V8.84394H17.028V11.1239H17.892V8.84394H22.788V8.02794H17.892V6.88794H21.648V1.95594H19.344C19.704 1.46394 20.028 0.911939 20.316 0.299939L19.476 -6.12736e-05C19.176 0.695939 18.828 1.35594 18.444 1.95594H13.272ZM20.808 6.11994H17.892V4.77594H20.808V6.11994ZM17.028 6.11994H14.112V4.77594H17.028V6.11994ZM14.112 4.03194V2.71194H17.028V4.03194H14.112ZM17.892 2.71194H20.808V4.03194H17.892V2.71194ZM15.396 0.0599387L14.664 0.407939C15.072 0.863939 15.444 1.36794 15.804 1.94394L16.524 1.58394C16.164 1.03194 15.792 0.515939 15.396 0.0599387ZM32.892 4.82394H26.04V11.0759H26.904V10.5839H32.592V11.0879H33.444V8.00394H26.904V7.17594H32.892V4.82394ZM26.904 9.81594V8.69994H32.592V9.81594H26.904ZM26.904 6.47994V5.51994H32.052V6.47994H26.904ZM34.548 3.37194H29.988C29.868 3.03594 29.736 2.73594 29.604 2.45994L30.252 2.85594C30.516 2.49594 30.768 2.11194 30.984 1.70394H31.74C32.028 2.08794 32.28 2.49594 32.496 2.92794L33.264 2.63994C33.12 2.35194 32.916 2.03994 32.664 1.70394H34.8V0.947939H31.332C31.428 0.707939 31.512 0.467939 31.596 0.215939L30.768 0.035939C30.504 0.899939 30.096 1.67994 29.52 2.39994L29.592 2.44794L28.752 2.59194C28.884 2.83194 29.004 3.08394 29.124 3.37194H24.372V5.54394H25.212V4.11594H33.708V5.54394H34.548V3.37194ZM25.812 1.70394H26.496C26.796 2.13594 27.06 2.57994 27.276 3.03594L28.068 2.73594C27.9 2.41194 27.672 2.06394 27.408 1.70394H29.424V0.947939H26.208C26.304 0.707939 26.412 0.467939 26.508 0.203939L25.68 0.0239391C25.344 0.935939 24.816 1.77594 24.096 2.51994L24.852 2.99994C25.212 2.60394 25.524 2.17194 25.812 1.70394ZM40.452 0.563939V6.10794H42.96V7.52394H40.248V8.33994H42.96V9.89994H39.744V10.7279H46.968V9.89994H43.824V8.33994H46.524V7.52394H43.824V6.10794H46.32V0.563939H40.452ZM45.492 5.33994H43.824V3.71994H45.492V5.33994ZM42.96 5.33994H41.28V3.71994H42.96V5.33994ZM41.28 2.96394V1.33194H42.96V2.96394H41.28ZM43.824 1.33194H45.492V2.96394H43.824V1.33194ZM36.216 4.53594V5.36394H37.524V8.37594C37.008 8.51994 36.48 8.63994 35.952 8.73594L36.168 9.56394C37.44 9.25194 38.628 8.86794 39.732 8.41194V7.57194C39.3 7.76394 38.868 7.93194 38.412 8.08794V5.36394H39.732V4.53594H38.412V1.69194H39.876V0.875939H36.048V1.69194H37.524V4.53594H36.216Z" fill="#1D2129"/>
</svg>
