<svg width="35" height="12" viewBox="0 0 35 12" fill="none" xmlns="http://www.w3.org/2000/svg">
<path d="M2.50795 -2.36034e-05L3.26395 0.347976C2.63995 1.66798 1.64395 2.84398 0.251945 3.86398L-5.46575e-05 3.03598C1.15195 2.14798 1.97995 1.13998 2.50795 -2.36034e-05ZM2.95195 2.75998L3.69595 3.10798C3.40795 3.75598 3.04795 4.36798 2.61595 4.94398V11.016H1.78795V5.90398C1.35595 6.35998 0.875945 6.77998 0.359945 7.17598L0.107945 6.34798C1.40395 5.30398 2.35195 4.10398 2.95195 2.75998ZM6.99595 0.0479758H7.82395V1.35598H10.5239V2.13598H7.82395V3.63598H11.0159V4.42798H3.86395V3.63598H6.99595V2.13598H4.31995V1.35598H6.99595V0.0479758ZM3.92395 5.89198H8.57995V5.00398H9.44395V5.89198H10.8479V6.69598H9.44395V9.77998C9.44395 10.56 9.04795 10.956 8.27995 10.956H6.57595L6.38395 10.128C6.93595 10.164 7.47595 10.188 7.97995 10.188C8.37595 10.188 8.57995 9.97198 8.57995 9.56398V6.69598H3.92395V5.89198ZM5.33995 7.16398C6.01195 7.84798 6.52795 8.44798 6.88795 8.95198L6.21595 9.43198C5.83195 8.87998 5.31595 8.25598 4.66795 7.58398L5.33995 7.16398ZM13.5239 10.968H12.4439L12.2639 10.128C12.5999 10.152 12.9119 10.176 13.2239 10.176C13.5119 10.176 13.6679 10.02 13.6679 9.71998V6.79198C13.2119 6.97198 12.7439 7.13998 12.2759 7.28398L12.0719 6.41998C12.6119 6.28798 13.1399 6.11998 13.6679 5.91598V3.20398H12.2159V2.37598H13.6679V0.107976H14.5559V2.37598H15.7679V3.20398H14.5559V5.54398C14.9039 5.37598 15.2519 5.20798 15.5879 5.01598V5.89198C15.2519 6.07198 14.9039 6.23998 14.5559 6.40798V9.94798C14.5559 10.62 14.2079 10.968 13.5239 10.968ZM16.7039 0.491976H21.9359V4.65598H16.7039V0.491976ZM21.0959 3.94798V2.91598H17.5439V3.94798H21.0959ZM17.5439 2.24398H21.0959V1.19998H17.5439V2.24398ZM15.8639 5.49598H22.7279V6.26398H19.7279V7.61998H22.2359V8.39998H19.7279V9.94798C20.2079 10.02 20.7719 10.056 21.4319 10.056C22.0559 10.056 22.5959 10.032 23.0399 9.99598L22.7999 10.836C22.3199 10.836 21.8759 10.824 21.4919 10.824C19.9079 10.812 18.8279 10.656 18.2519 10.368C17.7959 10.128 17.3759 9.67198 17.0159 8.99998C16.7279 9.74398 16.3319 10.428 15.8159 11.052L15.1799 10.5C16.0919 9.39598 16.5959 8.14798 16.6919 6.77998L17.4599 6.86398C17.4359 7.29598 17.3759 7.70398 17.2799 8.11198C17.6639 8.91598 18.1079 9.43198 18.6119 9.65998C18.6959 9.69598 18.7919 9.73198 18.8999 9.76798V6.26398H15.8639V5.49598ZM33.2399 4.54798H30.6359C29.8919 4.54798 29.5319 4.21198 29.5319 3.55198V3.04798C29.0399 3.19198 28.5359 3.33598 28.0319 3.47998L27.5639 2.79598C28.2599 2.61598 28.9199 2.42398 29.5319 2.23198V0.131976H30.3719V1.95598C31.7399 1.45198 32.8559 0.911976 33.7319 0.311976L34.2839 0.887976C33.1799 1.60798 31.8839 2.24398 30.3719 2.77198V3.38398C30.3719 3.65998 30.5279 3.80398 30.8639 3.80398H33.0839C33.3479 3.80398 33.5399 3.74398 33.6479 3.64798C33.7919 3.52798 33.8879 3.15598 33.9359 2.55598L34.7279 2.80798C34.6439 3.63598 34.4759 4.13998 34.2359 4.31998C34.0199 4.46398 33.6959 4.54798 33.2399 4.54798ZM33.4439 5.23198V8.80798H32.5559V6.02398H26.7839V8.97598H25.9079V5.23198H33.4439ZM30.4319 8.81998C31.9799 9.25198 33.3839 9.79198 34.6559 10.416L34.1759 11.148C32.8199 10.44 31.4279 9.88798 29.9999 9.47998L30.4319 8.81998ZM29.2559 6.55198L30.0959 6.62398C29.9279 8.18398 29.5559 9.23998 28.9919 9.79198C28.3679 10.464 26.9759 10.896 24.8039 11.076L24.4559 10.296C26.3879 10.2 27.6599 9.86398 28.2839 9.28798C28.8359 8.74798 29.1599 7.83598 29.2559 6.55198ZM26.0519 2.47198C25.5719 2.80798 25.0439 3.13198 24.4679 3.43198L24.2039 2.59198C25.6799 1.83598 26.7599 0.971976 27.4319 0.0119762L28.1399 0.359976C27.8039 0.875976 27.3839 1.35598 26.8919 1.79998V4.70398H26.0519V2.47198Z" fill="#1D2129"/>
</svg>
