<svg width="47" height="12" viewBox="0 0 47 12" fill="none" xmlns="http://www.w3.org/2000/svg">
<path d="M8.25624 6.93601L9.09624 7.16401C8.78424 8.16001 8.40024 9.06001 7.94424 9.85201H10.5242V10.656H0.396242V9.85201H7.02024C7.48824 9.03601 7.89624 8.06401 8.25624 6.93601ZM2.52024 7.08001C2.86824 7.72801 3.18024 8.48401 3.45624 9.32401L2.67624 9.52801C2.43624 8.76001 2.12424 8.02801 1.74024 7.33201L2.52024 7.08001ZM5.29224 6.84001C5.56824 7.53601 5.82024 8.32801 6.03624 9.22801L5.26824 9.43201C5.06424 8.61601 4.81224 7.83601 4.50024 7.09201L5.29224 6.84001ZM2.34024 5.68801H8.56824V6.45601H2.34024V5.68801ZM1.86024 1.86001C1.54824 2.46001 1.20024 3.01201 0.804242 3.51601L0.0602422 3.04801C0.804242 2.13601 1.34424 1.12801 1.68024 0.024013L2.52024 0.204013C2.42424 0.516013 2.31624 0.804013 2.20824 1.09201H5.36424V1.86001H3.63624C3.82824 2.28001 3.99624 2.67601 4.11624 3.03601L3.32424 3.32401C3.16824 2.82001 2.98824 2.32801 2.77224 1.86001H1.86024ZM6.91224 1.86001C6.69624 2.28001 6.46824 2.67601 6.21624 3.03601L5.48424 2.56801C6.04824 1.80001 6.45624 0.960013 6.70824 0.024013L7.53624 0.204013C7.44024 0.516013 7.34424 0.804013 7.24824 1.09201H10.7522V1.86001H8.84424C9.10824 2.31601 9.31224 2.73601 9.46824 3.14401L8.67624 3.43201C8.46024 2.89201 8.22024 2.36401 7.95624 1.86001H6.91224ZM5.17224 3.04801H5.72424C7.21224 4.14001 8.94024 5.00401 10.8962 5.62801L10.4762 6.37201C8.50824 5.70001 6.84024 4.83601 5.44824 3.75601C4.17624 4.76401 2.49624 5.62801 0.408242 6.36001L0.000242233 5.61601C2.06424 4.92001 3.79224 4.06801 5.17224 3.04801ZM12.5282 8.68801L12.2642 7.95601C12.4322 7.88401 12.5282 7.78801 12.5282 7.66801V1.09201H13.3682V7.64401C13.9682 7.47601 14.5682 7.27201 15.1682 7.04401V0.120013H16.0202V10.992H15.1682V7.88401C14.3282 8.18401 13.4402 8.44801 12.5282 8.68801ZM18.4682 2.73601C18.3242 3.12001 18.1802 3.48001 18.0242 3.81601C18.4562 4.99201 19.0082 6.07201 19.7042 7.05601C20.4242 5.83201 20.8082 4.39201 20.8802 2.73601H18.4682ZM17.5202 4.75201C17.2922 5.11201 17.0522 5.43601 16.8002 5.73601L16.2602 5.07601C17.2442 3.82801 17.9162 2.13601 18.2642 0.024013L19.1282 0.168013C19.0082 0.780013 18.8762 1.35601 18.7322 1.88401H22.7402V2.73601H21.7082C21.6242 4.70401 21.1442 6.39601 20.2562 7.78801C21.0482 8.77201 21.9602 9.64801 23.0162 10.416L22.4282 11.112C21.3842 10.332 20.4842 9.46801 19.7282 8.53201C18.9362 9.52801 17.9162 10.356 16.6682 11.028L16.1762 10.248C17.4362 9.62401 18.4442 8.82001 19.1882 7.83601C18.5162 6.87601 17.9522 5.85601 17.5202 4.75201ZM32.8802 4.80001V7.15201H26.8922V7.98001H33.4322V11.064H32.5802V10.56H26.8922V11.052H26.0282V4.80001H32.8802ZM26.8922 9.79201H32.5802V8.67601H26.8922V9.79201ZM26.8922 6.45601H32.0402V5.49601H26.8922V6.45601ZM34.5362 3.34801V5.52001H33.6962V4.09201H25.2002V5.52001H24.3602V3.34801H29.1122C28.9922 3.06001 28.8722 2.80801 28.7402 2.56801L29.5802 2.42401L29.5082 2.37601C30.0842 1.65601 30.4922 0.876014 30.7562 0.0120132L31.5842 0.192013C31.5002 0.444013 31.4162 0.684013 31.3202 0.924013H34.7882V1.68001H32.6522C32.9042 2.01601 33.1082 2.32801 33.2522 2.61601L32.4842 2.90401C32.2682 2.47201 32.0162 2.06401 31.7282 1.68001H30.9722C30.7562 2.08801 30.5042 2.47201 30.2402 2.83201L29.5922 2.43601C29.7242 2.71201 29.8562 3.01201 29.9762 3.34801H34.5362ZM25.8002 1.68001C25.5122 2.14801 25.2002 2.58001 24.8402 2.97601L24.0842 2.49601C24.8042 1.75201 25.3322 0.912013 25.6682 1.33514e-05L26.4962 0.180013C26.4002 0.444013 26.2922 0.684013 26.1962 0.924013H29.4122V1.68001H27.3962C27.6602 2.04001 27.8882 2.38801 28.0562 2.71201L27.2642 3.01201C27.0482 2.55601 26.7842 2.11201 26.4842 1.68001H25.8002ZM40.4402 0.540014H46.3082V6.08401H43.8122V7.50001H46.5122V8.31601H43.8122V9.87601H46.9562V10.704H39.7322V9.87601H42.9482V8.31601H40.2362V7.50001H42.9482V6.08401H40.4402V0.540014ZM45.4802 5.31601V3.69601H43.8122V5.31601H45.4802ZM42.9482 5.31601V3.69601H41.2682V5.31601H42.9482ZM41.2682 2.94001H42.9482V1.30801H41.2682V2.94001ZM43.8122 1.30801V2.94001H45.4802V1.30801H43.8122ZM36.2042 4.51201H37.5122V1.66801H36.0362V0.852013H39.8642V1.66801H38.4002V4.51201H39.7202V5.34001H38.4002V8.06401C38.8562 7.90801 39.2882 7.74001 39.7202 7.54801V8.38801C38.6162 8.84401 37.4282 9.22801 36.1562 9.54001L35.9402 8.71201C36.4682 8.61601 36.9962 8.49601 37.5122 8.35201V5.34001H36.2042V4.51201Z" fill="#1D2129"/>
</svg>
