<svg width="47" height="12" viewBox="0 0 47 12" fill="none" xmlns="http://www.w3.org/2000/svg">
<path d="M10.2482 7.5479V3.4079H5.59223V1.4159H10.7522V0.587902H4.71623V10.7279H10.9682V9.8999H5.59223V7.5479H10.2482ZM5.59223 4.2119H9.42023V6.7319H5.59223V4.2119ZM4.17623 4.9079C3.69623 5.1599 3.20423 5.3879 2.70023 5.6039V3.1319H4.16423V2.3039H2.70023V0.131902H1.87223V2.3039H0.192227V3.1319H1.87223V5.9159C1.26023 6.1319 0.636227 6.3119 0.000226572 6.4559L0.216227 7.3319C0.780227 7.1639 1.33223 6.9719 1.87223 6.7799V9.8519C1.87223 10.1159 1.75223 10.2479 1.53623 10.2479C1.17623 10.2479 0.804227 10.2239 0.420227 10.1879L0.600227 11.0039H1.82423C2.40023 11.0039 2.70023 10.6799 2.70023 10.0559V6.4559C3.20423 6.2399 3.69623 6.0239 4.17623 5.7839V4.9079ZM12.6122 8.7239C13.5242 8.4839 14.4122 8.2199 15.2522 7.9199V11.0279H16.1042V0.155902H15.2522V7.0799C14.6522 7.3079 14.0522 7.5119 13.4522 7.6799V1.1279H12.6122V7.7039C12.6122 7.8239 12.5162 7.9199 12.3482 7.9919L12.6122 8.7239ZM18.5522 2.7719H20.9642C20.8922 4.4279 20.5082 5.8679 19.7882 7.0919C19.0922 6.1079 18.5402 5.0279 18.1082 3.8519C18.2642 3.5159 18.4082 3.1559 18.5522 2.7719ZM17.6042 4.7879C18.0362 5.8919 18.6002 6.9119 19.2722 7.8719C18.5282 8.8559 17.5202 9.6599 16.2602 10.2839L16.7522 11.0639C18.0002 10.3919 19.0202 9.5639 19.8122 8.5679C20.5682 9.5039 21.4682 10.3679 22.5122 11.1479L23.1002 10.4519C22.0442 9.6839 21.1322 8.8079 20.3402 7.8239C21.2282 6.4319 21.7082 4.7399 21.7922 2.7719H22.8242V1.9199H18.8162C18.9602 1.3919 19.0922 0.815902 19.2122 0.203902L18.3482 0.0599017C18.0002 2.1719 17.3282 3.8639 16.3442 5.1119L16.8842 5.7719C17.1362 5.4719 17.3762 5.1479 17.6042 4.7879ZM25.0682 0.263902L24.4802 0.827902C25.3322 1.5239 26.0042 2.1839 26.4842 2.7839L27.1082 2.1719C26.5562 1.5359 25.8722 0.899902 25.0682 0.263902ZM32.0162 10.8839H34.8242L35.0162 10.0559C34.7042 10.0679 34.2482 10.0799 33.6602 10.1039C33.0602 10.1039 32.4842 10.1159 31.9082 10.1159C30.9842 10.1159 30.2042 10.1039 29.5802 10.0919C28.8842 10.0679 28.3442 9.9719 27.9842 9.8039C27.6602 9.6359 27.3482 9.3839 27.0602 9.0359C26.9642 8.9279 26.8802 8.8319 26.7842 8.7599V4.2599H24.2642V5.0519H25.9802V8.6999C25.4762 8.9159 24.9122 9.5279 24.2642 10.5359L24.9122 11.1239C25.5842 10.0199 26.0642 9.4679 26.3522 9.4679C26.4962 9.4679 26.6522 9.5639 26.8082 9.7679C27.1802 10.1999 27.6002 10.4999 28.0562 10.6439C28.5362 10.7759 29.1602 10.8479 29.9162 10.8599C30.6722 10.8719 31.3682 10.8839 32.0162 10.8839ZM34.0202 0.227902C32.5082 0.623902 30.6602 0.851902 28.4762 0.899902V3.5399C28.4402 5.7599 28.0322 7.4879 27.2642 8.7119L28.0442 9.0959C28.8002 7.8959 29.2082 6.1319 29.2682 3.7799H33.4562C33.1562 4.6199 32.7482 5.3879 32.2322 6.0959C31.5602 5.5079 30.8282 4.9439 30.0602 4.4039L29.5562 5.0159C30.3362 5.5679 31.0562 6.1319 31.7282 6.7319C31.0082 7.5479 30.1322 8.2439 29.0762 8.8199L29.5922 9.5039C30.6722 8.9039 31.5842 8.1599 32.3402 7.2959C33.0482 7.9679 33.6842 8.6639 34.2482 9.3839L34.8242 8.6999C34.2242 8.0039 33.5642 7.3199 32.8442 6.6479C33.4802 5.7719 33.9722 4.7759 34.3202 3.6479V3.0359H29.2802L29.2682 1.6559C31.1642 1.6079 32.8922 1.3799 34.4402 0.971902L34.0202 0.227902ZM41.9402 -9.82285e-05L40.9802 0.167902C41.1962 0.455902 41.4122 0.791902 41.6042 1.1639H37.0922V4.7399C37.0682 7.1879 36.7202 9.0959 36.0602 10.4639L36.7682 11.0999C37.5362 9.5159 37.9322 7.3919 37.9802 4.7399V2.0039H46.8722V1.1639H42.5522C42.3602 0.731902 42.1562 0.347902 41.9402 -9.82285e-05ZM41.1602 2.3399C41.0282 2.7359 40.8962 3.1199 40.7642 3.4919H38.6402V4.2479H40.4522C40.0802 5.0759 39.6602 5.7719 39.2042 6.3359L39.3842 7.0799H42.5282V8.4239H38.1962V9.2159H42.5282V11.1119H43.3922V9.2159H46.9802V8.4239H43.3922V7.0799H46.0682V6.2999H43.3922V4.8479H42.5282V6.2999H40.2842C40.6682 5.6999 41.0282 5.0159 41.3642 4.2479H46.3442V3.4919H41.6642C41.7722 3.1799 41.8802 2.8679 41.9882 2.5319L41.1602 2.3399Z" fill="#1D2129"/>
</svg>
