<svg width="48" height="12" viewBox="0 0 48 12" fill="none" xmlns="http://www.w3.org/2000/svg">
<path d="M1.44023 10.956H0.432227L0.252227 10.14C0.564227 10.176 0.864227 10.2 1.15223 10.2C1.48823 10.2 1.65623 10.008 1.65623 9.64801V6.84001C1.17623 7.00801 0.696227 7.17601 0.216227 7.32001L0.000226572 6.45601C0.564227 6.32401 1.11623 6.16801 1.65623 5.97601V3.19201H0.192227V2.36401H1.65623V0.0960135H2.49623V2.36401H3.66023V3.19201H2.49623V5.65201C2.92823 5.46001 3.36023 5.25601 3.78023 5.04001V5.91601C3.36023 6.13201 2.92823 6.32401 2.49623 6.50401V9.86401C2.49623 10.584 2.13623 10.956 1.44023 10.956ZM5.55623 2.25601C5.12423 3.09601 4.63223 3.84001 4.09223 4.48801L3.52823 3.82801C4.39223 2.85601 5.08823 1.58401 5.62823 0.024013L6.42023 0.192013C6.27623 0.624013 6.10823 1.03201 5.94023 1.42801H10.7042V2.25601H5.55623ZM10.2602 3.62401C10.2602 5.72401 10.2002 6.99601 10.1042 7.44001C10.0082 7.87201 9.57623 8.10001 8.82023 8.10001H8.50823L8.28023 7.34401C8.54423 7.34401 8.77223 7.35601 8.96423 7.35601C9.20423 7.35601 9.34823 7.23601 9.39623 7.02001C9.44423 6.80401 9.46823 6.03601 9.48023 4.69201L7.90823 5.22001V8.92801H7.14023V5.47201L5.80823 5.91601V9.45601C5.80823 9.86401 5.97623 10.08 6.31223 10.08H8.91623C9.32423 10.08 9.62423 9.99601 9.81623 9.85201C9.98423 9.68401 10.1042 9.13201 10.1642 8.19601L10.9202 8.44801C10.8242 9.57601 10.6562 10.26 10.4162 10.5C10.1642 10.74 9.70823 10.86 9.04823 10.86H6.12023C5.38823 10.86 5.02823 10.428 5.02823 9.56401V6.18001L4.10423 6.49201V5.72401L5.02823 5.41201V3.70801H5.80823V5.14801L7.14023 4.69201V2.86801H7.90823V4.42801L10.2602 3.62401ZM12.5882 1.60801H15.4082C15.6362 1.10401 15.8642 0.564013 16.0802 1.33514e-05L16.9442 0.192013C16.7522 0.684013 16.5482 1.15201 16.3442 1.60801H22.4642V2.44801H15.9242C15.3842 3.46801 14.7962 4.36801 14.1482 5.16001H17.2442V3.39601H18.1202V5.16001H21.8162V5.95201H18.1202V7.71601H22.6682V8.55601H18.1202V11.136H17.2442V8.55601H12.4082V7.71601H17.2442V5.95201H13.2482L13.0562 5.16001C13.7522 4.44001 14.4002 3.52801 14.9882 2.44801H12.5882V1.60801ZM27.7922 0.180013H28.6682V9.72001H30.3722V0.180013H31.2482V9.72001H34.8482V10.56H24.2162V9.72001H27.7922V0.180013ZM33.7562 2.36401L34.5242 2.58001C34.0442 4.66801 33.4442 6.49201 32.7122 8.06401L31.9322 7.78801C32.6282 6.37201 33.2402 4.56001 33.7562 2.36401ZM25.2482 2.34001C25.8722 3.96001 26.4362 5.82001 26.9282 7.92001L26.1362 8.12401C25.7042 6.20401 25.1642 4.35601 24.5162 2.58001L25.2482 2.34001ZM39.6602 0.024013L40.5362 0.144013C40.4042 0.468013 40.2482 0.768013 40.0802 1.05601H45.3122V1.75201C44.5442 2.64001 43.6082 3.39601 42.5042 4.02001C43.8602 4.59601 45.3722 4.96801 47.0402 5.13601L46.6442 5.94001C44.7482 5.72401 43.0562 5.24401 41.5682 4.50001C40.1042 5.17201 38.3882 5.66401 36.4442 5.96401L36.0482 5.14801C37.7882 4.90801 39.3122 4.52401 40.6322 3.99601C39.9602 3.60001 39.3362 3.14401 38.7602 2.64001C38.3042 3.04801 37.8122 3.42001 37.2602 3.75601L36.7322 3.06001C38.1722 2.23201 39.1562 1.22401 39.6602 0.024013ZM41.5562 3.57601C42.5282 3.09601 43.3682 2.52001 44.0762 1.87201H39.4922L39.3362 2.06401C40.0082 2.65201 40.7522 3.15601 41.5562 3.57601ZM40.8242 5.36401H41.6762C41.6762 5.84401 41.6282 6.30001 41.5562 6.73201H45.7802C45.7562 8.76001 45.5762 9.97201 45.2282 10.368C44.8802 10.764 44.2802 10.968 43.4282 10.968C43.0442 10.968 42.5762 10.944 42.0242 10.92L41.8082 10.14L43.2242 10.2C43.9442 10.188 44.3882 10.032 44.5802 9.74401C44.7602 9.45601 44.8682 8.71201 44.9042 7.51201H41.3522C41.2562 7.82401 41.1242 8.12401 40.9682 8.41201C40.3562 9.49201 38.9522 10.392 36.7442 11.088L36.1682 10.38C38.1362 9.80401 39.4442 9.07201 40.0682 8.19601C40.2122 7.98001 40.3442 7.75201 40.4402 7.51201H36.8642V6.73201H40.6802C40.7762 6.30001 40.8242 5.84401 40.8242 5.36401Z" fill="#1D2129"/>
</svg>
