<svg width="800" height="200" viewBox="0 0 800 200" fill="none" xmlns="http://www.w3.org/2000/svg">
<path fill-rule="evenodd" clip-rule="evenodd" d="M150.633 38L133.585 118L133.569 117.998L129.899 135.143L104.827 135.144C104.328 123.487 94.7058 114.191 82.9088 114.191C71.1119 114.191 61.4894 123.487 60.9904 135.144L39.985 135.143L46.4761 104.667H105.903L113.757 67.8092C117.413 50.6533 132.438 38.3236 149.941 38.0063L150.633 38ZM260.665 38C257.365 54.6073 242.771 66.5715 225.813 66.5715H150.017L155.932 38H260.665ZM238.389 72.2858C235.109 88.8888 220.526 100.857 203.577 100.857H143.002L148.955 72.2858H238.389ZM192.514 134.089C205.62 130.826 216.06 120.287 218.818 106.572H141.751L135.363 135.143L148.903 135.143C150.313 124.396 159.575 116.096 170.791 116.096C181.637 116.096 190.656 123.858 192.514 134.089ZM99.1246 136.096C99.1246 127.154 91.8646 119.905 82.9088 119.905C73.9531 119.905 66.6933 127.154 66.6933 136.096C66.6933 141.544 69.3888 146.364 73.5202 149.295C54.2516 151.953 36.0782 156.125 19 161.81C70.083 152.613 119.633 151.015 168.373 154.03C169.121 154.136 169.886 154.191 170.664 154.191L170.889 154.188C194.824 155.746 218.567 158.405 242.204 161.81C222.592 156.163 202.599 152.009 182.227 149.351C185.105 146.429 186.88 142.422 186.88 138C186.88 129.059 179.62 121.81 170.664 121.81C161.709 121.81 154.449 129.059 154.449 138C154.449 141.26 155.413 144.295 157.075 146.835C147.087 146.139 137.011 145.791 126.847 145.791C115.903 145.791 105.251 146.194 94.8917 147.004C97.521 144.126 99.1246 140.298 99.1246 136.096Z" fill="url(#paint0_linear_45_263)"/>
<path fill-rule="evenodd" clip-rule="evenodd" d="M104.011 58.8867H109.179L100.82 98.9528H47.4487C55.8907 74.9482 78.565 58.8867 104.011 58.8867Z" fill="#FF5F00"/>
<path fill-rule="evenodd" clip-rule="evenodd" d="M323.401 51.0777C323.989 48.8134 324.537 46.3588 325.046 43.7141H310.452L308.807 47.3668L307.789 49.5982C305.776 53.9278 303.8 57.5302 300.109 61.6959C296.871 65.3491 292.747 67.7099 288.172 69.9006L285.849 70.9871L281.968 72.7614L279.315 74.0133L281.695 88.5955C282.734 88.3598 284.106 87.8321 285.593 87.1878L287.11 86.5112L290.811 84.7836L292.597 83.9666L293.401 83.619L269.609 154.191H287.106L315.7 67.9556C316.607 66.9907 317.471 65.8169 318.292 64.4342L400.034 64.4287L404.602 51.0716H371.619L375.095 43.7141H355.418L351.941 51.0716L323.401 51.0777ZM388.574 83.9355L393.23 70.1259H319.558L315.03 83.9355H388.574ZM382.426 102.405L387.064 88.5955H313.37L308.707 102.405H382.426ZM365.348 154.191L380.189 109.31H306.536L291.441 154.191H365.348ZM317.122 121.252H360.329L353.27 141.755H310.063L317.122 121.252Z" fill="#282828"/>
<path fill-rule="evenodd" clip-rule="evenodd" d="M478.158 43.7144H459.424L450.218 70.6999L442.511 93.0222L435.588 112.683L432.134 122.213L430.59 126.354L428.904 130.715L427.919 133.116L427.281 134.546L426.89 135.317C424.447 139.705 418.08 141.041 407.79 139.324L402.533 154.191H429.34L429.969 154.173C436.545 153.811 445.241 147.864 448.108 138.094C448.132 138.014 448.157 137.93 448.182 137.843L451.314 127.72L478.158 43.7144ZM437.1 67.8811C431.344 83.9362 425.779 93.521 417.353 103.546C409.048 113.426 397.806 122.252 383.627 130.024L388.866 113.897C400.883 102.565 409.381 89.5281 417.418 67.8811H437.1ZM503.94 67.8811C498.056 89.5281 497.386 106.017 501.928 117.35L496.817 133.477C487.905 125.704 482.532 116.878 480.692 106.999C478.824 96.9734 480.168 83.9362 484.732 67.8811H503.94Z" fill="#282828"/>
<path fill-rule="evenodd" clip-rule="evenodd" d="M587.292 52.1143L590.041 43.7144H570.354L567.458 52.1143H556.215L552.352 63.6223H578.755L576.129 71.4473H548.842L542.75 89.604C540.232 97.5484 542.478 101.891 549.492 102.633H565.917L552.478 137.873H572.69L585.836 102.749H598.595L590.699 123.325C589.838 125.353 588.243 126.366 585.911 126.366H581.507L576.995 137.873H590.765C595.734 137.873 599.647 136.877 602.509 134.881C605.365 132.887 607.569 129.588 609.113 124.985L621.406 91.2407H589.698L592.479 82.9552H605.618C611.176 82.9552 615.453 81.8814 618.449 79.7328C621.442 77.5869 623.801 73.9421 625.527 68.8009L631.127 52.1143H620.011L622.895 43.7144H604.994L602.255 52.1143H587.292ZM548.627 47.1667L543.579 60.9763H528.002L533.151 47.1667H548.627ZM601.014 63.4049H615.062L614.38 66.8791C613.817 68.5554 613.303 69.1052 612.652 69.574L611.948 70.0549C610.781 70.8697 609.032 71.2733 606.69 71.2733H598.664L601.014 63.4049ZM520.36 141.846L545.54 67.8811H517.466L513.378 80.2081H525.03L500.502 154.191H610.912L613.94 141.846H535.104L529.309 141.824L520.36 141.846ZM558.882 82.8524H570.094L567.128 91.0131H563.496L562.552 91C560.771 90.9417 558.788 90.6364 557.779 89.1402C556.983 87.9617 557.351 85.8657 558.882 82.8524ZM556.301 108.692L545.19 137.873H530.098L540.899 108.692H556.301Z" fill="#282828"/>
<path d="M647.098 126.143V141.667H668.907V126.143H647.098ZM664.574 137.667H651.431V130.191H664.574V137.667ZM676.812 149.715C680.336 149.715 682.098 147.858 682.098 144.143V107.715H645.669V112.096H677.574V142.905C677.574 144.62 677.003 145.477 675.86 145.477L669.098 145.382L670.241 149.715H676.812ZM643.241 117.096V121.239H673.336V117.096H643.241ZM690.67 115.048V119.381H697.146C695.574 124.905 693.098 129.762 689.669 134.048L691.622 138.953C693.908 135.477 695.86 131.667 697.384 127.477V149.81H701.86V125.858C702.955 127.572 704.241 129.762 705.717 132.381L708.384 128.381C706.193 125.81 704.05 123.477 701.86 121.381V119.381H707.384V115.048H701.86V106.143H697.384V115.048H690.67ZM704.622 147.048L708.336 150.382C710.574 146.858 712.098 143.239 712.908 139.429C713.765 135.715 714.193 131.191 714.193 125.858V112H721.479V144.334C721.479 147.382 723.193 148.905 726.67 148.905H728.765C730.384 148.905 731.622 148.572 732.384 148.001C733.098 147.286 733.574 146.048 733.765 144.286C734.003 142.477 734.146 139.81 734.146 136.191L730.003 134.905C730.003 139.858 729.86 142.667 729.67 143.429C729.574 143.81 729.432 144.143 729.193 144.382C728.955 144.572 728.622 144.667 728.193 144.667H726.717C726.241 144.667 726.051 144.382 726.051 143.858V107.715H709.717V125.858C709.717 131.096 709.384 135.096 708.765 137.858C707.955 141.096 706.574 144.143 704.622 147.048ZM748.908 106.619V118.858H744.908V107.572H740.479V125.096C740.432 134.81 739.384 141.858 737.384 146.334L740.813 149.286C742.717 145.572 744.003 140.239 744.574 133.286H749.527V149.858H753.955V128.953H744.813C744.86 127.715 744.908 126.429 744.908 125.096V123.286H755.622V118.858H753.336V106.619H748.908ZM762.146 123.905H763.241C764.194 130.001 765.86 135.143 768.289 139.382C766.003 142.048 763.241 144.334 759.908 146.191L762.051 150.191C765.479 148.334 768.432 146.001 770.908 143.239C773.194 146.096 776.003 148.429 779.384 150.143L781.622 146.191C778.527 144.62 775.908 142.382 773.717 139.524C776.575 135.143 778.479 129.762 779.527 123.477V119.62H762.146V113.286C768.908 113 775.003 112.048 780.527 110.429L778.337 106.381C772.337 108.286 765.575 109.286 758.003 109.429V127.905C757.813 135.81 756.575 142.048 754.194 146.524L757.289 149.81C760.336 144.382 761.955 137.048 762.146 127.905V123.905ZM767.289 123.905H775.194C774.432 128.191 773.051 132.001 771.098 135.382C769.384 132.143 768.146 128.286 767.289 123.905Z" fill="#00AAA6"/>
<defs>
<linearGradient id="paint0_linear_45_263" x1="61.0772" y1="38" x2="101.879" y2="155.536" gradientUnits="userSpaceOnUse">
<stop stop-color="#57E8DF"/>
<stop offset="1" stop-color="#00AAA6"/>
</linearGradient>
</defs>
</svg>
