<svg width="254" height="130" viewBox="0 0 254 130" fill="none" xmlns="http://www.w3.org/2000/svg">
<g clip-path="url(#clip0_36_122)">
<path fill-rule="evenodd" clip-rule="evenodd" d="M67.18 86C70.4821 85.9866 73.7164 86.9363 76.4871 88.7328C79.2577 90.5294 81.4444 93.0948 82.7794 96.115C84.1144 99.1353 84.5398 102.479 84.0035 105.737C83.4672 108.996 81.9926 112.027 79.76 114.46C90.66 113.6 101.76 113.18 113.36 113.18C124.027 113.18 134.613 113.547 145.12 114.28C143.367 111.588 142.411 108.455 142.362 105.243C142.313 102.031 143.173 98.8701 144.843 96.1256C146.513 93.3812 148.924 91.1646 151.8 89.7317C154.675 88.2988 157.896 87.7078 161.093 88.027C164.29 88.3462 167.331 89.5625 169.866 91.5357C172.401 93.5088 174.327 96.1584 175.421 99.1788C176.515 102.199 176.734 105.467 176.05 108.607C175.367 111.746 173.811 114.628 171.56 116.92C192.872 119.689 213.945 124.061 234.6 130C209.76 126.42 184.8 123.64 159.64 122H159.4C158.597 121.998 157.796 121.944 157 121.84C105.76 118.66 53.7 120.34 0 130C18.658 123.877 37.8383 119.478 57.3 116.86C54.3446 114.778 52.1311 111.806 50.9816 108.378C49.8321 104.951 49.8067 101.246 50.9091 97.8023C52.0114 94.3591 54.184 91.3577 57.1105 89.2349C60.037 87.1121 63.5647 85.9788 67.18 86ZM138.36 0L120.36 84L116.5 102H90.2C89.7798 96.187 87.1742 90.7488 82.9071 86.779C78.6401 82.8092 73.0281 80.6024 67.2 80.6024C61.3719 80.6024 55.7599 82.8092 51.4929 86.779C47.2258 90.7488 44.6202 96.187 44.2 102H22L28.82 70H91.34L99.6 31.3C101.473 22.5566 106.249 14.7043 113.153 9.02117C120.056 3.33799 128.68 0.158454 137.62 0L138.36 0ZM210 72C208.595 78.9337 205.255 85.3278 200.367 90.4423C195.479 95.5568 189.243 99.1826 182.38 100.9C181.349 95.4932 178.433 90.6278 174.15 87.1702C169.867 83.7126 164.496 81.8873 158.994 82.0194C153.491 82.1514 148.214 84.2322 144.102 87.8912C139.99 91.5503 137.31 96.55 136.54 102H122.3L129.02 72H210ZM230.56 36C228.883 44.4607 224.321 52.0771 217.653 57.5485C210.986 63.0199 202.625 66.0071 194 66H130.34L136.58 36H230.56ZM254 0C252.31 8.46903 247.733 16.0892 241.051 21.5602C234.369 27.0313 225.996 30.0142 217.36 30H137.7L144 0H254Z" fill="url(#paint0_linear_36_122)"/>
<path fill-rule="evenodd" clip-rule="evenodd" d="M89.32 22H94.78L86 64H30C34.3358 51.7278 42.3673 41.1003 52.9899 33.5793C63.6125 26.0582 76.3044 22.013 89.32 22Z" fill="#FF5F00"/>
</g>
<defs>
<linearGradient id="paint0_linear_36_122" x1="44.94" y1="48.8" x2="135.903" y2="117.714" gradientUnits="userSpaceOnUse">
<stop stop-color="#57E8DF"/>
<stop offset="1" stop-color="#00AAA6"/>
</linearGradient>
<clipPath id="clip0_36_122">
<rect width="254" height="130" fill="white"/>
</clipPath>
</defs>
</svg>
