<svg width="48" height="58" viewBox="0 0 48 58" fill="none" xmlns="http://www.w3.org/2000/svg">
<g filter="url(#filter0_f_369_701)">
<ellipse cx="24" cy="45" rx="17" ry="7" fill="#B8BBFF"/>
</g>
<g filter="url(#filter1_f_369_701)">
<path d="M30.5 47C30.5 48.6569 27.5899 50 24 50C20.4101 50 17.5 48.6569 17.5 47C17.5 45.3431 20.4101 44 24 44C27.5899 44 30.5 45.3431 30.5 47Z" fill="white"/>
</g>
<path d="M48 24C48 41.6731 41.6726 48 23.9995 48C6.32636 48 0 41.673 0 23.9999C0 6.32681 6.32636 0 23.9995 0C41.6726 0 48 6.32689 48 24Z" fill="url(#paint0_linear_369_701)"/>
<g filter="url(#filter2_d_369_701)">
<rect x="19" y="10" width="10" height="4" rx="2" fill="white" fill-opacity="0.5"/>
<g filter="url(#filter3_i_369_701)">
<path fill-rule="evenodd" clip-rule="evenodd" d="M18 12.5C18 12.3288 18.0172 12.1616 18.05 12H14C12.8954 12 12 12.8954 12 14V36C12 37.1046 12.8954 38 14 38H34C35.1046 38 36 37.1046 36 36V14C36 12.8954 35.1046 12 34 12H29.95C29.9828 12.1616 30 12.3288 30 12.5C30 13.8807 28.8807 15 27.5 15H20.5C19.1193 15 18 13.8807 18 12.5ZM25.7538 22.0441C25.292 20.1084 22.5942 19.9616 21.9249 21.8357L20.7949 25H17.0879C16.5356 25 16.0879 25.4477 16.0879 26C16.0879 26.5523 16.5356 27 17.0879 27H20.7949C21.6402 27 22.3942 26.4686 22.6784 25.6726L23.8084 22.5083L24.9909 27.4642C25.2058 28.3647 26.0106 29 26.9363 29H30.9998C31.5521 29 31.9998 28.5523 31.9998 28C31.9998 27.4477 31.5521 27 30.9998 27L26.9363 27L25.7538 22.0441Z" fill="#E1DCFE"/>
</g>
</g>
<defs>
<filter id="filter0_f_369_701" x="1" y="32" width="46" height="26" filterUnits="userSpaceOnUse" color-interpolation-filters="sRGB">
<feFlood flood-opacity="0" result="BackgroundImageFix"/>
<feBlend mode="normal" in="SourceGraphic" in2="BackgroundImageFix" result="shape"/>
<feGaussianBlur stdDeviation="3" result="effect1_foregroundBlur_369_701"/>
</filter>
<filter id="filter1_f_369_701" x="12.5" y="39" width="23" height="16" filterUnits="userSpaceOnUse" color-interpolation-filters="sRGB">
<feFlood flood-opacity="0" result="BackgroundImageFix"/>
<feBlend mode="normal" in="SourceGraphic" in2="BackgroundImageFix" result="shape"/>
<feGaussianBlur stdDeviation="2.5" result="effect1_foregroundBlur_369_701"/>
</filter>
<filter id="filter2_d_369_701" x="8.5" y="8.5" width="30" height="34" filterUnits="userSpaceOnUse" color-interpolation-filters="sRGB">
<feFlood flood-opacity="0" result="BackgroundImageFix"/>
<feColorMatrix in="SourceAlpha" type="matrix" values="0 0 0 0 0 0 0 0 0 0 0 0 0 0 0 0 0 0 127 0" result="hardAlpha"/>
<feOffset dx="-0.5" dy="1.5"/>
<feGaussianBlur stdDeviation="1.5"/>
<feComposite in2="hardAlpha" operator="out"/>
<feColorMatrix type="matrix" values="0 0 0 0 0.283681 0 0 0 0 0.283681 0 0 0 0 0.791667 0 0 0 1 0"/>
<feBlend mode="normal" in2="BackgroundImageFix" result="effect1_dropShadow_369_701"/>
<feBlend mode="normal" in="SourceGraphic" in2="effect1_dropShadow_369_701" result="shape"/>
</filter>
<filter id="filter3_i_369_701" x="12" y="12" width="24" height="26" filterUnits="userSpaceOnUse" color-interpolation-filters="sRGB">
<feFlood flood-opacity="0" result="BackgroundImageFix"/>
<feBlend mode="normal" in="SourceGraphic" in2="BackgroundImageFix" result="shape"/>
<feColorMatrix in="SourceAlpha" type="matrix" values="0 0 0 0 0 0 0 0 0 0 0 0 0 0 0 0 0 0 127 0" result="hardAlpha"/>
<feOffset dy="0.5"/>
<feComposite in2="hardAlpha" operator="arithmetic" k2="-1" k3="1"/>
<feColorMatrix type="matrix" values="0 0 0 0 1 0 0 0 0 1 0 0 0 0 1 0 0 0 1 0"/>
<feBlend mode="normal" in2="shape" result="effect1_innerShadow_369_701"/>
</filter>
<linearGradient id="paint0_linear_369_701" x1="0" y1="0" x2="48" y2="48" gradientUnits="userSpaceOnUse">
<stop stop-color="#7C81F9"/>
<stop offset="1" stop-color="#523AE8"/>
</linearGradient>
</defs>
</svg>
