<svg width="24" height="24" viewBox="0 0 24 24" fill="none" xmlns="http://www.w3.org/2000/svg">
<g clip-path="url(#clip0_782_23294)">
<path d="M7.09088 17.0303C6.79798 16.7374 6.79798 16.2626 7.09088 15.9697L15.9297 7.13084C16.2226 6.83794 16.6975 6.83794 16.9904 7.13084C17.2833 7.42373 17.2833 7.8986 16.9904 8.1915L8.15154 17.0303C7.85864 17.3232 7.38377 17.3232 7.09088 17.0303Z" fill="#BFC5CC"/>
<path d="M7.03022 7.03033C7.32311 6.73744 7.79798 6.73744 8.09088 7.03033L16.9297 15.8692C17.2226 16.1621 17.2226 16.6369 16.9297 16.9298C16.6368 17.2227 16.1619 17.2227 15.8691 16.9298L7.03022 8.09099C6.73732 7.7981 6.73732 7.32322 7.03022 7.03033Z" fill="#BFC5CC"/>
</g>
<defs>
<clipPath id="clip0_782_23294">
<rect width="24" height="24" fill="white"/>
</clipPath>
</defs>
</svg>
