<svg width="16" height="16" viewBox="0 0 16 16" fill="none" xmlns="http://www.w3.org/2000/svg">
<g clip-path="url(#clip0_1044_41591)">
<path d="M4.7266 11.3536C4.53134 11.1583 4.53134 10.8417 4.7266 10.6464L10.6192 4.75389C10.8144 4.55863 11.131 4.55863 11.3263 4.75389C11.5215 4.94915 11.5215 5.26573 11.3263 5.461L5.43371 11.3536C5.23844 11.5488 4.92186 11.5488 4.7266 11.3536Z" fill="#BFC5CC"/>
<path d="M4.68649 4.68681C4.88175 4.49154 5.19833 4.49154 5.39359 4.68681L11.2861 10.5794C11.4814 10.7746 11.4814 11.0912 11.2861 11.2865C11.0909 11.4817 10.7743 11.4817 10.579 11.2865L4.68649 5.39391C4.49122 5.19865 4.49122 4.88207 4.68649 4.68681Z" fill="#BFC5CC"/>
</g>
<defs>
<clipPath id="clip0_1044_41591">
<rect width="16" height="16" fill="white"/>
</clipPath>
</defs>
</svg>
