<svg width="240" height="60" viewBox="0 0 240 60" fill="none" xmlns="http://www.w3.org/2000/svg">
<path fill-rule="evenodd" clip-rule="evenodd" d="M45.1901 11.4L40.0758 35.3999L40.0708 35.3995L38.9697 40.543L31.4484 40.5431C31.2987 37.0462 28.4119 34.2572 24.8728 34.2572C21.3338 34.2572 18.447 37.0462 18.2973 40.5431L11.9957 40.543L13.943 31.4001H31.771L34.1274 20.3427C35.2242 15.196 39.7315 11.4971 44.9825 11.4019L45.1901 11.4ZM78.1998 11.4C77.2097 16.3822 72.8314 19.9715 67.7442 19.9715H45.0052L46.7799 11.4H78.1998ZM71.5168 21.6857C70.5329 26.6666 66.1581 30.2572 61.0734 30.2572H42.9008L44.6868 21.6857H71.5168ZM57.7543 40.2266C61.6863 39.2479 64.8182 36.0859 65.6455 31.9715H42.5255L40.609 40.543L44.6711 40.543C45.0942 37.3187 47.8728 34.8287 51.2374 34.8287C54.4912 34.8287 57.1969 37.1573 57.7543 40.2266ZM29.7376 40.8287C29.7376 38.1462 27.5596 35.9715 24.8728 35.9715C22.1861 35.9715 20.0082 38.1462 20.0082 40.8287C20.0082 42.4632 20.8168 43.9092 22.0563 44.7884C16.2757 45.586 10.8236 46.8376 5.7002 48.543C21.0251 45.784 35.8899 45.3046 50.512 46.2091C50.7366 46.2408 50.9661 46.2573 51.1995 46.2573L51.2669 46.2564C58.4475 46.7238 65.5704 47.5215 72.6614 48.543C66.7778 46.8489 60.78 45.6028 54.6684 44.8054C55.5317 43.9288 56.0642 42.7265 56.0642 41.4001C56.0642 38.7176 53.8862 36.5429 51.1995 36.5429C48.5128 36.5429 46.3348 38.7176 46.3348 41.4001C46.3348 42.378 46.6242 43.2885 47.1226 44.0505C44.1264 43.8416 41.1036 43.7372 38.0542 43.7372C34.771 43.7372 31.5755 43.8583 28.4677 44.1012C29.2565 43.2378 29.7376 42.0893 29.7376 40.8287Z" fill="white"/>
<path fill-rule="evenodd" clip-rule="evenodd" d="M31.2035 17.666H32.7539L30.2463 29.6858H14.2349C16.7675 22.4844 23.5698 17.666 31.2035 17.666Z" fill="white"/>
<path fill-rule="evenodd" clip-rule="evenodd" d="M97.0205 15.3233C97.1968 14.644 97.3614 13.9076 97.5141 13.1142H93.1357L92.6423 14.21L92.3369 14.8794C91.733 16.1783 91.1402 17.259 90.0328 18.5087C89.0615 19.6047 87.8242 20.313 86.4517 20.9702L85.7548 21.2961L84.5907 21.8284L83.7948 22.204L84.5087 26.5786C84.8202 26.5079 85.232 26.3496 85.6781 26.1563L86.1332 25.9533L87.2436 25.435L87.7793 25.19L88.0204 25.0857L80.8828 46.2573H86.1318L94.7102 20.3867C94.9823 20.0972 95.2415 19.745 95.4877 19.3302L120.01 19.3286L121.381 15.3215H111.486L112.529 13.1142H106.626L105.583 15.3215L97.0205 15.3233ZM116.572 25.1806L117.969 21.0377H95.8676L94.5091 25.1806H116.572ZM114.728 30.7215L116.119 26.5786H94.0111L92.6121 30.7215H114.728ZM109.604 46.2573L114.057 32.7929H91.9609L87.4326 46.2573H109.604ZM95.1367 36.3754H108.099L105.981 42.5266H93.0189L95.1367 36.3754Z" fill="white"/>
<path fill-rule="evenodd" clip-rule="evenodd" d="M143.447 13.1143H137.827L135.065 21.21L132.753 27.9066L130.676 33.8049L129.64 36.664L129.177 37.9063L128.671 39.2146L128.375 39.9347L128.184 40.3638L128.067 40.595C127.334 41.9116 125.424 42.3123 122.337 41.7971L120.76 46.2573H128.802L128.991 46.252C130.963 46.1433 133.572 44.3591 134.432 41.428C134.439 41.404 134.447 41.379 134.455 41.3529L135.394 38.3161L143.447 13.1143ZM131.13 20.3643C129.403 25.1808 127.733 28.0563 125.206 31.0639C122.714 34.0277 119.342 36.6755 115.088 39.0072L116.66 34.1692C120.265 30.7694 122.814 26.8584 125.225 20.3643H131.13ZM151.182 20.3643C149.417 26.8584 149.216 31.8051 150.578 35.2049L149.045 40.043C146.371 37.7112 144.759 35.0634 144.207 32.0996C143.647 29.092 144.05 25.1808 145.42 20.3643H151.182Z" fill="white"/>
<path fill-rule="evenodd" clip-rule="evenodd" d="M176.187 15.6343L177.012 13.1143H171.106L170.237 15.6343H166.864L165.706 19.0867H173.626L172.839 21.4342H164.653L162.825 26.8812C162.069 29.2645 162.743 30.5673 164.847 30.7898H169.775L165.743 41.3619H171.807L175.751 30.8246H179.578L177.209 36.9976C176.951 37.6058 176.473 37.9097 175.773 37.9097H174.452L173.098 41.3619H177.229C178.72 41.3619 179.894 41.0631 180.752 40.4643C181.609 39.866 182.27 38.8765 182.734 37.4954L186.422 27.3722H176.909L177.743 24.8865H181.685C183.353 24.8865 184.636 24.5644 185.534 23.9198C186.432 23.276 187.14 22.1826 187.658 20.6402L189.338 15.6343H186.003L186.868 13.1143H181.498L180.676 15.6343H176.187ZM164.588 14.15L163.074 18.2929H158.4L159.945 14.15H164.588ZM180.304 19.0214H184.518L184.314 20.0637C184.145 20.5666 183.991 20.7315 183.795 20.8722L183.584 21.0165C183.234 21.2609 182.709 21.382 182.007 21.382H179.599L180.304 19.0214ZM156.108 42.5538L163.662 20.3643H155.24L154.013 24.0624H157.509L150.15 46.2573H183.273L184.182 42.5538H160.531L158.793 42.5473L156.108 42.5538ZM167.664 24.8557H171.028L170.138 27.3039H169.049L168.765 27.3C168.231 27.2825 167.636 27.1909 167.333 26.7421C167.095 26.3885 167.205 25.7597 167.664 24.8557ZM166.89 32.6076L163.557 41.3619H159.029L162.27 32.6076H166.89Z" fill="white"/>
<path d="M194.13 37.843V42.5002H200.673V37.843H194.13ZM199.373 41.3002H195.43V39.0573H199.373V41.3002ZM203.044 44.9145C204.101 44.9145 204.63 44.3573 204.63 43.243V32.3144H193.701V33.6287H203.273V42.8716C203.273 43.3859 203.101 43.643 202.758 43.643L200.73 43.6145L201.073 44.9145H203.044ZM192.973 35.1287V36.3716H202.001V35.1287H192.973ZM207.201 34.5144V35.8144H209.144C208.673 37.4716 207.93 38.9287 206.901 40.2144L207.487 41.6859C208.173 40.643 208.758 39.5002 209.216 38.243V44.943H210.558V37.7573C210.887 38.2716 211.273 38.9287 211.716 39.7144L212.516 38.5144C211.858 37.743 211.216 37.043 210.558 36.4144V35.8144H212.216V34.5144H210.558V31.843H209.216V34.5144H207.201ZM211.387 44.1145L212.501 45.1145C213.173 44.0573 213.63 42.9716 213.873 41.8287C214.13 40.7144 214.258 39.3573 214.258 37.7573V33.6001H216.444V43.3002C216.444 44.2145 216.958 44.6716 218.001 44.6716H218.63C219.116 44.6716 219.487 44.5716 219.716 44.4002C219.93 44.1859 220.073 43.8145 220.13 43.2859C220.201 42.743 220.244 41.943 220.244 40.8573L219.001 40.4716C219.001 41.9573 218.958 42.8002 218.901 43.0287C218.873 43.143 218.83 43.243 218.758 43.3145C218.687 43.3716 218.587 43.4002 218.458 43.4002H218.016C217.873 43.4002 217.816 43.3144 217.816 43.1573V32.3144H212.916V37.7573C212.916 39.3287 212.816 40.5287 212.63 41.3573C212.387 42.3287 211.973 43.243 211.387 44.1145ZM224.673 31.9858V35.6573H223.473V32.2716H222.144V37.5287C222.13 40.443 221.816 42.5573 221.216 43.9002L222.244 44.7859C222.816 43.6716 223.201 42.0716 223.373 39.9859H224.859V44.9573H226.187V38.6859H223.444C223.458 38.3144 223.473 37.9287 223.473 37.5287V36.9859H226.687V35.6573H226.001V31.9858H224.673ZM228.644 37.1716H228.973C229.259 39.0001 229.759 40.543 230.487 41.8144C229.801 42.6144 228.973 43.3002 227.973 43.8573L228.616 45.0573C229.644 44.5002 230.53 43.8002 231.273 42.9716C231.959 43.8287 232.801 44.5287 233.816 45.043L234.487 43.8573C233.559 43.3859 232.773 42.7144 232.116 41.8573C232.973 40.543 233.544 38.9287 233.859 37.043V35.8858H228.644V33.9858C230.673 33.9001 232.501 33.6144 234.159 33.1287L233.501 31.9144C231.701 32.4858 229.673 32.7858 227.401 32.8287V38.3716C227.344 40.743 226.973 42.6144 226.259 43.9573L227.187 44.943C228.101 43.3144 228.587 41.1144 228.644 38.3716V37.1716ZM230.187 37.1716H232.559C232.33 38.4573 231.916 39.6002 231.33 40.6144C230.816 39.643 230.444 38.4859 230.187 37.1716Z" fill="white"/>
</svg>
