<svg width="24" height="24" viewBox="0 0 24 24" fill="none" xmlns="http://www.w3.org/2000/svg">
<circle cx="5.14844" cy="19.0828" r="1.25" stroke="#1D2129" stroke-width="1.5"/>
<path fill-rule="evenodd" clip-rule="evenodd" d="M3.49085 4.32849C3.12036 4.14324 2.66986 4.29341 2.48461 4.6639C2.29937 5.03438 2.44954 5.48488 2.82002 5.67013L4.13485 6.32754C4.21954 6.36989 4.27304 6.45645 4.27304 6.55115L4.27304 17.3821C4.6771 17.202 5.14324 17.1542 5.60383 17.2776C5.66153 17.293 5.71796 17.3109 5.77304 17.3309L5.77304 6.55115C5.77304 5.88829 5.39854 5.28233 4.80567 4.9859L3.49085 4.32849ZM6.84453 18.2564C7.07997 18.6906 7.15598 19.2123 7.01805 19.7271C7.01542 19.7369 7.01272 19.7466 7.00996 19.7564L18.3002 19.7564C18.7144 19.7564 19.0502 19.4206 19.0502 19.0064C19.0502 18.5922 18.7144 18.2564 18.3002 18.2564L6.84453 18.2564Z" fill="#1D2129"/>
<mask id="path-3-inside-1_674_17818" fill="white">
<rect x="7.09277" y="4" width="12.8556" height="12.8556" rx="1"/>
</mask>
<rect x="7.09277" y="4" width="12.8556" height="12.8556" rx="1" stroke="#1D2129" stroke-width="3" mask="url(#path-3-inside-1_674_17818)"/>
<path d="M13.8428 9.39868H16.5975" stroke="#00AAA6" stroke-width="1.5" stroke-linecap="round"/>
<path d="M11.0879 12.1533L16.5974 12.1533" stroke="#00AAA6" stroke-width="1.5" stroke-linecap="round"/>
<circle cx="20" cy="19.0828" r="1.25" stroke="#1D2129" stroke-width="1.5"/>
</svg>
