<svg width="87" height="32" viewBox="0 0 87 32" fill="none" xmlns="http://www.w3.org/2000/svg">
<rect width="86.9998" height="32" rx="16" fill="black" fill-opacity="0.3"/>
<rect x="0.249774" y="0.249774" width="86.5003" height="31.5004" rx="15.7502" stroke="white" stroke-opacity="0.3" stroke-width="0.499548"/>
<path fill-rule="evenodd" clip-rule="evenodd" d="M65.4999 25.0001C70.4705 25.0001 74.4999 20.9707 74.4999 16.0001C74.4999 11.0295 70.4705 7.00009 65.4999 7.00009C60.5294 7.00009 56.4999 11.0295 56.4999 16.0001C56.4999 20.9707 60.5294 25.0001 65.4999 25.0001ZM65.5 23.0001C61.634 23.0001 58.5 19.8661 58.5 16.0001C58.5 12.1342 61.634 9.00015 65.5 9.00015C69.3659 9.00015 72.4999 12.1342 72.4999 16.0001C72.4999 19.8661 69.3659 23.0001 65.5 23.0001ZM65.5 19.5001C67.433 19.5001 69 17.9331 69 16.0001C69 14.0671 67.433 12.5001 65.5 12.5001C63.567 12.5001 62 14.0671 62 16.0001C62 17.9331 63.567 19.5001 65.5 19.5001Z" fill="white"/>
<rect x="42.9999" y="6.00002" width="0.499548" height="20" fill="white" fill-opacity="0.3"/>
<path fill-rule="evenodd" clip-rule="evenodd" d="M22.9999 19.5C24.9329 19.5 26.4999 17.933 26.4999 16C26.4999 14.067 24.9329 12.5 22.9999 12.5C21.0669 12.5 19.4999 14.067 19.4999 16C19.4999 17.933 21.0669 19.5 22.9999 19.5ZM32.5 16C32.5 17.1045 31.6045 18 30.5 18C29.3954 18 28.5 17.1045 28.5 16C28.5 14.8954 29.3954 14 30.5 14C31.6045 14 32.5 14.8954 32.5 16ZM17.5 16C17.5 17.1046 16.6046 18 15.5 18C14.3954 18 13.5 17.1046 13.5 16C13.5 14.8955 14.3954 14 15.5 14C16.6046 14 17.5 14.8955 17.5 16Z" fill="white"/>
</svg>
