<svg width="53" height="12" viewBox="0 0 53 12" fill="none" xmlns="http://www.w3.org/2000/svg">
<path d="M1.11555 0.180035L0.251547 0.996034C1.11555 1.69203 1.77555 2.34003 2.23155 2.94004L3.13155 2.05204C2.57955 1.42803 1.90755 0.804035 1.11555 0.180035ZM7.93155 10.992H10.6915L11.0035 9.75604C10.6675 9.78004 10.1995 9.80404 9.57555 9.82804C8.95155 9.82804 8.35155 9.84004 7.75155 9.84004C6.82755 9.84004 6.01155 9.82804 5.31555 9.81604C4.60755 9.79204 4.07955 9.69604 3.73155 9.51604C3.45555 9.36004 3.17955 9.12004 2.90355 8.80804L2.77155 8.67604V4.11603H0.0235469V5.26803H1.60755V8.55604C1.12755 8.82004 0.599547 9.43204 -0.0004531 10.392L0.923547 11.244C1.52355 10.164 1.93155 9.63604 2.17155 9.63604C2.30355 9.63604 2.44755 9.73204 2.61555 9.93604C2.97555 10.344 3.39555 10.62 3.87555 10.764C4.37955 10.884 5.01555 10.956 5.78355 10.968C6.55155 10.98 7.27155 10.992 7.93155 10.992ZM6.77955 5.40003L6.07155 6.25204C7.69155 7.18803 9.02355 8.18404 10.0675 9.25204L10.8475 8.31604C10.3915 7.88404 9.89955 7.47603 9.37155 7.08004C9.69555 6.79203 10.0195 6.45603 10.3315 6.09603L9.43155 5.40003C9.15555 5.76003 8.83155 6.09603 8.47155 6.43203C7.94355 6.07203 7.37955 5.73603 6.77955 5.40003ZM5.30355 3.34803H8.85555V4.10403H5.30355V3.34803ZM8.85555 2.31603H5.30355V1.56003H8.85555V2.31603ZM5.30355 5.20803H10.0795V0.456035H4.09155V7.72803C4.09155 7.94404 3.94755 8.11204 3.65955 8.22004L3.93555 9.27604C5.39955 9.03604 6.62355 8.78404 7.58355 8.53204L7.29555 7.40404C6.64755 7.59604 5.97555 7.76404 5.30355 7.88404V5.20803ZM15.9355 0.0960345L11.7595 11.136H12.9475L17.1115 0.0960345H15.9355ZM19.1155 0.180035L18.2515 0.996034C19.1155 1.69203 19.7755 2.34003 20.2315 2.94004L21.1315 2.05204C20.5795 1.42803 19.9075 0.804035 19.1155 0.180035ZM25.9435 10.98H28.7035L28.9915 9.79204C28.6555 9.81604 28.1875 9.84004 27.5875 9.86404C26.9755 9.86404 26.3755 9.87604 25.7755 9.87604C24.8635 9.87604 24.0595 9.86404 23.3755 9.85204C22.6795 9.82804 22.1515 9.72004 21.8035 9.54004C21.5395 9.38404 21.2635 9.14404 20.9875 8.80804L20.8675 8.68804V4.11603H18.1195V5.26803H19.7035V8.55604C19.2235 8.82004 18.6955 9.43204 18.0955 10.392L19.0195 11.244C19.6195 10.164 20.0275 9.63604 20.2555 9.63604C20.3995 9.63604 20.5435 9.73204 20.6995 9.93604C21.0475 10.332 21.4555 10.608 21.9355 10.752C22.4395 10.872 23.0635 10.944 23.8315 10.956C24.5875 10.968 25.2955 10.98 25.9435 10.98ZM27.8395 0.132035C26.3035 0.492034 24.4195 0.708035 22.1995 0.756035V3.57603C22.1635 5.71203 21.7915 7.38003 21.0955 8.55604L22.2355 9.12004C22.9195 7.94404 23.2915 6.20403 23.3515 3.91203H27.0835C26.8315 4.58404 26.5075 5.20803 26.0995 5.79603C25.5115 5.31603 24.8875 4.84803 24.2275 4.40403L23.4955 5.29203C24.1435 5.74804 24.7675 6.21604 25.3555 6.72004C24.6955 7.41604 23.8795 8.02804 22.9075 8.55604L23.6755 9.56404C24.6835 9.00004 25.5355 8.32804 26.2555 7.53604C26.8795 8.12404 27.4555 8.73604 27.9715 9.38404L28.8115 8.38804C28.2595 7.76404 27.6595 7.15204 27.0115 6.57604C27.5875 5.73603 28.0195 4.78803 28.3195 3.73203V2.85603H23.3635L23.3515 1.84803C25.2355 1.78803 26.9395 1.57203 28.4515 1.20003L27.8395 0.132035ZM34.9915 0.144035C33.6235 1.75203 31.9075 3.08403 29.8435 4.16403L30.4675 5.29203C32.5315 4.16403 34.1875 2.82003 35.4355 1.28403C36.7915 2.91603 38.4355 4.24803 40.3675 5.26803L40.9915 4.15203C39.0595 3.16804 37.3555 1.83604 35.8795 0.144035H34.9915ZM37.2595 5.41204V6.70803C37.2595 7.11603 37.1155 7.33204 36.8515 7.33204C36.4315 7.33204 35.9275 7.30804 35.3395 7.26004L35.6755 8.43604C36.2035 8.46004 36.7675 8.48404 37.3675 8.48404C38.1115 8.43604 38.4955 7.99204 38.5075 7.15204V4.27203H32.2675V9.63604C32.2675 10.536 32.6995 10.992 33.5755 10.992H37.7755C38.6515 10.992 39.2395 10.872 39.5395 10.644C39.8395 10.416 40.0675 9.67204 40.2115 8.42404L39.0595 8.04004C38.9635 8.78404 38.8315 9.26404 38.6755 9.49204C38.5075 9.72004 38.0875 9.84004 37.4035 9.84004H34.1515C33.7435 9.84004 33.5395 9.61204 33.5395 9.16804V5.41204H37.2595ZM48.0715 3.43323e-05L46.6675 0.240035C46.8595 0.480035 47.0275 0.744035 47.1835 1.03203H42.8035V4.77604C42.7795 7.10403 42.4675 8.92804 41.8675 10.236L42.9355 11.184C43.6555 9.57604 44.0395 7.44004 44.0755 4.77604V2.25603H52.8235V1.03203H48.5875C48.4195 0.648035 48.2395 0.312035 48.0715 3.43323e-05ZM46.8835 2.36403C46.7635 2.70003 46.6555 3.03603 46.5355 3.36003H44.5435V4.45203H46.0795C45.7435 5.14803 45.3955 5.73603 45.0235 6.20403L45.2875 7.30804H48.2395V8.26803H44.0995V9.40804H48.2395V11.208H49.4875V9.40804H52.9315V8.26803H49.4875V7.30804H52.0435V6.18003H49.4875V4.92004H48.2395V6.18003H46.5475C46.8595 5.67603 47.1475 5.10003 47.4235 4.45203H52.2955V3.36003H47.8435C47.9155 3.12003 47.9995 2.88004 48.0715 2.64003L46.8835 2.36403Z" fill="black"/>
</svg>
