<svg width="48" height="58" viewBox="0 0 48 58" fill="none" xmlns="http://www.w3.org/2000/svg">
<g filter="url(#filter0_f_369_704)">
<ellipse cx="24" cy="45" rx="17" ry="7" fill="#F8AE2B" fill-opacity="0.4"/>
</g>
<g filter="url(#filter1_f_369_704)">
<path d="M30.5 47C30.5 48.6569 27.5899 50 24 50C20.4101 50 17.5 48.6569 17.5 47C17.5 45.3431 20.4101 44 24 44C27.5899 44 30.5 45.3431 30.5 47Z" fill="white"/>
</g>
<path d="M48 24C48 41.6731 41.6726 48 23.9995 48C6.32636 48 0 41.673 0 23.9999C0 6.32681 6.32636 0 23.9995 0C41.6726 0 48 6.32689 48 24Z" fill="url(#paint0_linear_369_704)"/>
<g filter="url(#filter2_d_369_704)">
<path d="M26 18L34.8944 22.4472C35.572 22.786 36 23.4785 36 24.2361V36C36 37.1046 35.1046 38 34 38H26V18Z" fill="white" fill-opacity="0.5"/>
<g filter="url(#filter3_i_369_704)">
<path fill-rule="evenodd" clip-rule="evenodd" d="M12 16.4821C12 15.6474 12.5184 14.9004 13.3004 14.6084L25.3004 10.1277C26.6075 9.63961 28 10.6061 28 12.0013V36.0001C28 37.1046 27.1046 38.0001 26 38.0001H14C12.8954 38.0001 12 37.1046 12 36.0001V16.4821ZM17 21.5001C17 20.6716 17.6716 20.0001 18.5 20.0001H23.5C24.3284 20.0001 25 20.6716 25 21.5001C25 22.3285 24.3284 23.0001 23.5 23.0001H18.5C17.6716 23.0001 17 22.3285 17 21.5001ZM18.5 26.0001C17.6716 26.0001 17 26.6716 17 27.5001C17 28.3285 17.6716 29.0001 18.5 29.0001H23.5C24.3284 29.0001 25 28.3285 25 27.5001C25 26.6716 24.3284 26.0001 23.5 26.0001H18.5Z" fill="#FFFCEB"/>
</g>
</g>
<defs>
<filter id="filter0_f_369_704" x="1" y="32" width="46" height="26" filterUnits="userSpaceOnUse" color-interpolation-filters="sRGB">
<feFlood flood-opacity="0" result="BackgroundImageFix"/>
<feBlend mode="normal" in="SourceGraphic" in2="BackgroundImageFix" result="shape"/>
<feGaussianBlur stdDeviation="3" result="effect1_foregroundBlur_369_704"/>
</filter>
<filter id="filter1_f_369_704" x="12.5" y="39" width="23" height="16" filterUnits="userSpaceOnUse" color-interpolation-filters="sRGB">
<feFlood flood-opacity="0" result="BackgroundImageFix"/>
<feBlend mode="normal" in="SourceGraphic" in2="BackgroundImageFix" result="shape"/>
<feGaussianBlur stdDeviation="2.5" result="effect1_foregroundBlur_369_704"/>
</filter>
<filter id="filter2_d_369_704" x="9" y="8.99951" width="30" height="34.0005" filterUnits="userSpaceOnUse" color-interpolation-filters="sRGB">
<feFlood flood-opacity="0" result="BackgroundImageFix"/>
<feColorMatrix in="SourceAlpha" type="matrix" values="0 0 0 0 0 0 0 0 0 0 0 0 0 0 0 0 0 0 127 0" result="hardAlpha"/>
<feOffset dy="2"/>
<feGaussianBlur stdDeviation="1.5"/>
<feComposite in2="hardAlpha" operator="out"/>
<feColorMatrix type="matrix" values="0 0 0 0 0.945833 0 0 0 0 0.654796 0 0 0 0 0.133993 0 0 0 0.8 0"/>
<feBlend mode="normal" in2="BackgroundImageFix" result="effect1_dropShadow_369_704"/>
<feBlend mode="normal" in="SourceGraphic" in2="effect1_dropShadow_369_704" result="shape"/>
</filter>
<filter id="filter3_i_369_704" x="12" y="9.99951" width="16" height="28.0005" filterUnits="userSpaceOnUse" color-interpolation-filters="sRGB">
<feFlood flood-opacity="0" result="BackgroundImageFix"/>
<feBlend mode="normal" in="SourceGraphic" in2="BackgroundImageFix" result="shape"/>
<feColorMatrix in="SourceAlpha" type="matrix" values="0 0 0 0 0 0 0 0 0 0 0 0 0 0 0 0 0 0 127 0" result="hardAlpha"/>
<feOffset dy="0.5"/>
<feComposite in2="hardAlpha" operator="arithmetic" k2="-1" k3="1"/>
<feColorMatrix type="matrix" values="0 0 0 0 1 0 0 0 0 1 0 0 0 0 1 0 0 0 1 0"/>
<feBlend mode="normal" in2="shape" result="effect1_innerShadow_369_704"/>
</filter>
<linearGradient id="paint0_linear_369_704" x1="0" y1="0" x2="48" y2="48" gradientUnits="userSpaceOnUse">
<stop stop-color="#FFD468"/>
<stop offset="1" stop-color="#F8AC25"/>
</linearGradient>
</defs>
</svg>
