<svg width="48" height="58" viewBox="0 0 48 58" fill="none" xmlns="http://www.w3.org/2000/svg">
<g filter="url(#filter0_f_7580_40023)">
<ellipse cx="24" cy="45" rx="17" ry="7" fill="#00D1C6" fill-opacity="0.5"/>
</g>
<g filter="url(#filter1_f_7580_40023)">
<path d="M30.5 47C30.5 48.6569 27.5899 50 24 50C20.4101 50 17.5 48.6569 17.5 47C17.5 45.3431 20.4101 44 24 44C27.5899 44 30.5 45.3431 30.5 47Z" fill="white"/>
</g>
<path d="M48 24C48 41.6731 41.6726 48 23.9995 48C6.32636 48 0 41.6731 0 23.9999C0 6.32681 6.32636 0 23.9995 0C41.6726 0 48 6.32689 48 24Z" fill="url(#paint0_linear_7580_40023)"/>
<g filter="url(#filter2_di_7580_40023)">
<path d="M12.7656 17.2132C12.7656 16.7189 13.1664 16.3181 13.6607 16.3181H17.2412C17.7355 16.3181 18.1363 16.7189 18.1363 17.2132V18.1083H12.7656V17.2132Z" fill="#EBFFF8"/>
</g>
<g filter="url(#filter3_di_7580_40023)">
<path d="M19.0312 18.7656C19.5256 18.7656 19.9268 19.1668 19.9268 19.6611V29.5068H40.5137C41.0079 29.5069 41.4092 29.9081 41.4092 30.4023V33.0869C41.4092 33.5812 41.0079 33.9823 40.5137 33.9824H36.0352C35.9719 32.0606 34.3952 30.5216 32.458 30.5215C30.5207 30.5215 28.9441 32.0605 28.8809 33.9824H17.2383C17.1751 32.0605 15.5984 30.5215 13.6611 30.5215C11.7238 30.5215 10.1472 32.0605 10.084 33.9824H7.39551C6.90116 33.9824 6.5 33.5813 6.5 33.0869V25.5068C6.5 25.1953 6.58176 24.8887 6.73633 24.6182L9.82227 19.2168C9.98159 18.938 10.2785 18.7657 10.5996 18.7656H19.0312ZM12.4023 20.5557C12.0748 20.5557 11.773 20.7349 11.6162 21.0225L9.9082 24.1553C9.5829 24.7517 10.0141 25.4783 10.6934 25.4785H15.0039C15.4982 25.4785 15.8993 25.0782 15.8994 24.584V21.4512C15.8994 20.9568 15.4983 20.5557 15.0039 20.5557H12.4023Z" fill="#EBFFF8"/>
</g>
<g filter="url(#filter4_di_7580_40023)">
<circle cx="13.6609" cy="34.1619" r="2.68531" fill="#EBFFF8"/>
</g>
<g filter="url(#filter5_di_7580_40023)">
<circle cx="32.4578" cy="34.1619" r="2.68531" fill="#EBFFF8"/>
</g>
<g filter="url(#filter6_i_7580_40023)">
<path d="M41.4287 11.5C42.2965 11.5001 42.9999 12.2035 43 13.0713V26.6426C43 27.5104 42.2965 28.2138 41.4287 28.2139H22.5713C21.7035 28.2138 21 27.5104 21 26.6426V13.0713C21.0001 12.2035 21.7035 11.5001 22.5713 11.5H41.4287ZM32 13.2139C28.2129 13.2139 25.1426 16.2842 25.1426 20.0713C25.1428 23.8582 28.2131 26.9287 32 26.9287C35.7869 26.9287 38.8572 23.8582 38.8574 20.0713C38.8574 16.2842 35.7871 13.2139 32 13.2139ZM32 14.9287C34.8403 14.9287 37.1426 17.231 37.1426 20.0713C37.1423 22.9114 34.8402 25.2139 32 25.2139C29.1598 25.2139 26.8577 22.9114 26.8574 20.0713C26.8574 17.231 29.1597 14.9287 32 14.9287ZM32 22.6426C31.5267 22.6426 31.1428 23.0258 31.1426 23.499C31.1426 23.9724 31.5266 24.3564 32 24.3564C32.4734 24.3564 32.8574 23.9724 32.8574 23.499C32.8572 23.0258 32.4733 22.6426 32 22.6426ZM32 17.0703C31.5267 17.0703 31.1427 17.4544 31.1426 17.9277V20.9277C31.1426 21.4011 31.5266 21.7852 32 21.7852C32.4734 21.7852 32.8574 21.4011 32.8574 20.9277V17.9277C32.8573 17.4544 32.4733 17.0703 32 17.0703Z" fill="#EBFFFA"/>
</g>
<defs>
<filter id="filter0_f_7580_40023" x="1" y="32" width="46" height="26" filterUnits="userSpaceOnUse" color-interpolation-filters="sRGB">
<feFlood flood-opacity="0" result="BackgroundImageFix"/>
<feBlend mode="normal" in="SourceGraphic" in2="BackgroundImageFix" result="shape"/>
<feGaussianBlur stdDeviation="3" result="effect1_foregroundBlur_7580_40023"/>
</filter>
<filter id="filter1_f_7580_40023" x="12.5" y="39" width="23" height="16" filterUnits="userSpaceOnUse" color-interpolation-filters="sRGB">
<feFlood flood-opacity="0" result="BackgroundImageFix"/>
<feBlend mode="normal" in="SourceGraphic" in2="BackgroundImageFix" result="shape"/>
<feGaussianBlur stdDeviation="2.5" result="effect1_foregroundBlur_7580_40023"/>
</filter>
<filter id="filter2_di_7580_40023" x="9.07332" y="14.2668" width="11.9352" height="8.35439" filterUnits="userSpaceOnUse" color-interpolation-filters="sRGB">
<feFlood flood-opacity="0" result="BackgroundImageFix"/>
<feColorMatrix in="SourceAlpha" type="matrix" values="0 0 0 0 0 0 0 0 0 0 0 0 0 0 0 0 0 0 127 0" result="hardAlpha"/>
<feOffset dx="-0.410256" dy="1.23077"/>
<feGaussianBlur stdDeviation="1.64103"/>
<feComposite in2="hardAlpha" operator="out"/>
<feColorMatrix type="matrix" values="0 0 0 0 0 0 0 0 0 0.754167 0 0 0 0 0.704899 0 0 0 1 0"/>
<feBlend mode="normal" in2="BackgroundImageFix" result="effect1_dropShadow_7580_40023"/>
<feBlend mode="normal" in="SourceGraphic" in2="effect1_dropShadow_7580_40023" result="shape"/>
<feColorMatrix in="SourceAlpha" type="matrix" values="0 0 0 0 0 0 0 0 0 0 0 0 0 0 0 0 0 0 127 0" result="hardAlpha"/>
<feOffset dy="0.370554"/>
<feComposite in2="hardAlpha" operator="arithmetic" k2="-1" k3="1"/>
<feColorMatrix type="matrix" values="0 0 0 0 1 0 0 0 0 1 0 0 0 0 1 0 0 0 1 0"/>
<feBlend mode="normal" in2="shape" result="effect2_innerShadow_7580_40023"/>
</filter>
<filter id="filter3_di_7580_40023" x="2.80769" y="16.3787" width="41.4733" height="21.7809" filterUnits="userSpaceOnUse" color-interpolation-filters="sRGB">
<feFlood flood-opacity="0" result="BackgroundImageFix"/>
<feColorMatrix in="SourceAlpha" type="matrix" values="0 0 0 0 0 0 0 0 0 0 0 0 0 0 0 0 0 0 127 0" result="hardAlpha"/>
<feOffset dx="-0.410256" dy="0.895105"/>
<feGaussianBlur stdDeviation="1.64103"/>
<feComposite in2="hardAlpha" operator="out"/>
<feColorMatrix type="matrix" values="0 0 0 0 0 0 0 0 0 0.754167 0 0 0 0 0.704899 0 0 0 1 0"/>
<feBlend mode="normal" in2="BackgroundImageFix" result="effect1_dropShadow_7580_40023"/>
<feBlend mode="normal" in="SourceGraphic" in2="effect1_dropShadow_7580_40023" result="shape"/>
<feColorMatrix in="SourceAlpha" type="matrix" values="0 0 0 0 0 0 0 0 0 0 0 0 0 0 0 0 0 0 127 0" result="hardAlpha"/>
<feOffset dy="0.370554"/>
<feComposite in2="hardAlpha" operator="arithmetic" k2="-1" k3="1"/>
<feColorMatrix type="matrix" values="0 0 0 0 1 0 0 0 0 1 0 0 0 0 1 0 0 0 1 0"/>
<feBlend mode="normal" in2="shape" result="effect2_innerShadow_7580_40023"/>
</filter>
<filter id="filter4_di_7580_40023" x="7.28328" y="29.4253" width="11.9352" height="11.9347" filterUnits="userSpaceOnUse" color-interpolation-filters="sRGB">
<feFlood flood-opacity="0" result="BackgroundImageFix"/>
<feColorMatrix in="SourceAlpha" type="matrix" values="0 0 0 0 0 0 0 0 0 0 0 0 0 0 0 0 0 0 127 0" result="hardAlpha"/>
<feOffset dx="-0.410256" dy="1.23077"/>
<feGaussianBlur stdDeviation="1.64103"/>
<feComposite in2="hardAlpha" operator="out"/>
<feColorMatrix type="matrix" values="0 0 0 0 0 0 0 0 0 0.754167 0 0 0 0 0.704899 0 0 0 1 0"/>
<feBlend mode="normal" in2="BackgroundImageFix" result="effect1_dropShadow_7580_40023"/>
<feBlend mode="normal" in="SourceGraphic" in2="effect1_dropShadow_7580_40023" result="shape"/>
<feColorMatrix in="SourceAlpha" type="matrix" values="0 0 0 0 0 0 0 0 0 0 0 0 0 0 0 0 0 0 127 0" result="hardAlpha"/>
<feOffset dy="0.370554"/>
<feComposite in2="hardAlpha" operator="arithmetic" k2="-1" k3="1"/>
<feColorMatrix type="matrix" values="0 0 0 0 1 0 0 0 0 1 0 0 0 0 1 0 0 0 1 0"/>
<feBlend mode="normal" in2="shape" result="effect2_innerShadow_7580_40023"/>
</filter>
<filter id="filter5_di_7580_40023" x="26.0802" y="29.4253" width="11.9352" height="11.9347" filterUnits="userSpaceOnUse" color-interpolation-filters="sRGB">
<feFlood flood-opacity="0" result="BackgroundImageFix"/>
<feColorMatrix in="SourceAlpha" type="matrix" values="0 0 0 0 0 0 0 0 0 0 0 0 0 0 0 0 0 0 127 0" result="hardAlpha"/>
<feOffset dx="-0.410256" dy="1.23077"/>
<feGaussianBlur stdDeviation="1.64103"/>
<feComposite in2="hardAlpha" operator="out"/>
<feColorMatrix type="matrix" values="0 0 0 0 0 0 0 0 0 0.754167 0 0 0 0 0.704899 0 0 0 1 0"/>
<feBlend mode="normal" in2="BackgroundImageFix" result="effect1_dropShadow_7580_40023"/>
<feBlend mode="normal" in="SourceGraphic" in2="effect1_dropShadow_7580_40023" result="shape"/>
<feColorMatrix in="SourceAlpha" type="matrix" values="0 0 0 0 0 0 0 0 0 0 0 0 0 0 0 0 0 0 127 0" result="hardAlpha"/>
<feOffset dy="0.370554"/>
<feComposite in2="hardAlpha" operator="arithmetic" k2="-1" k3="1"/>
<feColorMatrix type="matrix" values="0 0 0 0 1 0 0 0 0 1 0 0 0 0 1 0 0 0 1 0"/>
<feBlend mode="normal" in2="shape" result="effect2_innerShadow_7580_40023"/>
</filter>
<filter id="filter6_i_7580_40023" x="21" y="11.5" width="22" height="16.7139" filterUnits="userSpaceOnUse" color-interpolation-filters="sRGB">
<feFlood flood-opacity="0" result="BackgroundImageFix"/>
<feBlend mode="normal" in="SourceGraphic" in2="BackgroundImageFix" result="shape"/>
<feColorMatrix in="SourceAlpha" type="matrix" values="0 0 0 0 0 0 0 0 0 0 0 0 0 0 0 0 0 0 127 0" result="hardAlpha"/>
<feOffset dy="0.392857"/>
<feComposite in2="hardAlpha" operator="arithmetic" k2="-1" k3="1"/>
<feColorMatrix type="matrix" values="0 0 0 0 1 0 0 0 0 1 0 0 0 0 1 0 0 0 1 0"/>
<feBlend mode="normal" in2="shape" result="effect1_innerShadow_7580_40023"/>
</filter>
<linearGradient id="paint0_linear_7580_40023" x1="0" y1="0" x2="48" y2="48" gradientUnits="userSpaceOnUse">
<stop stop-color="#12E4CF"/>
<stop offset="1" stop-color="#00B5B5"/>
</linearGradient>
</defs>
</svg>
