<svg width="48" height="58" viewBox="0 0 48 58" fill="none" xmlns="http://www.w3.org/2000/svg">
<g filter="url(#filter0_f_2360_36265)">
<ellipse cx="24" cy="45" rx="17" ry="7" fill="#A055FF" fill-opacity="0.4"/>
</g>
<g filter="url(#filter1_f_2360_36265)">
<path d="M30.5 47C30.5 48.6569 27.5899 50 24 50C20.4101 50 17.5 48.6569 17.5 47C17.5 45.3431 20.4101 44 24 44C27.5899 44 30.5 45.3431 30.5 47Z" fill="white"/>
</g>
<path d="M48 24C48 41.6731 41.6726 48 23.9995 48C6.32636 48 0 41.673 0 23.9999C0 6.32681 6.32636 0 23.9995 0C41.6726 0 48 6.32689 48 24Z" fill="url(#paint0_linear_2360_36265)"/>
<circle cx="24" cy="25" r="6" fill="white" fill-opacity="0.5" stroke="#F5EBFF" stroke-opacity="0.5" stroke-width="2" stroke-linecap="round"/>
<g filter="url(#filter2_d_2360_36265)">
<g filter="url(#filter3_i_2360_36265)">
<path fill-rule="evenodd" clip-rule="evenodd" d="M18.4998 11C18.186 11.4178 18 11.9372 18 12.5C18 13.8807 19.1193 15 20.5 15H27.5C28.8807 15 30 13.8807 30 12.5C30 11.9372 29.814 11.4178 29.5002 11H34C35.1046 11 36 11.8954 36 13V35C36 36.1046 35.1046 37 34 37H14C12.8954 37 12 36.1046 12 35V13C12 11.8954 12.8954 11 14 11H18.4998ZM24 21.5C24.5523 21.5 25 21.9477 25 22.5V24.5858L26.7071 26.2929C27.0976 26.6834 27.0976 27.3166 26.7071 27.7071C26.3166 28.0976 25.6834 28.0976 25.2929 27.7071L23.5858 26C23.2107 25.6249 23 25.1162 23 24.5858V22.5C23 21.9477 23.4477 21.5 24 21.5ZM18 25C18 21.6863 20.6863 19 24 19C27.3137 19 30 21.6863 30 25C30 28.3137 27.3137 31 24 31C20.6863 31 18 28.3137 18 25ZM24 17C19.5817 17 16 20.5817 16 25C16 29.4183 19.5817 33 24 33C28.4183 33 32 29.4183 32 25C32 20.5817 28.4183 17 24 17Z" fill="#F5EBFF"/>
</g>
<rect x="19" y="10" width="10" height="4" rx="2" fill="white" fill-opacity="0.5"/>
</g>
<defs>
<filter id="filter0_f_2360_36265" x="1" y="32" width="46" height="26" filterUnits="userSpaceOnUse" color-interpolation-filters="sRGB">
<feFlood flood-opacity="0" result="BackgroundImageFix"/>
<feBlend mode="normal" in="SourceGraphic" in2="BackgroundImageFix" result="shape"/>
<feGaussianBlur stdDeviation="3" result="effect1_foregroundBlur_2360_36265"/>
</filter>
<filter id="filter1_f_2360_36265" x="12.5" y="39" width="23" height="16" filterUnits="userSpaceOnUse" color-interpolation-filters="sRGB">
<feFlood flood-opacity="0" result="BackgroundImageFix"/>
<feBlend mode="normal" in="SourceGraphic" in2="BackgroundImageFix" result="shape"/>
<feGaussianBlur stdDeviation="2.5" result="effect1_foregroundBlur_2360_36265"/>
</filter>
<filter id="filter2_d_2360_36265" x="8.5" y="8.5" width="30" height="33" filterUnits="userSpaceOnUse" color-interpolation-filters="sRGB">
<feFlood flood-opacity="0" result="BackgroundImageFix"/>
<feColorMatrix in="SourceAlpha" type="matrix" values="0 0 0 0 0 0 0 0 0 0 0 0 0 0 0 0 0 0 127 0" result="hardAlpha"/>
<feOffset dx="-0.5" dy="1.5"/>
<feGaussianBlur stdDeviation="1.5"/>
<feComposite in2="hardAlpha" operator="out"/>
<feColorMatrix type="matrix" values="0 0 0 0 0.551226 0 0 0 0 0.210938 0 0 0 0 0.9375 0 0 0 1 0"/>
<feBlend mode="normal" in2="BackgroundImageFix" result="effect1_dropShadow_2360_36265"/>
<feBlend mode="normal" in="SourceGraphic" in2="effect1_dropShadow_2360_36265" result="shape"/>
</filter>
<filter id="filter3_i_2360_36265" x="12" y="11" width="24" height="26" filterUnits="userSpaceOnUse" color-interpolation-filters="sRGB">
<feFlood flood-opacity="0" result="BackgroundImageFix"/>
<feBlend mode="normal" in="SourceGraphic" in2="BackgroundImageFix" result="shape"/>
<feColorMatrix in="SourceAlpha" type="matrix" values="0 0 0 0 0 0 0 0 0 0 0 0 0 0 0 0 0 0 127 0" result="hardAlpha"/>
<feOffset dy="0.451613"/>
<feComposite in2="hardAlpha" operator="arithmetic" k2="-1" k3="1"/>
<feColorMatrix type="matrix" values="0 0 0 0 1 0 0 0 0 1 0 0 0 0 1 0 0 0 1 0"/>
<feBlend mode="normal" in2="shape" result="effect1_innerShadow_2360_36265"/>
</filter>
<linearGradient id="paint0_linear_2360_36265" x1="0" y1="0" x2="48" y2="48" gradientUnits="userSpaceOnUse">
<stop stop-color="#BB74FF"/>
<stop offset="1" stop-color="#8E41FF"/>
</linearGradient>
</defs>
</svg>
