<svg width="48" height="58" viewBox="0 0 48 58" fill="none" xmlns="http://www.w3.org/2000/svg">
<g filter="url(#filter0_f_7325_37197)">
<ellipse cx="24" cy="45" rx="17" ry="7" fill="#00D1C6" fill-opacity="0.4"/>
</g>
<g filter="url(#filter1_f_7325_37197)">
<path d="M30.5 47C30.5 48.6569 27.5899 50 24 50C20.4101 50 17.5 48.6569 17.5 47C17.5 45.3431 20.4101 44 24 44C27.5899 44 30.5 45.3431 30.5 47Z" fill="white"/>
</g>
<path d="M48 24C48 41.6731 41.6726 48 23.9995 48C6.32636 48 0 41.673 0 23.9999C0 6.32681 6.32636 0 23.9995 0C41.6726 0 48 6.32689 48 24Z" fill="url(#paint0_linear_7325_37197)"/>
<g filter="url(#filter2_i_7325_37197)">
<path d="M36 14C37.1046 14 38 14.8954 38 16V32C38 33.1046 37.1046 34 36 34H28.3281C27.7978 34.0001 27.2891 34.2109 26.9141 34.5859L25.4141 36.0859C24.6331 36.8668 23.3669 36.8668 22.5859 36.0859L21.0859 34.5859C20.7109 34.2109 20.2022 34.0001 19.6719 34H12C10.8954 34 10 33.1046 10 32V16C10 14.8954 10.8954 14 12 14H36ZM18 22C16.8954 22 16 22.8954 16 24C16 25.1046 16.8954 26 18 26C19.1046 26 20 25.1046 20 24C20 22.8954 19.1046 22 18 22ZM24 22C22.8954 22 22 22.8954 22 24C22 25.1046 22.8954 26 24 26C25.1046 26 26 25.1046 26 24C26 22.8954 25.1046 22 24 22ZM30 22C28.8954 22 28 22.8954 28 24C28 25.1046 28.8954 26 30 26C31.1046 26 32 25.1046 32 24C32 22.8954 31.1046 22 30 22Z" fill="#EBFFFA"/>
</g>
<defs>
<filter id="filter0_f_7325_37197" x="1" y="32" width="46" height="26" filterUnits="userSpaceOnUse" color-interpolation-filters="sRGB">
<feFlood flood-opacity="0" result="BackgroundImageFix"/>
<feBlend mode="normal" in="SourceGraphic" in2="BackgroundImageFix" result="shape"/>
<feGaussianBlur stdDeviation="3" result="effect1_foregroundBlur_7325_37197"/>
</filter>
<filter id="filter1_f_7325_37197" x="12.5" y="39" width="23" height="16" filterUnits="userSpaceOnUse" color-interpolation-filters="sRGB">
<feFlood flood-opacity="0" result="BackgroundImageFix"/>
<feBlend mode="normal" in="SourceGraphic" in2="BackgroundImageFix" result="shape"/>
<feGaussianBlur stdDeviation="2.5" result="effect1_foregroundBlur_7325_37197"/>
</filter>
<filter id="filter2_i_7325_37197" x="10" y="14" width="28" height="22.6716" filterUnits="userSpaceOnUse" color-interpolation-filters="sRGB">
<feFlood flood-opacity="0" result="BackgroundImageFix"/>
<feBlend mode="normal" in="SourceGraphic" in2="BackgroundImageFix" result="shape"/>
<feColorMatrix in="SourceAlpha" type="matrix" values="0 0 0 0 0 0 0 0 0 0 0 0 0 0 0 0 0 0 127 0" result="hardAlpha"/>
<feOffset dy="0.5"/>
<feComposite in2="hardAlpha" operator="arithmetic" k2="-1" k3="1"/>
<feColorMatrix type="matrix" values="0 0 0 0 1 0 0 0 0 1 0 0 0 0 1 0 0 0 1 0"/>
<feBlend mode="normal" in2="shape" result="effect1_innerShadow_7325_37197"/>
</filter>
<linearGradient id="paint0_linear_7325_37197" x1="0" y1="0" x2="48" y2="48" gradientUnits="userSpaceOnUse">
<stop stop-color="#12E4CF"/>
<stop offset="1" stop-color="#00B5B5"/>
</linearGradient>
</defs>
</svg>
