<svg width="48" height="58" viewBox="0 0 48 58" fill="none" xmlns="http://www.w3.org/2000/svg">
<g filter="url(#filter0_f_2585_66557)">
<ellipse cx="24" cy="45" rx="17" ry="7" fill="#00D1C6" fill-opacity="0.5"/>
</g>
<g filter="url(#filter1_f_2585_66557)">
<path d="M30.5 47C30.5 48.6569 27.5899 50 24 50C20.4101 50 17.5 48.6569 17.5 47C17.5 45.3431 20.4101 44 24 44C27.5899 44 30.5 45.3431 30.5 47Z" fill="white"/>
</g>
<path d="M48 24C48 41.6731 41.6726 48 23.9995 48C6.32636 48 0 41.6731 0 23.9999C0 6.32681 6.32636 0 23.9995 0C41.6726 0 48 6.32689 48 24Z" fill="url(#paint0_linear_2585_66557)"/>
<g filter="url(#filter2_di_2585_66557)">
<path fill-rule="evenodd" clip-rule="evenodd" d="M25.4167 39.0926C28.5916 35.4996 36 26.5574 36 21.3501C36 14.7227 30.6274 9.3501 24 9.3501C17.3726 9.3501 12 14.7227 12 21.3501C12 26.5574 19.4084 35.4996 22.5832 39.0926C23.3432 39.9526 24.6568 39.9526 25.4167 39.0926ZM24 29.3501C28.4183 29.3501 32 25.7684 32 21.3501C32 16.9318 28.4183 13.3501 24 13.3501C19.5817 13.3501 16 16.9318 16 21.3501C16 25.7684 19.5817 29.3501 24 29.3501Z" fill="#EBFFF8"/>
</g>
<g filter="url(#filter3_d_2585_66557)">
<path d="M21 21.5L22.8763 23.3763C23.0792 23.5792 23.411 23.57 23.6024 23.3561L27.5 19" stroke="#EBFFF8" stroke-width="2" stroke-linecap="round"/>
</g>
<defs>
<filter id="filter0_f_2585_66557" x="1" y="32" width="46" height="26" filterUnits="userSpaceOnUse" color-interpolation-filters="sRGB">
<feFlood flood-opacity="0" result="BackgroundImageFix"/>
<feBlend mode="normal" in="SourceGraphic" in2="BackgroundImageFix" result="shape"/>
<feGaussianBlur stdDeviation="3" result="effect1_foregroundBlur_2585_66557"/>
</filter>
<filter id="filter1_f_2585_66557" x="12.5" y="39" width="23" height="16" filterUnits="userSpaceOnUse" color-interpolation-filters="sRGB">
<feFlood flood-opacity="0" result="BackgroundImageFix"/>
<feBlend mode="normal" in="SourceGraphic" in2="BackgroundImageFix" result="shape"/>
<feGaussianBlur stdDeviation="2.5" result="effect1_foregroundBlur_2585_66557"/>
</filter>
<filter id="filter2_di_2585_66557" x="7.5" y="6.8501" width="32" height="38.3875" filterUnits="userSpaceOnUse" color-interpolation-filters="sRGB">
<feFlood flood-opacity="0" result="BackgroundImageFix"/>
<feColorMatrix in="SourceAlpha" type="matrix" values="0 0 0 0 0 0 0 0 0 0 0 0 0 0 0 0 0 0 127 0" result="hardAlpha"/>
<feOffset dx="-0.5" dy="1.5"/>
<feGaussianBlur stdDeviation="2"/>
<feComposite in2="hardAlpha" operator="out"/>
<feColorMatrix type="matrix" values="0 0 0 0 0 0 0 0 0 0.754167 0 0 0 0 0.704899 0 0 0 1 0"/>
<feBlend mode="normal" in2="BackgroundImageFix" result="effect1_dropShadow_2585_66557"/>
<feBlend mode="normal" in="SourceGraphic" in2="effect1_dropShadow_2585_66557" result="shape"/>
<feColorMatrix in="SourceAlpha" type="matrix" values="0 0 0 0 0 0 0 0 0 0 0 0 0 0 0 0 0 0 127 0" result="hardAlpha"/>
<feOffset dy="0.451613"/>
<feComposite in2="hardAlpha" operator="arithmetic" k2="-1" k3="1"/>
<feColorMatrix type="matrix" values="0 0 0 0 1 0 0 0 0 1 0 0 0 0 1 0 0 0 1 0"/>
<feBlend mode="normal" in2="shape" result="effect2_innerShadow_2585_66557"/>
</filter>
<filter id="filter3_d_2585_66557" x="15.5" y="15.5" width="16.5" height="14.5227" filterUnits="userSpaceOnUse" color-interpolation-filters="sRGB">
<feFlood flood-opacity="0" result="BackgroundImageFix"/>
<feColorMatrix in="SourceAlpha" type="matrix" values="0 0 0 0 0 0 0 0 0 0 0 0 0 0 0 0 0 0 127 0" result="hardAlpha"/>
<feOffset dx="-0.5" dy="1.5"/>
<feGaussianBlur stdDeviation="2"/>
<feComposite in2="hardAlpha" operator="out"/>
<feColorMatrix type="matrix" values="0 0 0 0 0 0 0 0 0 0.754167 0 0 0 0 0.704899 0 0 0 1 0"/>
<feBlend mode="normal" in2="BackgroundImageFix" result="effect1_dropShadow_2585_66557"/>
<feBlend mode="normal" in="SourceGraphic" in2="effect1_dropShadow_2585_66557" result="shape"/>
</filter>
<linearGradient id="paint0_linear_2585_66557" x1="0" y1="0" x2="48" y2="48" gradientUnits="userSpaceOnUse">
<stop stop-color="#12E4CF"/>
<stop offset="1" stop-color="#00B5B5"/>
</linearGradient>
</defs>
</svg>
