<svg width="24" height="24" viewBox="0 0 24 24" fill="none" xmlns="http://www.w3.org/2000/svg">
<path d="M14 8L8 8" stroke="#1D2129" stroke-width="1.5" stroke-linecap="round"/>
<path d="M12 12L8 12" stroke="#1D2129" stroke-width="1.5" stroke-linecap="round"/>
<path d="M5.5 19.5V4.5H18.5V9.25C18.5 9.66421 18.8358 10 19.25 10C19.6642 10 20 9.66421 20 9.25V4C20 3.44772 19.5523 3 19 3H5C4.44772 3 4 3.44772 4 4V20C4 20.5523 4.44772 21 5 21H9.25C9.66421 21 10 20.6642 10 20.25C10 19.8358 9.66421 19.5 9.25 19.5H5.5Z" fill="#1D2129"/>
<path d="M18.6768 12.3375L20.7981 14.4589C20.8957 14.5565 20.8957 14.7148 20.7981 14.8124L15.434 20.1765C15.3872 20.2233 15.3235 20.2497 15.2573 20.2497H13.1359C12.9979 20.2496 12.886 20.1377 12.886 19.9997V17.8784C12.886 17.8121 12.9123 17.7485 12.9592 17.7016L18.3232 12.3375C18.4209 12.2399 18.5791 12.2399 18.6768 12.3375Z" stroke="#00AAA6" stroke-width="1.5"/>
</svg>
