<svg width="24" height="24" viewBox="0 0 24 24" fill="none" xmlns="http://www.w3.org/2000/svg">
<circle cx="7.5" cy="18.5" r="1.75" stroke="#1D2129" stroke-width="1.5" stroke-linecap="round"/>
<circle cx="17.5" cy="18.5" r="1.75" stroke="#1D2129" stroke-width="1.5" stroke-linecap="round"/>
<path d="M6.66667 7.7997C7.17812 7.34193 7.5 6.67669 7.5 5.93628C7.5 4.55557 6.38071 3.43628 5 3.43628C3.61929 3.43628 2.5 4.55557 2.5 5.93628C2.5 6.57657 2.74071 7.16064 3.13658 7.60294" stroke="#00AAA6" stroke-width="1.5" stroke-linecap="round"/>
<path d="M6 7V8.4C6 8.45523 6.04477 8.5 6.1 8.5H7.5" stroke="#00AAA6" stroke-linecap="square"/>
<path fill-rule="evenodd" clip-rule="evenodd" d="M10 6C10 6.16875 9.99164 6.33555 9.97531 6.5H13.5V17.5H9.79198C9.92578 17.8062 10 18.1444 10 18.5C10 18.6712 9.98278 18.8384 9.94999 19H14C14.5523 19 15 18.5523 15 18V6C15 5.44772 14.5523 5 14 5H9.89998C9.96557 5.32311 10 5.65753 10 6ZM5.05001 19C5.01722 18.8384 5 18.6712 5 18.5C5 18.1444 5.07422 17.8062 5.20802 17.5H3.5V10.7711C2.95363 10.5995 2.44768 10.3366 2 10.0004V18C2 18.5523 2.44772 19 3 19H5.05001Z" fill="#1D2129"/>
<path fill-rule="evenodd" clip-rule="evenodd" d="M20.5 12.0147V17.5H19.792C19.9258 17.8062 20 18.1444 20 18.5C20 18.6712 19.9828 18.8384 19.95 19H21C21.5523 19 22 18.5523 22 18V11.8431C22 11.6207 21.9259 11.4047 21.7894 11.2292L18.8003 7.38606C18.6108 7.14247 18.3195 7 18.0109 7H17H14.5C13.9477 7 13.5 7.44772 13.5 8V18C13.5 18.5523 13.9477 19 14.5 19H15.05C15.0172 18.8384 15 18.6712 15 18.5C15 18.1444 15.0742 17.8062 15.208 17.5H15V8.5H17H17.7664L20.5 12.0147Z" fill="#1D2129"/>
</svg>
