<svg width="48" height="58" viewBox="0 0 48 58" fill="none" xmlns="http://www.w3.org/2000/svg">
<g filter="url(#filter0_f_668_19710)">
<ellipse cx="24" cy="45" rx="17" ry="7" fill="#9BC8FF"/>
</g>
<g filter="url(#filter1_f_668_19710)">
<path d="M30.5 47C30.5 48.6569 27.5899 50 24 50C20.4101 50 17.5 48.6569 17.5 47C17.5 45.3431 20.4101 44 24 44C27.5899 44 30.5 45.3431 30.5 47Z" fill="white"/>
</g>
<path d="M48 24C48 41.6731 41.6726 48 23.9995 48C6.32636 48 0 41.6731 0 23.9999C0 6.32681 6.32636 0 23.9995 0C41.6726 0 48 6.32689 48 24Z" fill="url(#paint0_linear_668_19710)"/>
<g filter="url(#filter2_d_668_19710)">
<path d="M15.4014 12.6984C15.7813 12.2551 16.336 12 16.9199 12H31.0801C31.664 12 32.2187 12.2551 32.5986 12.6984L38 19H10L15.4014 12.6984Z" fill="white" fill-opacity="0.5"/>
<g filter="url(#filter3_i_668_19710)">
<path fill-rule="evenodd" clip-rule="evenodd" d="M38 34C38 35.1046 37.1046 36 36 36L12 36C10.8954 36 10 35.1046 10 34V19L38 19V34ZM20.7682 22.6098C21.1218 23.0341 21.0645 23.6647 20.6402 24.0182L19.762 24.75H29.9414C30.4937 24.75 30.9414 25.1977 30.9414 25.75C30.9414 26.3023 30.4937 26.75 29.9414 26.75H18.381C16.9781 26.75 16.343 24.9958 17.4207 24.0977L19.3598 22.4818C19.7841 22.1282 20.4147 22.1855 20.7682 22.6098ZM27.3012 30.9818C26.8769 31.3353 26.8196 31.9659 27.1732 32.3902C27.5268 32.8145 28.1573 32.8718 28.5816 32.5182L30.5207 30.9023C31.5984 30.0042 30.9633 28.25 29.5604 28.25H18C17.4477 28.25 17 28.6977 17 29.25C17 29.8023 17.4477 30.25 18 30.25H28.1794L27.3012 30.9818Z" fill="#E7F9FF"/>
</g>
</g>
<defs>
<filter id="filter0_f_668_19710" x="1" y="32" width="46" height="26" filterUnits="userSpaceOnUse" color-interpolation-filters="sRGB">
<feFlood flood-opacity="0" result="BackgroundImageFix"/>
<feBlend mode="normal" in="SourceGraphic" in2="BackgroundImageFix" result="shape"/>
<feGaussianBlur stdDeviation="3" result="effect1_foregroundBlur_668_19710"/>
</filter>
<filter id="filter1_f_668_19710" x="12.5" y="39" width="23" height="16" filterUnits="userSpaceOnUse" color-interpolation-filters="sRGB">
<feFlood flood-opacity="0" result="BackgroundImageFix"/>
<feBlend mode="normal" in="SourceGraphic" in2="BackgroundImageFix" result="shape"/>
<feGaussianBlur stdDeviation="2.5" result="effect1_foregroundBlur_668_19710"/>
</filter>
<filter id="filter2_d_668_19710" x="6.5" y="10.5" width="34" height="30" filterUnits="userSpaceOnUse" color-interpolation-filters="sRGB">
<feFlood flood-opacity="0" result="BackgroundImageFix"/>
<feColorMatrix in="SourceAlpha" type="matrix" values="0 0 0 0 0 0 0 0 0 0 0 0 0 0 0 0 0 0 127 0" result="hardAlpha"/>
<feOffset dx="-0.5" dy="1.5"/>
<feGaussianBlur stdDeviation="1.5"/>
<feComposite in2="hardAlpha" operator="out"/>
<feColorMatrix type="matrix" values="0 0 0 0 0 0 0 0 0 0.380357 0 0 0 0 0.8875 0 0 0 0.8 0"/>
<feBlend mode="normal" in2="BackgroundImageFix" result="effect1_dropShadow_668_19710"/>
<feBlend mode="normal" in="SourceGraphic" in2="effect1_dropShadow_668_19710" result="shape"/>
</filter>
<filter id="filter3_i_668_19710" x="10" y="19" width="28" height="17" filterUnits="userSpaceOnUse" color-interpolation-filters="sRGB">
<feFlood flood-opacity="0" result="BackgroundImageFix"/>
<feBlend mode="normal" in="SourceGraphic" in2="BackgroundImageFix" result="shape"/>
<feColorMatrix in="SourceAlpha" type="matrix" values="0 0 0 0 0 0 0 0 0 0 0 0 0 0 0 0 0 0 127 0" result="hardAlpha"/>
<feOffset dx="1" dy="1"/>
<feComposite in2="hardAlpha" operator="arithmetic" k2="-1" k3="1"/>
<feColorMatrix type="matrix" values="0 0 0 0 1 0 0 0 0 1 0 0 0 0 1 0 0 0 1 0"/>
<feBlend mode="normal" in2="shape" result="effect1_innerShadow_668_19710"/>
</filter>
<linearGradient id="paint0_linear_668_19710" x1="0" y1="0" x2="48" y2="48" gradientUnits="userSpaceOnUse">
<stop stop-color="#5398FF"/>
<stop offset="1" stop-color="#0075FF"/>
</linearGradient>
</defs>
</svg>
