<svg width="48" height="58" viewBox="0 0 48 58" fill="none" xmlns="http://www.w3.org/2000/svg">
<g filter="url(#filter0_f_668_19709)">
<ellipse cx="24" cy="45" rx="17" ry="7" fill="#99D7FF"/>
</g>
<g filter="url(#filter1_f_668_19709)">
<path d="M30.5 47C30.5 48.6569 27.5899 50 24 50C20.4101 50 17.5 48.6569 17.5 47C17.5 45.3431 20.4101 44 24 44C27.5899 44 30.5 45.3431 30.5 47Z" fill="white"/>
</g>
<path d="M48 24C48 41.6731 41.6726 48 23.9995 48C6.32636 48 0 41.6731 0 23.9999C0 6.32681 6.32636 0 23.9995 0C41.6726 0 48 6.32689 48 24Z" fill="url(#paint0_linear_668_19709)"/>
<g filter="url(#filter2_d_668_19709)">
<rect x="19" y="10" width="10" height="4" rx="2" fill="white" fill-opacity="0.5"/>
<g filter="url(#filter3_i_668_19709)">
<path fill-rule="evenodd" clip-rule="evenodd" d="M18 12.5C18 12.3288 18.0172 12.1616 18.05 12H14C12.8954 12 12 12.8954 12 14V36C12 37.1046 12.8954 38 14 38H29.6822C28.0655 36.9251 27 35.087 27 33C27 29.6863 29.6863 27 33 27C34.0929 27 35.1175 27.2922 36 27.8027V14C36 12.8954 35.1046 12 34 12H29.95C29.9828 12.1616 30 12.3288 30 12.5C30 13.8807 28.8807 15 27.5 15H20.5C19.1193 15 18 13.8807 18 12.5ZM18.5 20C17.6716 20 17 20.6716 17 21.5C17 22.3284 17.6716 23 18.5 23H28.5C29.3284 23 30 22.3284 30 21.5C30 20.6716 29.3284 20 28.5 20H18.5ZM17 27.5C17 26.6716 17.6716 26 18.5 26H23.5C24.3284 26 25 26.6716 25 27.5C25 28.3284 24.3284 29 23.5 29H18.5C17.6716 29 17 28.3284 17 27.5Z" fill="#EBFAFF"/>
</g>
<path fill-rule="evenodd" clip-rule="evenodd" d="M33 38C35.7614 38 38 35.7614 38 33C38 30.2386 35.7614 28 33 28C30.2386 28 28 30.2386 28 33C28 35.7614 30.2386 38 33 38ZM35.8137 32.0812C36.1347 31.6318 36.0307 31.0073 35.5812 30.6863C35.1318 30.3653 34.5073 30.4693 34.1863 30.9188L32.3724 33.4582L31.7071 32.7929C31.3166 32.4024 30.6834 32.4024 30.2929 32.7929C29.9024 33.1834 29.9024 33.8166 30.2929 34.2071L30.9582 34.8724C31.8321 35.7463 33.2815 35.6263 33.9999 34.6207L35.8137 32.0812Z" fill="white" fill-opacity="0.5"/>
</g>
<defs>
<filter id="filter0_f_668_19709" x="1" y="32" width="46" height="26" filterUnits="userSpaceOnUse" color-interpolation-filters="sRGB">
<feFlood flood-opacity="0" result="BackgroundImageFix"/>
<feBlend mode="normal" in="SourceGraphic" in2="BackgroundImageFix" result="shape"/>
<feGaussianBlur stdDeviation="3" result="effect1_foregroundBlur_668_19709"/>
</filter>
<filter id="filter1_f_668_19709" x="12.5" y="39" width="23" height="16" filterUnits="userSpaceOnUse" color-interpolation-filters="sRGB">
<feFlood flood-opacity="0" result="BackgroundImageFix"/>
<feBlend mode="normal" in="SourceGraphic" in2="BackgroundImageFix" result="shape"/>
<feGaussianBlur stdDeviation="2.5" result="effect1_foregroundBlur_668_19709"/>
</filter>
<filter id="filter2_d_668_19709" x="9" y="9" width="32" height="34" filterUnits="userSpaceOnUse" color-interpolation-filters="sRGB">
<feFlood flood-opacity="0" result="BackgroundImageFix"/>
<feColorMatrix in="SourceAlpha" type="matrix" values="0 0 0 0 0 0 0 0 0 0 0 0 0 0 0 0 0 0 127 0" result="hardAlpha"/>
<feOffset dy="2"/>
<feGaussianBlur stdDeviation="1.5"/>
<feComposite in2="hardAlpha" operator="out"/>
<feColorMatrix type="matrix" values="0 0 0 0 0.192157 0 0 0 0 0.596078 0 0 0 0 0.905882 0 0 0 0.8 0"/>
<feBlend mode="normal" in2="BackgroundImageFix" result="effect1_dropShadow_668_19709"/>
<feBlend mode="normal" in="SourceGraphic" in2="effect1_dropShadow_668_19709" result="shape"/>
</filter>
<filter id="filter3_i_668_19709" x="12" y="12" width="24" height="26" filterUnits="userSpaceOnUse" color-interpolation-filters="sRGB">
<feFlood flood-opacity="0" result="BackgroundImageFix"/>
<feBlend mode="normal" in="SourceGraphic" in2="BackgroundImageFix" result="shape"/>
<feColorMatrix in="SourceAlpha" type="matrix" values="0 0 0 0 0 0 0 0 0 0 0 0 0 0 0 0 0 0 127 0" result="hardAlpha"/>
<feOffset dx="-0.5" dy="0.5"/>
<feComposite in2="hardAlpha" operator="arithmetic" k2="-1" k3="1"/>
<feColorMatrix type="matrix" values="0 0 0 0 1 0 0 0 0 1 0 0 0 0 1 0 0 0 0.5 0"/>
<feBlend mode="normal" in2="shape" result="effect1_innerShadow_668_19709"/>
</filter>
<linearGradient id="paint0_linear_668_19709" x1="0" y1="0" x2="48" y2="48" gradientUnits="userSpaceOnUse">
<stop stop-color="#7CC5F9"/>
<stop offset="1" stop-color="#3AA0E8"/>
</linearGradient>
</defs>
</svg>
