<svg width="48" height="58" viewBox="0 0 48 58" fill="none" xmlns="http://www.w3.org/2000/svg">
<g filter="url(#filter0_f_7492_43020)">
<ellipse cx="24" cy="45" rx="17" ry="7" fill="#00D1C6" fill-opacity="0.5"/>
</g>
<g filter="url(#filter1_f_7492_43020)">
<path d="M30.5 47C30.5 48.6569 27.5899 50 24 50C20.4101 50 17.5 48.6569 17.5 47C17.5 45.3431 20.4101 44 24 44C27.5899 44 30.5 45.3431 30.5 47Z" fill="white"/>
</g>
<path d="M48 24C48 41.6731 41.6726 48 23.9995 48C6.32636 48 0 41.6731 0 23.9999C0 6.32681 6.32636 0 23.9995 0C41.6726 0 48 6.32689 48 24Z" fill="url(#paint0_linear_7492_43020)"/>
<g filter="url(#filter2_di_7492_43020)">
<path d="M12.7656 17.2132C12.7656 16.7189 13.1664 16.3181 13.6607 16.3181H17.2412C17.7355 16.3181 18.1363 16.7189 18.1363 17.2132V18.1083H12.7656V17.2132Z" fill="#EBFFF8"/>
</g>
<g filter="url(#filter3_di_7492_43020)">
<path d="M39.4092 13.1094C39.9614 13.1094 40.409 13.5572 40.4092 14.1094V27.1094C40.4092 27.6617 39.9615 28.1094 39.4092 28.1094H22.4092C21.8569 28.1094 21.4092 27.6617 21.4092 27.1094V14.1094C21.4093 13.5572 21.857 13.1094 22.4092 13.1094H39.4092ZM24.4092 15.6104C24.133 15.6104 23.9092 15.8342 23.9092 16.1104V25.1104C23.9094 25.3863 24.1332 25.6104 24.4092 25.6104C24.6852 25.6104 24.909 25.3863 24.9092 25.1104V16.1104C24.9092 15.8342 24.6853 15.6104 24.4092 15.6104ZM28.7422 15.6104C28.4662 15.6105 28.2422 15.8343 28.2422 16.1104V25.1104C28.2424 25.3862 28.4663 25.6102 28.7422 25.6104C29.0182 25.6104 29.242 25.3863 29.2422 25.1104V16.1104C29.2422 15.8342 29.0183 15.6104 28.7422 15.6104ZM33.0762 15.6104C32.8 15.6104 32.5762 15.8342 32.5762 16.1104V25.1104C32.5764 25.3863 32.8001 25.6104 33.0762 25.6104C33.352 25.6102 33.576 25.3862 33.5762 25.1104V16.1104C33.5762 15.8343 33.3522 15.6105 33.0762 15.6104ZM37.4092 15.6104C37.133 15.6104 36.9092 15.8342 36.9092 16.1104V25.1104C36.9094 25.3863 37.1332 25.6104 37.4092 25.6104C37.6852 25.6104 37.909 25.3863 37.9092 25.1104V16.1104C37.9092 15.8342 37.6853 15.6104 37.4092 15.6104Z" fill="#EBFFF8"/>
</g>
<g filter="url(#filter4_di_7492_43020)">
<path d="M19.0312 18.7656C19.5256 18.7656 19.9268 19.1668 19.9268 19.6611V29.5068H40.5137C41.0079 29.5069 41.4092 29.9081 41.4092 30.4023V33.0869C41.4092 33.5812 41.0079 33.9823 40.5137 33.9824H36.0352C35.9719 32.0606 34.3952 30.5216 32.458 30.5215C30.5207 30.5215 28.9441 32.0605 28.8809 33.9824H17.2383C17.1751 32.0605 15.5984 30.5215 13.6611 30.5215C11.7238 30.5215 10.1472 32.0605 10.084 33.9824H7.39551C6.90116 33.9824 6.5 33.5813 6.5 33.0869V25.5068C6.5 25.1953 6.58176 24.8887 6.73633 24.6182L9.82227 19.2168C9.98159 18.938 10.2785 18.7657 10.5996 18.7656H19.0312ZM12.4023 20.5557C12.0748 20.5557 11.773 20.7349 11.6162 21.0225L9.9082 24.1553C9.5829 24.7517 10.0141 25.4783 10.6934 25.4785H15.0039C15.4982 25.4785 15.8993 25.0782 15.8994 24.584V21.4512C15.8994 20.9568 15.4983 20.5557 15.0039 20.5557H12.4023Z" fill="#EBFFF8"/>
</g>
<g filter="url(#filter5_di_7492_43020)">
<circle cx="13.6609" cy="34.1619" r="2.68531" fill="#EBFFF8"/>
</g>
<g filter="url(#filter6_di_7492_43020)">
<circle cx="32.4578" cy="34.1619" r="2.68531" fill="#EBFFF8"/>
</g>
<rect x="20.4092" y="12.1096" width="3" height="3" rx="0.5" fill="#EBFFF8"/>
<rect x="21.4092" y="13.1096" width="1" height="1" rx="0.2" fill="#22BBB3"/>
<rect x="20.4092" y="26.1096" width="3" height="3" rx="0.5" fill="#EBFFF8"/>
<rect x="21.4092" y="27.1096" width="1" height="1" rx="0.2" fill="#22BBB3"/>
<rect x="38.4092" y="26.1096" width="3" height="3" rx="0.5" fill="#EBFFF8"/>
<rect x="39.4092" y="27.1096" width="1" height="1" rx="0.2" fill="#22BBB3"/>
<rect x="38.4092" y="12.1096" width="3" height="3" rx="0.5" fill="#EBFFF8"/>
<rect x="39.4092" y="13.1096" width="1" height="1" rx="0.2" fill="#22BBB3"/>
<defs>
<filter id="filter0_f_7492_43020" x="1" y="32" width="46" height="26" filterUnits="userSpaceOnUse" color-interpolation-filters="sRGB">
<feFlood flood-opacity="0" result="BackgroundImageFix"/>
<feBlend mode="normal" in="SourceGraphic" in2="BackgroundImageFix" result="shape"/>
<feGaussianBlur stdDeviation="3" result="effect1_foregroundBlur_7492_43020"/>
</filter>
<filter id="filter1_f_7492_43020" x="12.5" y="39" width="23" height="16" filterUnits="userSpaceOnUse" color-interpolation-filters="sRGB">
<feFlood flood-opacity="0" result="BackgroundImageFix"/>
<feBlend mode="normal" in="SourceGraphic" in2="BackgroundImageFix" result="shape"/>
<feGaussianBlur stdDeviation="2.5" result="effect1_foregroundBlur_7492_43020"/>
</filter>
<filter id="filter2_di_7492_43020" x="9.07332" y="14.2668" width="11.9352" height="8.35439" filterUnits="userSpaceOnUse" color-interpolation-filters="sRGB">
<feFlood flood-opacity="0" result="BackgroundImageFix"/>
<feColorMatrix in="SourceAlpha" type="matrix" values="0 0 0 0 0 0 0 0 0 0 0 0 0 0 0 0 0 0 127 0" result="hardAlpha"/>
<feOffset dx="-0.410256" dy="1.23077"/>
<feGaussianBlur stdDeviation="1.64103"/>
<feComposite in2="hardAlpha" operator="out"/>
<feColorMatrix type="matrix" values="0 0 0 0 0 0 0 0 0 0.754167 0 0 0 0 0.704899 0 0 0 1 0"/>
<feBlend mode="normal" in2="BackgroundImageFix" result="effect1_dropShadow_7492_43020"/>
<feBlend mode="normal" in="SourceGraphic" in2="effect1_dropShadow_7492_43020" result="shape"/>
<feColorMatrix in="SourceAlpha" type="matrix" values="0 0 0 0 0 0 0 0 0 0 0 0 0 0 0 0 0 0 127 0" result="hardAlpha"/>
<feOffset dy="0.370554"/>
<feComposite in2="hardAlpha" operator="arithmetic" k2="-1" k3="1"/>
<feColorMatrix type="matrix" values="0 0 0 0 1 0 0 0 0 1 0 0 0 0 1 0 0 0 1 0"/>
<feBlend mode="normal" in2="shape" result="effect2_innerShadow_7492_43020"/>
</filter>
<filter id="filter3_di_7492_43020" x="17.7169" y="11.0581" width="25.5641" height="21.5641" filterUnits="userSpaceOnUse" color-interpolation-filters="sRGB">
<feFlood flood-opacity="0" result="BackgroundImageFix"/>
<feColorMatrix in="SourceAlpha" type="matrix" values="0 0 0 0 0 0 0 0 0 0 0 0 0 0 0 0 0 0 127 0" result="hardAlpha"/>
<feOffset dx="-0.410256" dy="1.23077"/>
<feGaussianBlur stdDeviation="1.64103"/>
<feComposite in2="hardAlpha" operator="out"/>
<feColorMatrix type="matrix" values="0 0 0 0 0 0 0 0 0 0.754167 0 0 0 0 0.704899 0 0 0 1 0"/>
<feBlend mode="normal" in2="BackgroundImageFix" result="effect1_dropShadow_7492_43020"/>
<feBlend mode="normal" in="SourceGraphic" in2="effect1_dropShadow_7492_43020" result="shape"/>
<feColorMatrix in="SourceAlpha" type="matrix" values="0 0 0 0 0 0 0 0 0 0 0 0 0 0 0 0 0 0 127 0" result="hardAlpha"/>
<feOffset dy="0.370554"/>
<feComposite in2="hardAlpha" operator="arithmetic" k2="-1" k3="1"/>
<feColorMatrix type="matrix" values="0 0 0 0 1 0 0 0 0 1 0 0 0 0 1 0 0 0 1 0"/>
<feBlend mode="normal" in2="shape" result="effect2_innerShadow_7492_43020"/>
</filter>
<filter id="filter4_di_7492_43020" x="2.80769" y="16.3787" width="41.4733" height="21.7809" filterUnits="userSpaceOnUse" color-interpolation-filters="sRGB">
<feFlood flood-opacity="0" result="BackgroundImageFix"/>
<feColorMatrix in="SourceAlpha" type="matrix" values="0 0 0 0 0 0 0 0 0 0 0 0 0 0 0 0 0 0 127 0" result="hardAlpha"/>
<feOffset dx="-0.410256" dy="0.895105"/>
<feGaussianBlur stdDeviation="1.64103"/>
<feComposite in2="hardAlpha" operator="out"/>
<feColorMatrix type="matrix" values="0 0 0 0 0 0 0 0 0 0.754167 0 0 0 0 0.704899 0 0 0 1 0"/>
<feBlend mode="normal" in2="BackgroundImageFix" result="effect1_dropShadow_7492_43020"/>
<feBlend mode="normal" in="SourceGraphic" in2="effect1_dropShadow_7492_43020" result="shape"/>
<feColorMatrix in="SourceAlpha" type="matrix" values="0 0 0 0 0 0 0 0 0 0 0 0 0 0 0 0 0 0 127 0" result="hardAlpha"/>
<feOffset dy="0.370554"/>
<feComposite in2="hardAlpha" operator="arithmetic" k2="-1" k3="1"/>
<feColorMatrix type="matrix" values="0 0 0 0 1 0 0 0 0 1 0 0 0 0 1 0 0 0 1 0"/>
<feBlend mode="normal" in2="shape" result="effect2_innerShadow_7492_43020"/>
</filter>
<filter id="filter5_di_7492_43020" x="7.28328" y="29.4253" width="11.9352" height="11.9347" filterUnits="userSpaceOnUse" color-interpolation-filters="sRGB">
<feFlood flood-opacity="0" result="BackgroundImageFix"/>
<feColorMatrix in="SourceAlpha" type="matrix" values="0 0 0 0 0 0 0 0 0 0 0 0 0 0 0 0 0 0 127 0" result="hardAlpha"/>
<feOffset dx="-0.410256" dy="1.23077"/>
<feGaussianBlur stdDeviation="1.64103"/>
<feComposite in2="hardAlpha" operator="out"/>
<feColorMatrix type="matrix" values="0 0 0 0 0 0 0 0 0 0.754167 0 0 0 0 0.704899 0 0 0 1 0"/>
<feBlend mode="normal" in2="BackgroundImageFix" result="effect1_dropShadow_7492_43020"/>
<feBlend mode="normal" in="SourceGraphic" in2="effect1_dropShadow_7492_43020" result="shape"/>
<feColorMatrix in="SourceAlpha" type="matrix" values="0 0 0 0 0 0 0 0 0 0 0 0 0 0 0 0 0 0 127 0" result="hardAlpha"/>
<feOffset dy="0.370554"/>
<feComposite in2="hardAlpha" operator="arithmetic" k2="-1" k3="1"/>
<feColorMatrix type="matrix" values="0 0 0 0 1 0 0 0 0 1 0 0 0 0 1 0 0 0 1 0"/>
<feBlend mode="normal" in2="shape" result="effect2_innerShadow_7492_43020"/>
</filter>
<filter id="filter6_di_7492_43020" x="26.0802" y="29.4253" width="11.9352" height="11.9347" filterUnits="userSpaceOnUse" color-interpolation-filters="sRGB">
<feFlood flood-opacity="0" result="BackgroundImageFix"/>
<feColorMatrix in="SourceAlpha" type="matrix" values="0 0 0 0 0 0 0 0 0 0 0 0 0 0 0 0 0 0 127 0" result="hardAlpha"/>
<feOffset dx="-0.410256" dy="1.23077"/>
<feGaussianBlur stdDeviation="1.64103"/>
<feComposite in2="hardAlpha" operator="out"/>
<feColorMatrix type="matrix" values="0 0 0 0 0 0 0 0 0 0.754167 0 0 0 0 0.704899 0 0 0 1 0"/>
<feBlend mode="normal" in2="BackgroundImageFix" result="effect1_dropShadow_7492_43020"/>
<feBlend mode="normal" in="SourceGraphic" in2="effect1_dropShadow_7492_43020" result="shape"/>
<feColorMatrix in="SourceAlpha" type="matrix" values="0 0 0 0 0 0 0 0 0 0 0 0 0 0 0 0 0 0 127 0" result="hardAlpha"/>
<feOffset dy="0.370554"/>
<feComposite in2="hardAlpha" operator="arithmetic" k2="-1" k3="1"/>
<feColorMatrix type="matrix" values="0 0 0 0 1 0 0 0 0 1 0 0 0 0 1 0 0 0 1 0"/>
<feBlend mode="normal" in2="shape" result="effect2_innerShadow_7492_43020"/>
</filter>
<linearGradient id="paint0_linear_7492_43020" x1="0" y1="0" x2="48" y2="48" gradientUnits="userSpaceOnUse">
<stop stop-color="#12E4CF"/>
<stop offset="1" stop-color="#00B5B5"/>
</linearGradient>
</defs>
</svg>
