<svg width="48" height="12" viewBox="0 0 48 12" fill="none" xmlns="http://www.w3.org/2000/svg">
<path d="M7.59566 3.01196H9.05966C9.01166 4.36796 8.80766 5.57996 8.44766 6.63596C8.05166 5.73596 7.72766 4.69196 7.46366 3.50396C7.51166 3.33596 7.54766 3.17996 7.59566 3.01196ZM7.87166 7.91996C7.35566 8.84396 6.65966 9.58796 5.79566 10.164L6.44366 11.22C7.25966 10.632 7.95566 9.91196 8.51966 9.07196C9.08366 9.95996 9.74366 10.68 10.4877 11.232L11.1837 10.212C10.3917 9.67196 9.70766 8.91596 9.13166 7.95596C9.76766 6.58796 10.1157 4.94396 10.1877 3.01196H10.8477V1.79996H7.84766C7.93166 1.33196 8.00366 0.83996 8.07566 0.311961L6.85166 0.0959606C6.62366 2.30396 6.17966 4.06796 5.51966 5.38796L6.29966 6.35996C6.49166 6.02396 6.68366 5.65196 6.86366 5.25596C7.15166 6.23996 7.48766 7.12796 7.87166 7.91996ZM2.19566 5.66396C2.12366 5.87996 2.03966 6.09596 1.95566 6.33596H0.287664V7.40396H1.47566C1.25966 7.84796 1.00766 8.31596 0.719664 8.79596C1.24766 8.99996 1.76366 9.20396 2.24366 9.40796C1.60766 9.69596 0.863664 9.94796 -0.000335932 10.14L0.575664 11.184C1.76366 10.872 2.74766 10.476 3.53966 9.97196C4.18766 10.272 4.73966 10.56 5.19566 10.836L5.86766 9.85196C5.42366 9.61196 4.96766 9.39596 4.49966 9.19196C5.02766 8.66396 5.38766 8.03996 5.59166 7.34396V6.33596H3.17966C3.23966 6.16796 3.29966 5.98796 3.37166 5.80796L2.19566 5.66396ZM3.37166 8.72396C2.98766 8.56796 2.60366 8.42396 2.21966 8.30396C2.38766 8.01596 2.55566 7.71596 2.71166 7.40396H4.48766C4.23566 7.89596 3.86366 8.33996 3.37166 8.72396ZM1.46366 0.27596L0.491664 0.587961C0.755664 1.03196 1.00766 1.53596 1.24766 2.11196L2.13566 1.71596C1.94366 1.19996 1.71566 0.71996 1.46366 0.27596ZM4.83566 0.263961C4.61966 0.743961 4.30766 1.22396 3.92366 1.71596L4.79966 2.15996C5.17166 1.67996 5.47166 1.18796 5.71166 0.68396L4.83566 0.263961ZM0.311664 2.29196V3.38396H1.73966C1.37966 3.91196 0.803664 4.39196 0.0236641 4.83596L0.647664 5.84396C1.51166 5.21996 2.13566 4.51196 2.54366 3.69596V5.57996H3.69566V4.31996C4.03166 4.54796 4.45166 4.85996 4.95566 5.25596L5.60366 4.27196C4.95566 3.94796 4.31966 3.65996 3.69566 3.40796V3.38396H5.73566V2.29196H3.69566V0.11996H2.54366V2.29196H0.311664ZM13.5357 11.1C14.3277 11.1 14.7237 10.68 14.7237 9.86396V6.61196C15.0357 6.45596 15.3597 6.29996 15.6957 6.13196V4.90796C15.3837 5.07596 15.0597 5.23196 14.7237 5.38796V3.47996H15.7437V2.26796H14.7237V0.143961H13.4997V2.26796H12.2037V3.47996H13.4997V5.87996C12.9957 6.04796 12.4797 6.19196 11.9637 6.31196L12.2877 7.54796C12.6957 7.41596 13.0917 7.27196 13.4997 7.12796V9.55196C13.4997 9.85196 13.3677 10.008 13.1157 10.008C12.8397 10.008 12.5517 9.97196 12.2517 9.92396L12.5157 11.1H13.5357ZM17.3277 5.92796H19.3677V7.07996H17.4837V11.208H18.6357V10.716H21.3357V11.208H22.4877V7.07996H20.5917V5.92796H23.0157V4.78796H20.5917V3.65996H22.7517V0.479961H16.1757V4.46396C16.1637 6.86396 15.7677 8.83196 14.9877 10.356L15.9717 11.232C16.7277 9.69596 17.1837 7.93196 17.3277 5.92796ZM19.3677 3.65996V4.78796H17.3757C17.3757 4.67996 17.3877 4.57196 17.3877 4.46396V3.65996H19.3677ZM18.6357 9.61196V8.18396H21.3357V9.61196H18.6357ZM21.5277 1.61996V2.55596H17.3877V1.61996H21.5277ZM30.2757 3.75596H33.0717V4.78796H30.2757V3.75596ZM33.0717 2.67596H30.2757V1.61996H33.0717V2.67596ZM34.1757 6.23996C33.7437 6.77996 33.2997 7.19996 32.8317 7.51196C32.5797 7.00796 32.3997 6.47996 32.2797 5.90396H34.2957V0.491961H29.0517V9.51596C29.0517 9.70796 28.9317 9.85196 28.6917 9.94796L28.9677 11.004C30.2997 10.668 31.4157 10.332 32.3037 9.97196L31.9917 8.80796C31.4277 9.07196 30.8517 9.29996 30.2757 9.49196V5.90396H31.1757C31.5477 8.09996 32.6637 9.83996 34.5117 11.124L35.2077 10.02C34.4637 9.56396 33.8637 9.03596 33.3957 8.41196C33.9717 8.08796 34.4877 7.61996 34.9557 7.01996L34.1757 6.23996ZM24.4437 0.491961V4.57196H26.1597V9.32396C25.9677 9.37196 25.7637 9.41996 25.5597 9.46796V5.59196H24.4557V9.71996L23.9637 9.81596L24.3237 11.016C25.9077 10.656 27.3117 10.26 28.5357 9.85196V8.63996C28.1517 8.75996 27.7437 8.89196 27.3237 9.01196V7.29596H28.4397V6.14396H27.3237V4.57196H28.3917V0.491961H24.4437ZM27.2037 3.41996H25.6437V1.64396H27.2037V3.41996ZM36.3837 0.491961V4.57196H37.9797V9.28796L37.4637 9.43196V5.59196H36.3597V9.73196L35.8797 9.83996L36.2517 11.04C37.6917 10.668 38.9637 10.26 40.0797 9.82796V8.56796C39.7797 8.68796 39.4677 8.79596 39.1557 8.90396V7.31996H40.2357V6.11996H39.1557V4.57196H40.1997V0.491961H36.3837ZM38.9997 3.41996H37.5837V1.64396H38.9997V3.41996ZM46.8477 1.24796H44.2077C44.0637 0.79196 43.9197 0.371961 43.7757 -3.95775e-05L42.5037 0.215961C42.6717 0.527961 42.8157 0.863961 42.9597 1.24796H40.5717V3.71996H41.5197V4.48796H45.8997V3.71996H46.8477V1.24796ZM41.7477 3.32396V2.38796H45.6837V3.32396H41.7477ZM41.2557 7.25996C41.0157 8.26796 40.6197 9.21596 40.0677 10.104L41.1477 10.788C41.6757 9.86396 42.0957 8.77196 42.3957 7.49996L41.2557 7.25996ZM46.0317 7.13996L44.9277 7.49996C45.3357 8.37596 45.7197 9.37196 46.0677 10.5L47.1957 9.99596C46.8597 8.97596 46.4757 8.02796 46.0317 7.13996ZM43.2957 11.016C44.0637 11.016 44.4597 10.56 44.4597 9.67196V6.59996H46.7997V5.42396H40.6437V6.59996H43.1997V9.35996C43.1997 9.70796 43.0797 9.88796 42.8517 9.88796C42.5757 9.88796 42.2757 9.85196 41.9637 9.80396L42.2517 11.016H43.2957Z" fill="black"/>
</svg>
