<svg width="47" height="12" viewBox="0 0 47 12" fill="none" xmlns="http://www.w3.org/2000/svg">
<path d="M0.863563 0.275939C1.69156 0.899939 2.38756 1.51194 2.95156 2.13594L2.32756 2.74794C1.83556 2.15994 1.15156 1.52394 0.275563 0.839939L0.863563 0.275939ZM7.88356 10.8719C7.22356 10.8719 6.50356 10.8599 5.73556 10.8479C4.95556 10.8359 4.31956 10.7639 3.83956 10.6319C3.35956 10.4879 2.92756 10.1879 2.55556 9.75594C2.38756 9.55194 2.23156 9.45594 2.08756 9.45594C1.79956 9.45594 1.31956 9.99594 0.659563 11.0999L0.0115625 10.5239C0.647563 9.51594 1.21156 8.90394 1.70356 8.68794V5.03994H-0.000437483V4.24794H2.50756V8.73594C2.60356 8.80794 2.69956 8.89194 2.80756 9.01194C3.09556 9.35994 3.40756 9.61194 3.74356 9.76794C4.12756 9.93594 4.66756 10.0319 5.38756 10.0559C6.02356 10.0679 6.81556 10.0799 7.76356 10.0799C8.31556 10.0799 8.89156 10.0679 9.47956 10.0559C10.0556 10.0439 10.4996 10.0319 10.8116 10.0079L10.6076 10.8719H7.88356ZM3.62356 4.81194H6.52756C6.59956 4.29594 6.64756 3.70794 6.67156 3.03594H4.03156V2.24394H7.65556C8.02756 1.54794 8.35156 0.803939 8.61556 0.0119393L9.43156 0.299939C9.16756 1.03194 8.86756 1.67994 8.53156 2.24394H10.0916V3.03594H7.52356C7.49956 3.70794 7.46356 4.30794 7.39156 4.81194H10.4996V5.62794H7.23556C6.89956 7.07994 5.84356 8.27994 4.06756 9.22794L3.51556 8.53194C5.02756 7.78794 5.97556 6.82794 6.33556 5.62794H3.62356V4.81194ZM5.26756 0.107939C5.66356 0.635939 6.03556 1.22394 6.39556 1.85994L5.66356 2.21994C5.30356 1.57194 4.90756 0.983939 4.48756 0.479939L5.26756 0.107939ZM7.78756 6.33594C8.78356 7.03194 9.68356 7.78794 10.4876 8.60394L9.88756 9.25194C9.04756 8.36394 8.18356 7.58394 7.27156 6.91194L7.78756 6.33594ZM21.0476 4.55994H18.4436C17.6996 4.55994 17.3396 4.22394 17.3396 3.56394V3.05994C16.8476 3.20394 16.3436 3.34794 15.8396 3.49194L15.3716 2.80794C16.0676 2.62794 16.7276 2.43594 17.3396 2.24394V0.143939H18.1796V1.96794C19.5476 1.46394 20.6636 0.923939 21.5396 0.323939L22.0916 0.899939C20.9876 1.61994 19.6916 2.25594 18.1796 2.78394V3.39594C18.1796 3.67194 18.3356 3.81594 18.6716 3.81594H20.8916C21.1556 3.81594 21.3476 3.75594 21.4556 3.65994C21.5996 3.53994 21.6956 3.16794 21.7436 2.56794L22.5356 2.81994C22.4516 3.64794 22.2836 4.15194 22.0436 4.33194C21.8276 4.47594 21.5036 4.55994 21.0476 4.55994ZM21.2516 5.24394V8.81994H20.3636V6.03594H14.5916V8.98794H13.7156V5.24394H21.2516ZM18.2396 8.83194C19.7876 9.26394 21.1916 9.80394 22.4636 10.4279L21.9836 11.1599C20.6276 10.4519 19.2356 9.89994 17.8076 9.49194L18.2396 8.83194ZM17.0636 6.56394L17.9036 6.63594C17.7356 8.19594 17.3636 9.25194 16.7996 9.80394C16.1756 10.4759 14.7836 10.9079 12.6116 11.0879L12.2636 10.3079C14.1956 10.2119 15.4676 9.87594 16.0916 9.29994C16.6436 8.75994 16.9676 7.84794 17.0636 6.56394ZM13.8596 2.48394C13.3796 2.81994 12.8516 3.14394 12.2756 3.44394L12.0116 2.60394C13.4876 1.84794 14.5676 0.983939 15.2396 0.0239391L15.9476 0.371939C15.6116 0.887939 15.1916 1.36794 14.6996 1.81194V4.71594H13.8596V2.48394ZM24.0476 1.51194H29.0036C28.7876 1.01994 28.5476 0.575939 28.2836 0.167939L29.2436 -6.12736e-05C29.4836 0.455939 29.7236 0.959939 29.9396 1.51194H34.6676V2.33994H24.0476V1.51194ZM31.2476 2.69994C32.5796 3.75594 33.6956 4.79994 34.5956 5.85594L33.9596 6.49194C33.1676 5.48394 32.0636 4.41594 30.6596 3.26394L31.2476 2.69994ZM31.3676 4.94394L32.1596 5.29194C31.5836 6.39594 30.8876 7.34394 30.0596 8.14794C31.3556 9.08394 32.9276 9.77994 34.7996 10.2599L34.2596 11.0639C32.3156 10.5119 30.6956 9.74394 29.3996 8.73594C28.0556 9.81594 26.4236 10.6079 24.5036 11.1119L23.9756 10.3199C25.8716 9.83994 27.4436 9.11994 28.7036 8.15994C27.8276 7.36794 27.1076 6.45594 26.5436 5.44794L27.2876 5.02794C27.8156 6.01194 28.5116 6.86394 29.3636 7.59594C30.1796 6.82794 30.8516 5.95194 31.3676 4.94394ZM27.3836 2.71194L28.0076 3.26394C27.0956 4.45194 25.9676 5.49594 24.6236 6.38394L24.0716 5.65194C25.3796 4.81194 26.4836 3.83994 27.3836 2.71194ZM41.6996 2.11194C42.0116 2.65194 42.2876 3.23994 42.5516 3.88794H43.7276C44.0636 3.28794 44.3396 2.65194 44.5796 1.97994L45.3956 2.26794C45.1676 2.86794 44.9156 3.40794 44.6396 3.88794H46.5836V4.71594H39.8876V3.88794H41.7236C41.4836 3.35994 41.2436 2.87994 40.9916 2.44794L41.6996 2.11194ZM43.2836 0.0119393C43.4156 0.347939 43.5476 0.731939 43.6796 1.15194H46.3676V1.94394H40.1636V1.15194H42.8036C42.6716 0.791939 42.5276 0.455939 42.3836 0.155939L43.2836 0.0119393ZM37.2956 10.9799H36.2516L36.0716 10.1399C36.3956 10.1639 36.7076 10.1879 36.9956 10.1879C37.3076 10.1879 37.4756 10.0319 37.4756 9.71994V6.76794C36.9956 6.95994 36.5036 7.13994 36.0116 7.29594L35.7956 6.43194C36.3596 6.28794 36.9236 6.10794 37.4756 5.89194V3.21594H36.0116V2.38794H37.4756V0.119939H38.3636V2.38794H39.3596V3.21594H38.3636V5.51994C38.6996 5.35194 39.0356 5.18394 39.3716 5.00394V5.87994C39.0356 6.05994 38.6996 6.22794 38.3636 6.38394V9.93594C38.3636 10.6319 38.0036 10.9799 37.2956 10.9799ZM42.2276 5.05194L43.0556 5.14794C42.9356 5.47194 42.8036 5.78394 42.6596 6.08394H46.7756V6.92394H45.4556C45.2756 7.81194 44.9036 8.56794 44.3396 9.17994C45.1556 9.56394 45.9476 9.97194 46.7036 10.4039L46.2356 11.0999C45.5156 10.6559 44.6876 10.2119 43.7276 9.75594C42.9356 10.3319 41.6756 10.7999 39.9476 11.1359L39.6116 10.3559C41.0036 10.1039 42.0836 9.76794 42.8276 9.33594C42.0956 8.99994 41.3156 8.67594 40.4756 8.33994C40.7996 7.84794 41.0876 7.37994 41.3396 6.92394H39.7316V6.08394H41.7836C41.9516 5.72394 42.0956 5.38794 42.2276 5.05194ZM44.6396 6.92394H42.2156C41.9996 7.29594 41.7716 7.65594 41.5316 7.99194C42.2276 8.25594 42.8996 8.53194 43.5476 8.81994C44.0876 8.31594 44.4476 7.69194 44.6396 6.92394Z" fill="#1D2129"/>
</svg>
