<svg width="23" height="12" viewBox="0 0 23 12" fill="none" xmlns="http://www.w3.org/2000/svg">
<path d="M7.65584 3.82801C7.75184 6.66001 8.61584 9.03601 10.2598 10.956L10.8958 10.32C9.98384 9.31201 9.32384 8.16001 8.91584 6.85201C9.67184 6.42001 10.2838 5.97601 10.7518 5.54401L10.2718 4.93201C9.85184 5.34001 9.33584 5.72401 8.71184 6.10801C8.53184 5.35201 8.43584 4.53601 8.42384 3.66001C9.09584 3.49201 9.74384 3.28801 10.3558 3.06001L9.91184 2.35201C8.56784 2.86801 7.15184 3.21601 5.66384 3.38401V9.75601C5.66384 9.90001 5.54384 10.008 5.31584 10.056L5.49584 10.8C6.62384 10.488 7.59584 10.188 8.42384 9.87601L8.26784 9.12001C7.67984 9.36001 7.07984 9.56401 6.47984 9.75601V4.02001C6.87584 3.96001 7.27184 3.90001 7.65584 3.82801ZM9.43184 0.0720131C8.05184 0.672013 6.14384 1.06801 3.71984 1.28401V5.56801C3.67184 7.44001 3.21584 9.06001 2.35184 10.416L2.96384 11.052C3.94784 9.54001 4.46384 7.70401 4.52384 5.56801V1.98001C6.70784 1.76401 8.53184 1.34401 9.99584 0.720013L9.43184 0.0720131ZM0.875844 0.240013L0.263844 0.828013C1.07984 1.47601 1.72784 2.07601 2.20784 2.65201L2.79584 2.05201C2.26784 1.45201 1.63184 0.840013 0.875844 0.240013ZM0.611844 3.04801L-0.000156209 3.64801C0.779844 4.29601 1.39184 4.89601 1.83584 5.47201L2.42384 4.88401C1.93184 4.27201 1.33184 3.66001 0.611844 3.04801ZM1.95584 6.39601C1.46384 7.82401 0.875844 9.22801 0.203844 10.596L1.00784 10.944C1.63184 9.61201 2.20784 8.19601 2.71184 6.69601L1.95584 6.39601ZM12.3958 1.60801V2.44801H14.7958C14.2078 3.52801 13.5598 4.44001 12.8638 5.16001L13.0558 5.95201H17.0518V7.71601H12.2158V8.55601H17.0518V11.136H17.9278V8.55601H22.4758V7.71601H17.9278V5.95201H21.6238V5.16001H17.9278V3.39601H17.0518V5.16001H13.9558C14.6038 4.36801 15.1918 3.46801 15.7318 2.44801H22.2718V1.60801H16.1518C16.3558 1.15201 16.5598 0.684013 16.7518 0.192013L15.8878 1.33514e-05C15.6718 0.564013 15.4438 1.10401 15.2158 1.60801H12.3958Z" fill="#1D2129"/>
</svg>
