<svg width="59" height="12" viewBox="0 0 59 12" fill="none" xmlns="http://www.w3.org/2000/svg">
<path d="M5.49609 2.75994H6.87609V1.81194H7.69209V2.75994H9.08409V3.46794H7.69209V4.59594H9.28809V5.31594H5.30409V4.59594H6.87609V3.46794H5.49609V2.75994ZM5.68809 6.16794H8.88009V9.22794H5.68809V6.16794ZM8.13609 8.51994V6.88794H6.43209V8.51994H8.13609ZM10.5481 0.563939V9.95994C10.5481 10.6679 10.1881 11.0279 9.46809 11.0279H8.31609L8.11209 10.2359C8.50809 10.2599 8.88009 10.2719 9.21609 10.2719C9.55209 10.2719 9.73209 10.0679 9.73209 9.67194V1.34394H4.87209V7.13994C4.84809 8.75994 4.50009 10.0799 3.80409 11.0879L3.16809 10.4999C3.74409 9.62394 4.03209 8.51994 4.05609 7.18794V0.563939H10.5481ZM1.46409 0.227939C2.22009 0.827939 2.85609 1.42794 3.37209 2.02794L2.78409 2.62794C2.30409 2.05194 1.66809 1.45194 0.864094 0.815939L1.46409 0.227939ZM9.37879e-05 3.75594H2.50809V8.75994C2.79609 8.49594 3.09609 8.21994 3.40809 7.90794L3.62409 8.75994C3.03609 9.35994 2.41209 9.89994 1.74009 10.3799L1.40409 9.61194C1.57209 9.46794 1.66809 9.31194 1.66809 9.11994V4.58394H9.37879e-05V3.75594ZM14.6281 6.68394H21.6601V7.31994C20.9881 8.13594 20.1721 8.84394 19.2001 9.41994C20.2801 9.87594 21.5281 10.1999 22.9561 10.3919L22.5841 11.1359C20.9281 10.8599 19.5241 10.4399 18.3841 9.86394C17.1721 10.4399 15.7681 10.8719 14.1841 11.1359L13.8121 10.3799C15.2041 10.1759 16.4521 9.85194 17.5321 9.39594C16.6441 8.84394 15.9121 8.18394 15.3601 7.42794H14.6281V6.68394ZM16.2721 7.42794C16.8241 8.05194 17.5081 8.57994 18.3361 9.01194C19.1761 8.56794 19.9081 8.03994 20.5321 7.42794H16.2721ZM13.9321 3.99594V4.93194C13.8841 7.47594 13.4521 9.51594 12.6361 11.0519L11.9881 10.4759C12.6841 9.14394 13.0441 7.29594 13.0681 4.93194V1.01994H17.6881C17.5441 0.707939 17.4001 0.431939 17.2321 0.167939L18.1441 0.0239391C18.2881 0.323939 18.4321 0.659939 18.5641 1.01994H22.6801V1.83594H13.9321V3.20394H15.9481V2.23194H16.7881V3.20394H19.9681V2.21994H20.8081V3.20394H22.6561V3.99594H20.8081V5.86794H15.9481V3.99594H13.9321ZM16.7881 3.99594V5.13594H19.9681V3.99594H16.7881ZM25.3081 1.95594H30.4801C30.8641 1.35594 31.2121 0.695939 31.5121 -6.12736e-05L32.3521 0.299939C32.0641 0.911939 31.7401 1.46394 31.3801 1.95594H33.6841V6.88794H29.9281V8.02794H34.8241V8.84394H29.9281V11.1239H29.0641V8.84394H24.1681V8.02794H29.0641V6.88794H25.3081V1.95594ZM32.8441 6.11994V4.77594H29.9281V6.11994H32.8441ZM29.0641 6.11994V4.77594H26.1481V6.11994H29.0641ZM26.1481 4.03194H29.0641V2.71194H26.1481V4.03194ZM29.9281 2.71194V4.03194H32.8441V2.71194H29.9281ZM27.4321 0.0599387C27.8281 0.515939 28.2001 1.03194 28.5601 1.58394L27.8401 1.94394C27.4801 1.36794 27.1081 0.863939 26.7001 0.407939L27.4321 0.0599387ZM44.9281 4.82394V7.17594H38.9401V8.00394H45.4801V11.0879H44.6281V10.5839H38.9401V11.0759H38.0761V4.82394H44.9281ZM38.9401 9.81594H44.6281V8.69994H38.9401V9.81594ZM38.9401 6.47994H44.0881V5.51994H38.9401V6.47994ZM46.5841 3.37194V5.54394H45.7441V4.11594H37.2481V5.54394H36.4081V3.37194H41.1601C41.0401 3.08394 40.9201 2.83194 40.7881 2.59194L41.6281 2.44794L41.5561 2.39994C42.1321 1.67994 42.5401 0.899939 42.8041 0.035939L43.6321 0.215939C43.5481 0.467939 43.4641 0.707939 43.3681 0.947939H46.8361V1.70394H44.7001C44.9521 2.03994 45.1561 2.35194 45.3001 2.63994L44.5321 2.92794C44.3161 2.49594 44.0641 2.08794 43.7761 1.70394H43.0201C42.8041 2.11194 42.5521 2.49594 42.2881 2.85594L41.6401 2.45994C41.7721 2.73594 41.9041 3.03594 42.0241 3.37194H46.5841ZM37.8481 1.70394C37.5601 2.17194 37.2481 2.60394 36.8881 2.99994L36.1321 2.51994C36.8521 1.77594 37.3801 0.935939 37.7161 0.0239391L38.5441 0.203939C38.4481 0.467939 38.3401 0.707939 38.2441 0.947939H41.4601V1.70394H39.4441C39.7081 2.06394 39.9361 2.41194 40.1041 2.73594L39.3121 3.03594C39.0961 2.57994 38.8321 2.13594 38.5321 1.70394H37.8481ZM52.4881 0.563939H58.3561V6.10794H55.8601V7.52394H58.5601V8.33994H55.8601V9.89994H59.0041V10.7279H51.7801V9.89994H54.9961V8.33994H52.2841V7.52394H54.9961V6.10794H52.4881V0.563939ZM57.5281 5.33994V3.71994H55.8601V5.33994H57.5281ZM54.9961 5.33994V3.71994H53.3161V5.33994H54.9961ZM53.3161 2.96394H54.9961V1.33194H53.3161V2.96394ZM55.8601 1.33194V2.96394H57.5281V1.33194H55.8601ZM48.2521 4.53594H49.5601V1.69194H48.0841V0.875939H51.9121V1.69194H50.4481V4.53594H51.7681V5.36394H50.4481V8.08794C50.9041 7.93194 51.3361 7.76394 51.7681 7.57194V8.41194C50.6641 8.86794 49.4761 9.25194 48.2041 9.56394L47.9881 8.73594C48.5161 8.63994 49.0441 8.51994 49.5601 8.37594V5.36394H48.2521V4.53594Z" fill="#1D2129"/>
</svg>
