<svg width="71" height="12" viewBox="0 0 71 12" fill="none" xmlns="http://www.w3.org/2000/svg">
<path d="M1.00826 5.02805H6.57626V9.01205H1.00826V5.02805ZM5.37626 7.90805V6.13205H2.19626V7.90805H5.37626ZM8.54426 11.0161H6.88826L6.56426 9.81605L8.26826 9.85205C8.53226 9.85205 8.66426 9.63605 8.66426 9.22805V1.57205H0.672258V0.372051H9.91226V9.57605C9.91226 10.5361 9.45626 11.0161 8.54426 11.0161ZM0.00025785 2.73605H7.66826V3.87605H0.00025785V2.73605ZM12.0123 2.20805H13.6563V5.03063e-05H14.9043V2.20805H16.2483V3.42005H14.9043V3.86405C15.4323 4.38005 15.9723 4.95605 16.5123 5.58005L15.7803 6.68405C15.4443 6.08405 15.1563 5.56805 14.9043 5.14805V11.0521H13.6563V5.61605C13.2843 6.60005 12.8283 7.51205 12.2883 8.35205L11.7483 6.98405C12.5883 5.95205 13.2003 4.76405 13.5963 3.42005H12.0123V2.20805ZM15.5043 10.2841C15.9843 9.56405 16.3323 8.79605 16.5243 8.00405C16.6803 7.32005 16.7643 6.30005 16.7643 4.94405V0.372051H20.9883V9.48005C20.9883 9.58805 21.0243 9.64805 21.1083 9.64805H21.4683C21.5643 9.64805 21.6363 9.62405 21.6843 9.57605C21.7323 9.52805 21.7563 9.45605 21.7803 9.37205C21.8283 9.20405 21.8523 8.47205 21.8523 7.20005L23.0043 7.56005C23.0043 8.47205 22.9683 9.16805 22.9203 9.62405C22.8723 10.0801 22.7523 10.3921 22.5603 10.5841C22.3683 10.7401 22.0563 10.8241 21.6363 10.8241H21.0963C20.1723 10.8241 19.7163 10.4161 19.7163 9.62405V1.54805H18.0123V4.94405C18.0123 6.30005 17.9043 7.45205 17.6883 8.41205C17.4843 9.37205 17.1003 10.3081 16.5363 11.1961L15.5043 10.2841ZM23.8323 1.87205H25.2483C25.1043 1.32005 24.9363 0.816051 24.7563 0.34805L26.0043 0.144051C26.1483 0.648051 26.2923 1.22405 26.4363 1.87205H27.7203V3.04805H23.8323V1.87205ZM25.1043 3.54005C25.2963 4.88405 25.4643 6.44405 25.6203 8.19605L24.6243 8.43605C24.4803 6.85205 24.2883 5.34005 24.0723 3.87605L25.1043 3.54005ZM27.6603 8.20805V9.40805C26.5563 9.79205 25.3683 10.1281 24.1083 10.4041L23.7843 9.18005C24.4803 9.07205 25.1643 8.92805 25.8363 8.76005C26.0523 7.08005 26.2203 5.31605 26.3283 3.44405L27.4443 3.60005C27.3123 5.35205 27.1203 6.97205 26.8803 8.46005L27.6603 8.20805ZM33.1203 2.18405V0.49205H34.3083V3.27605H28.3323V0.49205H29.5323V2.18405H30.6963V0.02405H31.9203V2.18405H33.1203ZM27.9483 3.96005H34.7763V5.11205H31.7763C31.7043 5.40005 31.6323 5.67605 31.5363 5.94005H34.5363V10.0081C34.5363 10.7041 34.2363 11.0521 33.6363 11.0521H33.0963L32.7963 9.94805L33.2763 9.98405C33.3723 9.98405 33.4323 9.91205 33.4323 9.78005V7.04405H32.7003V10.8361H31.6683V7.04405H31.0323V10.8481H30.0003V7.04405H29.3043V11.0521H28.1763V5.94005H30.3123C30.4083 5.66405 30.4803 5.38805 30.5403 5.11205H27.9483V3.96005ZM38.1723 3.68405C37.6563 3.98405 37.1283 4.26005 36.5763 4.51205L35.8443 3.45605C37.9203 2.56805 39.6003 1.41605 40.8723 0.0120502H41.8803C42.9843 1.38005 44.6523 2.53205 46.8723 3.44405L46.1523 4.50005C45.5883 4.26005 45.0603 4.00805 44.5803 3.73205V4.34405H42.0003V5.67605H46.1283V6.84005H42.0003V9.67205H43.0323C43.3923 8.92805 43.7043 8.14805 43.9803 7.32005L45.1083 7.74005C44.8563 8.46005 44.5803 9.09605 44.2923 9.67205H46.5603V10.8601H36.1803V9.67205H38.4843C38.2683 9.02405 37.9923 8.40005 37.6683 7.82405L38.8083 7.40405C39.1323 8.04005 39.4323 8.79605 39.6963 9.67205H40.7523V6.84005H36.6123V5.67605H40.7523V4.34405H38.1723V3.68405ZM43.7403 3.22805C42.8283 2.62805 42.0363 1.94405 41.3763 1.18805C40.6323 1.95605 39.8043 2.62805 38.9043 3.22805H43.7403ZM53.1603 10.9921H51.9003L51.5883 9.82805L52.7763 9.88805C53.0403 9.88805 53.1723 9.70805 53.1723 9.34805V7.89605L52.2003 8.56805C51.9723 8.06405 51.7323 7.56005 51.4683 7.03205C51.0843 7.83605 50.6403 8.54405 50.1483 9.15605L49.3923 8.20805V11.0521H48.1923V0.372051H54.3483V9.61205C54.3483 10.5241 53.9523 10.9921 53.1603 10.9921ZM49.3923 8.18405C49.9323 7.46405 50.3883 6.64805 50.7723 5.73605C50.3523 4.99205 49.8963 4.21205 49.3923 3.40805V8.18405ZM49.3923 3.30005L50.3163 2.72405C50.6523 3.27605 50.9763 3.79205 51.2763 4.29605C51.4683 3.60005 51.6363 2.85605 51.7683 2.07605L52.8603 2.26805C52.6443 3.51605 52.3683 4.64405 52.0323 5.62805C52.4763 6.44405 52.8603 7.18805 53.1723 7.86005V1.54805H49.3923V3.30005ZM55.2243 1.05605H56.4003V8.43605H55.2243V1.05605ZM57.2283 10.9921H55.5003L55.2363 9.81605C55.7883 9.86405 56.3163 9.90005 56.8083 9.90005C57.1323 9.90005 57.3003 9.73205 57.3003 9.40805V0.0360506H58.5243V9.72005C58.5243 10.5601 58.0923 10.9921 57.2283 10.9921ZM63.5283 2.34005C64.5723 3.13205 65.5443 3.92405 66.4323 4.70405C67.0323 3.90005 67.5603 2.98805 68.0043 1.96805L69.1443 2.56805C68.6403 3.70805 68.0643 4.71605 67.4043 5.58005C68.2443 6.36005 69.0243 7.12805 69.7323 7.89605L68.7603 8.88005C68.1363 8.11205 67.4043 7.34405 66.5763 6.56405C65.5683 7.60805 64.4163 8.41205 63.1203 8.96405L62.3883 7.83605C63.6123 7.33205 64.6923 6.60005 65.6043 5.66405C64.7043 4.86005 63.7083 4.04405 62.6163 3.21605L63.5283 2.34005ZM60.5883 0.44405H70.2603V1.64405H61.8003V9.43205H70.6323V10.6321H60.5883V0.44405Z" fill="black"/>
</svg>
