<svg width="47" height="11" viewBox="0 0 47 11" fill="none" xmlns="http://www.w3.org/2000/svg">
<path d="M10.7039 0.564029V1.40403H1.95595V4.95603C1.90795 7.45203 1.48795 9.45603 0.671945 10.968L-5.46575e-05 10.368C0.683945 9.07203 1.04395 7.26003 1.07995 4.95603V0.564029H10.7039ZM10.1999 4.12803C10.1759 7.33203 10.0199 9.25203 9.71995 9.88803C9.40795 10.512 8.87995 10.836 8.13595 10.836C7.75195 10.836 7.27195 10.824 6.71995 10.8L6.49195 9.98403C7.07995 10.008 7.55995 10.032 7.93195 10.044C8.53195 10.02 8.90395 9.74403 9.04795 9.19203C9.20395 8.64003 9.29995 7.21203 9.33595 4.90803H6.55195C6.40795 6.22803 6.10795 7.33203 5.65195 8.22003C5.02795 9.39603 4.01995 10.308 2.62795 10.956L2.14795 10.2C3.50395 9.54003 4.45195 8.66403 4.99195 7.58403C5.32795 6.82803 5.55595 5.94003 5.67595 4.90803H2.85595V4.12803H5.74795L5.78395 3.18003V2.01603H6.65995V3.18003L6.62395 4.12803H10.1999ZM13.2959 1.52403H17.2079V2.86102e-05H18.0839V1.52403H21.9119V5.70003H18.0359C17.9159 6.85203 17.5919 7.80003 17.0399 8.54403C18.7199 9.45603 20.6999 9.97203 22.9799 10.08L22.7519 10.932C20.3399 10.8 18.2399 10.224 16.4519 9.19203C15.5639 9.98403 14.3159 10.584 12.7199 10.992L12.2279 10.224C13.6919 9.85203 14.8319 9.33603 15.6599 8.68803C14.8679 8.14803 14.1479 7.52403 13.4999 6.80403L14.1959 6.31203C14.8199 7.00803 15.5039 7.59603 16.2719 8.08803C16.7519 7.47603 17.0399 6.68403 17.1479 5.70003H13.2959V1.52403ZM21.0599 4.87203V2.35203H18.0839V4.87203H21.0599ZM17.2079 4.87203V2.35203H14.1479V4.87203H17.2079ZM35.1359 7.64403C35.0279 8.86803 34.8599 9.67203 34.6319 10.044C34.4039 10.404 33.9479 10.596 33.2759 10.596H30.1679C29.4239 10.596 29.0519 10.212 29.0519 9.44403V4.20003H33.3239V1.40403H28.4759V0.564029H34.1519V5.02803H29.8919V9.13203C29.8919 9.54003 30.0959 9.75603 30.5039 9.76803H33.1199C33.5879 9.76803 33.8879 9.60003 34.0199 9.27603C34.1399 8.95203 34.2239 8.31603 34.2839 7.35603L35.1359 7.64403ZM25.4879 0.0960288C26.3039 0.708029 26.9879 1.32003 27.5399 1.94403L26.9519 2.54403C26.4479 1.95603 25.7519 1.33203 24.8879 0.684029L25.4879 0.0960288ZM24.0839 3.64803H26.6759V9.04803C27.1439 8.68803 27.6479 8.25603 28.1759 7.77603L28.3919 8.68803C27.6239 9.38403 26.7959 9.99603 25.9319 10.548L25.5959 9.76803C25.7639 9.62403 25.8479 9.45603 25.8479 9.26403V4.47603H24.0839V3.64803ZM37.6079 0.432029H44.5319V4.33203H46.6919V5.11203H41.9039V6.48003C42.1919 6.81603 42.4919 7.12803 42.8279 7.42803C43.6799 6.94803 44.4239 6.26403 45.0479 5.37603L45.7079 5.92803C45.0359 6.79203 44.2799 7.45203 43.4159 7.90803C44.3519 8.64003 45.4559 9.28803 46.7279 9.84003L46.2959 10.608C44.4479 9.74403 42.9839 8.68803 41.9039 7.44003V9.91203C41.9039 10.632 41.5799 10.992 40.9559 10.992H39.5759L39.3959 10.176C39.8399 10.212 40.2599 10.236 40.6679 10.236C40.9079 10.236 41.0399 10.056 41.0399 9.70803V7.51203C39.8039 8.64003 38.3279 9.64803 36.6239 10.56L36.2759 9.75603C38.1239 8.88003 39.7079 7.83603 41.0399 6.61203V5.11203H36.4079V4.33203H43.6559V3.16803H38.0159V2.41203H43.6559V1.21203H37.6079V0.432029ZM37.7039 5.56803C38.4359 6.07203 39.0479 6.58803 39.5399 7.09203L38.9879 7.65603C38.5319 7.17603 37.9199 6.66003 37.1279 6.12003L37.7039 5.56803Z" fill="#1D2129"/>
</svg>
