<svg width="47" height="12" viewBox="0 0 47 12" fill="none" xmlns="http://www.w3.org/2000/svg">
<path d="M3.02398 0.0720131V2.91601C2.18398 3.39601 1.18798 3.82801 0.0479766 4.18801L0.383977 4.96801C1.39198 4.59601 2.26798 4.18801 3.02398 3.75601V5.47201H3.89998V0.0720131H3.02398ZM4.63198 1.42801V2.20801H7.18798V3.98401H5.00398V4.76401H10.248V3.98401H8.06398V2.20801H10.584V1.42801H8.06398V0.0360129H7.18798V1.42801H4.63198ZM0.707977 0.576013L0.251977 1.24801C0.899977 1.53601 1.52398 1.93201 2.14798 2.44801L2.59198 1.76401C2.01598 1.29601 1.39198 0.900013 0.707977 0.576013ZM0.0599766 6.14401V6.93601H4.48798C3.52798 7.77601 2.03998 8.47201 -2.34246e-05 9.01201L0.443977 9.74401C1.25998 9.48001 1.99198 9.18001 2.66398 8.86801V9.87601C2.66398 10.068 2.53198 10.212 2.27998 10.308L2.45998 11.052C3.93598 10.764 5.19598 10.476 6.23998 10.164L6.09598 9.39601C5.27998 9.66001 4.40398 9.90001 3.45598 10.092V8.46001C4.24798 7.99201 4.89598 7.48801 5.39998 6.93601C6.40798 8.92801 8.03998 10.308 10.308 11.088L10.8 10.332C9.77998 10.02 8.89198 9.60001 8.13598 9.04801C8.80798 8.64001 9.38398 8.18401 9.88798 7.66801L9.27598 7.12801C8.79598 7.65601 8.20798 8.13601 7.52398 8.55601C7.00798 8.08801 6.57598 7.54801 6.21598 6.93601H10.692V6.14401H6.08398C5.87998 5.71201 5.65198 5.32801 5.41198 4.99201L4.61998 5.25601C4.83598 5.53201 5.02798 5.83201 5.19598 6.14401H0.0599766ZM12.432 1.60801V2.44801H14.832C14.244 3.52801 13.596 4.44001 12.9 5.16001L13.092 5.95201H17.088V7.71601H12.252V8.55601H17.088V11.136H17.964V8.55601H22.512V7.71601H17.964V5.95201H21.66V5.16001H17.964V3.39601H17.088V5.16001H13.992C14.64 4.36801 15.228 3.46801 15.768 2.44801H22.308V1.60801H16.188C16.392 1.15201 16.596 0.684013 16.788 0.192013L15.924 1.33514e-05C15.708 0.564013 15.48 1.10401 15.252 1.60801H12.432ZM29.616 0.0720131V1.99201H27.732V2.77201H29.616V4.76401H27.924V5.55601H29.616V7.63201H27.252V8.42401H29.616V11.064H30.444V0.0720131H29.616ZM25.236 10.956C25.932 10.956 26.292 10.62 26.292 9.94801V6.50401C26.688 6.32401 27.072 6.13201 27.456 5.92801V5.04001C27.072 5.25601 26.688 5.44801 26.292 5.64001V3.19201H27.36V2.36401H26.292V0.0960135H25.452V2.36401H24.156V3.19201H25.452V5.98801C24.948 6.18001 24.444 6.33601 23.928 6.46801L24.132 7.34401C24.576 7.20001 25.02 7.03201 25.452 6.86401V9.73201C25.452 10.02 25.272 10.164 24.936 10.164C24.624 10.164 24.288 10.14 23.94 10.116L24.132 10.956H25.236ZM31.872 0.0720131V11.064H32.712V8.42401H34.848V7.63201H32.712V5.55601H34.512V4.76401H32.712V2.77201H34.764V1.99201H32.712V0.0720131H31.872ZM36.408 0.564013V11.076H37.248V1.38001H39.192C38.88 2.38801 38.448 3.51601 37.872 4.76401C38.724 5.77201 39.156 6.68401 39.156 7.50001C39.156 7.75201 39.072 7.93201 38.928 8.04001C38.784 8.13601 38.484 8.20801 38.052 8.23201C37.932 8.23201 37.776 8.20801 37.584 8.18401L37.872 9.06001C38.712 9.04801 39.288 8.90401 39.624 8.61601C39.864 8.38801 39.996 8.01601 39.996 7.50001C39.936 6.63601 39.516 5.68801 38.736 4.63201C39.24 3.45601 39.672 2.32801 40.044 1.24801V0.564013H36.408ZM42.648 0.144013C42.636 2.47201 42.444 4.38001 42.084 5.88001C41.604 7.65601 40.632 9.14401 39.168 10.32L39.744 11.004C41.424 9.68401 42.492 7.99201 42.948 5.92801C42.996 5.72401 43.032 5.52001 43.08 5.30401C43.8 7.54801 44.88 9.43201 46.32 10.956L46.944 10.224C45.24 8.55601 44.04 6.28801 43.344 3.40801C43.44 2.42401 43.5 1.33201 43.5 0.144013H42.648Z" fill="#1D2129"/>
</svg>
