<svg width="35" height="12" viewBox="0 0 35 12" fill="none" xmlns="http://www.w3.org/2000/svg">
<path d="M2.50795 0.0239022L3.26395 0.371902C2.63995 1.6919 1.64395 2.8679 0.251945 3.8879L-5.46575e-05 3.0599C1.15195 2.1719 1.97995 1.1639 2.50795 0.0239022ZM2.95195 2.7839L3.69595 3.1319C3.40795 3.7799 3.04795 4.3919 2.61595 4.9679V11.0399H1.78795V5.9279C1.35595 6.3839 0.875945 6.8039 0.359945 7.1999L0.107945 6.3719C1.40395 5.3279 2.35195 4.1279 2.95195 2.7839ZM6.99595 0.0719016H7.82395V1.3799H10.5239V2.1599H7.82395V3.6599H11.0159V4.4519H3.86395V3.6599H6.99595V2.1599H4.31995V1.3799H6.99595V0.0719016ZM3.92395 5.9159H8.57995V5.0279H9.44395V5.9159H10.8479V6.7199H9.44395V9.8039C9.44395 10.5839 9.04795 10.9799 8.27995 10.9799H6.57595L6.38395 10.1519C6.93595 10.1879 7.47595 10.2119 7.97995 10.2119C8.37595 10.2119 8.57995 9.9959 8.57995 9.5879V6.7199H3.92395V5.9159ZM5.33995 7.1879C6.01195 7.8719 6.52795 8.4719 6.88795 8.9759L6.21595 9.4559C5.83195 8.9039 5.31595 8.2799 4.66795 7.6079L5.33995 7.1879ZM18.3239 9.0959V9.9479C16.4759 10.3319 14.4839 10.6679 12.3479 10.9319L12.1559 10.1039C13.1159 9.9959 14.0519 9.8759 14.9639 9.7319V7.4639H12.6239V6.6239H14.9639V5.2319H15.8279V6.6239H17.9879V7.4639H15.8279V9.5879C16.6799 9.4439 17.5079 9.2759 18.3239 9.0959ZM12.3119 0.623902H18.2759V1.4399H15.1919C14.6159 2.6399 14.0759 3.5399 13.5719 4.1519C14.7599 4.0319 15.8879 3.8879 16.9679 3.6959C16.7039 3.2639 16.4039 2.8319 16.0799 2.3879L16.7399 1.9559C17.5439 3.0359 18.1559 3.9839 18.5879 4.7879L17.8679 5.2919C17.7119 4.9799 17.5439 4.6679 17.3519 4.3439C15.8399 4.6079 14.1719 4.8359 12.3719 5.0159L12.1679 4.2359C12.3119 4.2119 12.4319 4.1879 12.5159 4.1519C13.0079 3.7199 13.5959 2.8199 14.2799 1.4399H12.3119V0.623902ZM21.4439 10.9919H19.6799L19.4879 10.1519C20.0639 10.1759 20.6159 10.1999 21.1439 10.1999C21.4799 10.1999 21.6599 10.0199 21.6599 9.6719V0.131902H22.5359V9.8879C22.5359 10.6199 22.1639 10.9919 21.4439 10.9919ZM19.2599 1.2119H20.0999V8.6399H19.2599V1.2119ZM29.9519 -9.82285e-05C30.1679 0.347902 30.3719 0.731902 30.5639 1.1639H34.8839V2.0039H25.9919V4.7399C25.9439 7.3919 25.5479 9.5159 24.7799 11.0999L24.0719 10.4639C24.7319 9.0959 25.0799 7.1879 25.1039 4.7399V1.1639H29.6159C29.4239 0.791902 29.2079 0.455902 28.9919 0.167902L29.9519 -9.82285e-05ZM29.1719 2.3399L29.9999 2.5319C29.8919 2.8679 29.7839 3.1799 29.6759 3.4919H34.3559V4.2479H29.3759C29.0399 5.0159 28.6799 5.6999 28.2959 6.2999H30.5399V4.8479H31.4039V6.2999H34.0799V7.0799H31.4039V8.4239H34.9919V9.2159H31.4039V11.1119H30.5399V9.2159H26.2079V8.4239H30.5399V7.0799H27.3959L27.2159 6.3359C27.6719 5.7719 28.0919 5.0759 28.4639 4.2479H26.6519V3.4919H28.7759C28.9079 3.1199 29.0399 2.7359 29.1719 2.3399Z" fill="#1D2129"/>
</svg>
