<svg width="35" height="12" viewBox="0 0 35 12" fill="none" xmlns="http://www.w3.org/2000/svg">
<path d="M2.50795 -2.36034e-05L3.26395 0.347976C2.63995 1.66798 1.64395 2.84398 0.251945 3.86398L-5.46575e-05 3.03598C1.15195 2.14798 1.97995 1.13998 2.50795 -2.36034e-05ZM2.95195 2.75998L3.69595 3.10798C3.40795 3.75598 3.04795 4.36798 2.61595 4.94398V11.016H1.78795V5.90398C1.35595 6.35998 0.875945 6.77998 0.359945 7.17598L0.107945 6.34798C1.40395 5.30398 2.35195 4.10398 2.95195 2.75998ZM6.99595 0.0479758H7.82395V1.35598H10.5239V2.13598H7.82395V3.63598H11.0159V4.42798H3.86395V3.63598H6.99595V2.13598H4.31995V1.35598H6.99595V0.0479758ZM3.92395 5.89198H8.57995V5.00398H9.44395V5.89198H10.8479V6.69598H9.44395V9.77998C9.44395 10.56 9.04795 10.956 8.27995 10.956H6.57595L6.38395 10.128C6.93595 10.164 7.47595 10.188 7.97995 10.188C8.37595 10.188 8.57995 9.97198 8.57995 9.56398V6.69598H3.92395V5.89198ZM5.33995 7.16398C6.01195 7.84798 6.52795 8.44798 6.88795 8.95198L6.21595 9.43198C5.83195 8.87998 5.31595 8.25598 4.66795 7.58398L5.33995 7.16398ZM16.6559 4.82398V5.68798C16.0919 5.93998 15.5159 6.16798 14.9399 6.38398V9.94798C14.9399 10.62 14.5799 10.968 13.8839 10.968H12.6239L12.4319 10.128C12.8399 10.152 13.2239 10.176 13.5839 10.176C13.8959 10.176 14.0519 10.02 14.0519 9.71998V6.69598C13.4279 6.88798 12.8159 7.07998 12.1919 7.24798L11.9759 6.43198C12.6719 6.27598 13.3679 6.09598 14.0519 5.87998V3.10798H12.1679V2.27998H14.0519V0.107976H14.9399V2.27998H16.4999V3.10798H14.9399V5.56798C15.5159 5.33998 16.0919 5.08798 16.6559 4.82398ZM16.8719 1.00798H22.8959V1.84798H20.9519V9.82798C20.9519 10.572 20.5919 10.944 19.8719 10.944H17.9039L17.7239 10.116C18.3719 10.14 18.9839 10.164 19.5719 10.164C19.8959 10.164 20.0639 9.97198 20.0639 9.61198V1.84798H16.8719V1.00798ZM28.5119 0.107976H29.3999V1.59598H33.2999V2.43598H29.3999V4.23598H34.8719V5.07598H29.3999V6.28798C30.8159 6.92398 32.2439 7.66798 33.6959 8.51998L33.2039 9.25198C31.6919 8.32798 30.4319 7.61998 29.3999 7.12798V11.064H28.5119V5.07598H24.2039V4.23598H28.5119V0.107976Z" fill="#1D2129"/>
</svg>
