<svg width="35" height="12" viewBox="0 0 35 12" fill="none" xmlns="http://www.w3.org/2000/svg">
<path d="M2.50795 -2.36034e-05L3.26395 0.347976C2.63995 1.66798 1.64395 2.84398 0.251945 3.86398L-5.46575e-05 3.03598C1.15195 2.14798 1.97995 1.13998 2.50795 -2.36034e-05ZM2.95195 2.75998L3.69595 3.10798C3.40795 3.75598 3.04795 4.36798 2.61595 4.94398V11.016H1.78795V5.90398C1.35595 6.35998 0.875945 6.77998 0.359945 7.17598L0.107945 6.34798C1.40395 5.30398 2.35195 4.10398 2.95195 2.75998ZM6.99595 0.0479758H7.82395V1.35598H10.5239V2.13598H7.82395V3.63598H11.0159V4.42798H3.86395V3.63598H6.99595V2.13598H4.31995V1.35598H6.99595V0.0479758ZM3.92395 5.89198H8.57995V5.00398H9.44395V5.89198H10.8479V6.69598H9.44395V9.77998C9.44395 10.56 9.04795 10.956 8.27995 10.956H6.57595L6.38395 10.128C6.93595 10.164 7.47595 10.188 7.97995 10.188C8.37595 10.188 8.57995 9.97198 8.57995 9.56398V6.69598H3.92395V5.89198ZM5.33995 7.16398C6.01195 7.84798 6.52795 8.44798 6.88795 8.95198L6.21595 9.43198C5.83195 8.87998 5.31595 8.25598 4.66795 7.58398L5.33995 7.16398ZM19.8599 3.83998C19.4759 3.91198 19.0799 3.97198 18.6839 4.03198V9.76798C19.2839 9.57598 19.8839 9.37198 20.4719 9.13198L20.6279 9.88798C19.7999 10.2 18.8279 10.5 17.6999 10.812L17.5199 10.068C17.7479 10.02 17.8679 9.91198 17.8679 9.76798V3.39598C19.3559 3.22798 20.7719 2.87998 22.1159 2.36398L22.5599 3.07198C21.9479 3.29998 21.2999 3.50398 20.6279 3.67198C20.6399 4.54798 20.7359 5.36398 20.9159 6.11998C21.5399 5.73598 22.0559 5.35198 22.4759 4.94398L22.9559 5.55598C22.4879 5.98798 21.8759 6.43198 21.1199 6.86398C21.5279 8.17198 22.1879 9.32398 23.0999 10.332L22.4639 10.968C20.8199 9.04798 19.9559 6.67198 19.8599 3.83998ZM21.6359 0.083976L22.1999 0.731976C20.7359 1.35598 18.9119 1.77598 16.7279 1.99198V5.57998C16.6679 7.71598 16.1519 9.55198 15.1679 11.064L14.5559 10.428C15.4199 9.07198 15.8759 7.45198 15.9239 5.57998V1.29598C18.3479 1.07998 20.2559 0.683976 21.6359 0.083976ZM13.0799 0.251976C13.8359 0.851976 14.4719 1.46398 14.9999 2.06398L14.4119 2.66398C13.9319 2.08798 13.2839 1.48798 12.4679 0.839976L13.0799 0.251976ZM12.8159 3.05998C13.5359 3.67198 14.1359 4.28398 14.6279 4.89598L14.0399 5.48398C13.5959 4.90798 12.9839 4.30798 12.2039 3.65998L12.8159 3.05998ZM14.1599 6.40798L14.9159 6.70798C14.4119 8.20798 13.8359 9.62398 13.2119 10.956L12.4079 10.608C13.0799 9.23998 13.6679 7.83598 14.1599 6.40798ZM25.0559 0.263976C25.8839 0.887976 26.5799 1.49998 27.1439 2.12398L26.5199 2.73598C26.0279 2.14798 25.3439 1.51198 24.4679 0.827976L25.0559 0.263976ZM32.0759 10.86C31.4159 10.86 30.6959 10.848 29.9279 10.836C29.1479 10.824 28.5119 10.752 28.0319 10.62C27.5519 10.476 27.1199 10.176 26.7479 9.74398C26.5799 9.53998 26.4239 9.44398 26.2799 9.44398C25.9919 9.44398 25.5119 9.98398 24.8519 11.088L24.2039 10.512C24.8399 9.50398 25.4039 8.89198 25.8959 8.67598V5.02798H24.1919V4.23598H26.6999V8.72398C26.7959 8.79598 26.8919 8.87998 26.9999 8.99998C27.2879 9.34798 27.5999 9.59998 27.9359 9.75598C28.3199 9.92398 28.8599 10.02 29.5799 10.044C30.2159 10.056 31.0079 10.068 31.9559 10.068C32.5079 10.068 33.0839 10.056 33.6719 10.044C34.2479 10.032 34.6919 10.02 35.0039 9.99598L34.7999 10.86H32.0759ZM27.8159 4.79998H30.7199C30.7919 4.28398 30.8399 3.69598 30.8639 3.02398H28.2239V2.23198H31.8479C32.2199 1.53598 32.5439 0.791976 32.8079 -2.36034e-05L33.6239 0.287976C33.3599 1.01998 33.0599 1.66798 32.7239 2.23198H34.2839V3.02398H31.7159C31.6919 3.69598 31.6559 4.29598 31.5839 4.79998H34.6919V5.61598H31.4279C31.0919 7.06798 30.0359 8.26798 28.2599 9.21598L27.7079 8.51998C29.2199 7.77598 30.1679 6.81598 30.5279 5.61598H27.8159V4.79998ZM29.4599 0.0959759C29.8559 0.623976 30.2279 1.21198 30.5879 1.84798L29.8559 2.20798C29.4959 1.55998 29.0999 0.971976 28.6799 0.467976L29.4599 0.0959759ZM31.9799 6.32398C32.9759 7.01998 33.8759 7.77598 34.6799 8.59198L34.0799 9.23998C33.2399 8.35198 32.3759 7.57198 31.4639 6.89998L31.9799 6.32398Z" fill="#1D2129"/>
</svg>
