<svg width="59" height="12" viewBox="0 0 59 12" fill="none" xmlns="http://www.w3.org/2000/svg">
<path d="M4.32013 0.108109V9.79211H0.000125021V10.6321H10.6801V9.79211H5.20813V4.65611H9.66013V3.81611H5.20813V0.108109H4.32013ZM20.9281 11.0161C21.7201 11.0161 22.1161 10.6081 22.1161 9.79211V0.732109H16.6681V1.52411H21.2761V9.55211C21.2761 10.0081 21.0961 10.2361 20.7481 10.2361L19.6801 10.2121L19.8961 11.0161H20.9281ZM12.5161 2.10011V11.1241H13.3561V2.10011H12.5161ZM14.2561 0.000108957L13.4641 0.348109C14.0161 0.996109 14.5081 1.74011 14.9641 2.58011L15.7441 2.17211C15.3121 1.38011 14.8081 0.660109 14.2561 0.000108957ZM29.8921 7.82411C29.5321 7.92011 29.1721 8.00411 28.8001 8.08811V1.39211H29.7241V2.06411H30.2041C30.3721 4.08011 30.9001 5.94011 31.7881 7.64411C31.1401 8.72411 30.3361 9.63611 29.3641 10.4041L29.9521 11.0761C30.8521 10.3681 31.6201 9.50411 32.2681 8.49611C32.8201 9.39611 33.4921 10.2601 34.2961 11.0881L34.8721 10.4281C34.0201 9.60011 33.3001 8.68811 32.7241 7.70411C33.5521 6.13211 34.1041 4.23611 34.3681 2.01611V1.22411H29.7241V0.576109H24.0121V1.39211H24.9601V8.82011C24.6001 8.86811 24.2401 8.92811 23.8801 8.97611L24.0841 9.81611C25.4281 9.62411 26.7121 9.39611 27.9601 9.13211V11.1121H28.8001V8.94011C29.1601 8.85611 29.5201 8.77211 29.8921 8.67611V7.82411ZM30.9961 2.06411H33.5521C33.3361 3.85211 32.8921 5.42411 32.2441 6.79211C31.5601 5.36411 31.1401 3.79211 30.9961 2.06411ZM27.9601 8.28011C27.2521 8.42411 26.5321 8.56811 25.8001 8.68811V6.64811H27.9601V8.28011ZM25.8001 5.86811V4.04411H27.9601V5.86811H25.8001ZM25.8001 3.25211V1.39211H27.9601V3.25211H25.8001ZM37.4161 1.62011C37.1881 3.62411 36.6841 5.12411 35.8921 6.12011L36.3121 6.87611C36.9361 6.20411 37.4161 5.25611 37.7761 4.04411H39.4321C39.2881 4.95611 39.0961 5.78411 38.8321 6.52811C38.4121 6.19211 37.9801 5.92811 37.5241 5.71211L37.1641 6.40811C37.6321 6.62411 38.0881 6.91211 38.5441 7.28411C37.9681 8.60411 37.1521 9.61211 36.1081 10.3321L36.5281 11.1001C38.5321 9.74411 39.7561 7.38011 40.2121 3.99611V3.25211H37.9801C38.0881 2.74811 38.1841 2.20811 38.2681 1.62011H40.5961V0.804109H36.1081V1.62011H37.4161ZM46.0441 2.35211L43.2841 2.77211V0.0841086H42.3961V2.90411L40.8001 3.15611L40.9321 3.94811L42.4201 3.72011C42.4321 4.24811 42.4681 4.75211 42.5161 5.23211L40.5001 5.56811L40.6201 6.38411L42.6241 6.04811C42.6721 6.37211 42.7201 6.68411 42.7921 6.99611C42.9121 7.57211 43.0681 8.08811 43.2601 8.56811C42.3361 9.28811 41.2801 9.84011 40.0801 10.2001L40.5841 10.8961C41.6641 10.5601 42.6721 10.0441 43.6081 9.33611C43.7041 9.54011 43.8241 9.73211 43.9441 9.92411C44.4481 10.6441 44.9881 11.0041 45.5401 11.0281C46.1041 11.0281 46.5361 10.2601 46.8241 8.73611L46.0801 8.24411C45.9001 9.49211 45.6841 10.1161 45.4441 10.1161C45.1561 10.1161 44.8201 9.81611 44.4361 9.22811C44.3641 9.10811 44.2921 8.96411 44.2321 8.82011C44.9161 8.19611 45.5521 7.46411 46.1401 6.61211L45.4681 6.16811C45.0121 6.85211 44.4961 7.46411 43.9201 8.00411C43.7761 7.57211 43.6681 7.09211 43.5721 6.56411C43.5361 6.34811 43.5001 6.13211 43.4761 5.90411L46.5001 5.40011L46.3681 4.58411L43.3921 5.08811C43.3441 4.60811 43.3201 4.11611 43.3081 3.58811L46.1641 3.14411L46.0441 2.35211ZM44.5441 0.120109L43.9081 0.516109C44.4361 1.04411 44.8441 1.52411 45.1321 1.96811L45.7921 1.51211C45.5041 1.11611 45.0841 0.648109 44.5441 0.120109ZM53.1241 2.76011H57.4801C57.2401 3.69611 56.9401 4.53611 56.5681 5.28011L57.4201 5.52011C57.8281 4.52411 58.1521 3.51611 58.4041 2.49611V1.93211H53.3641C53.4961 1.40411 53.6041 0.828109 53.7001 0.204109L52.8361 0.0721087C52.5481 2.16011 51.9121 3.80411 50.9281 4.98011L51.6481 5.48411C52.2601 4.78811 52.7521 3.87611 53.1241 2.76011ZM54.3601 3.57611C54.3361 5.13611 54.1321 6.43211 53.7481 7.45211C53.2081 8.65211 52.1281 9.66011 50.4961 10.4521L51.0601 11.1361C52.9081 10.2241 54.0841 9.04811 54.6001 7.60811C54.6961 7.34411 54.7801 7.06811 54.8521 6.76811C55.6201 8.49611 56.7721 9.93611 58.3321 11.1121L58.8961 10.4521C57.0841 9.20411 55.8241 7.51211 55.1041 5.37611C55.1641 4.82411 55.2001 4.22411 55.2001 3.57611H54.3601ZM48.6241 0.624109L47.9281 1.05611C48.8401 1.96811 49.5721 2.80811 50.1121 3.55211L50.7841 3.07211C50.2801 2.37611 49.5601 1.56011 48.6241 0.624109ZM50.0881 5.77211C49.4401 7.33211 48.6841 8.86811 47.7961 10.3681L48.6001 10.7281C49.4281 9.27611 50.1721 7.71611 50.8441 6.06011L50.0881 5.77211Z" fill="#1D2129"/>
</svg>
