<svg width="47" height="12" viewBox="0 0 47 12" fill="none" xmlns="http://www.w3.org/2000/svg">
<path d="M2.50752 3.43194H7.13952V7.70394H2.50752V3.43194ZM6.32352 6.97194V4.17594H3.31152V6.97194H6.32352ZM9.62352 0.803939V10.8959H8.78352V10.3799H0.839524V10.8959H-0.00047648V0.803939H9.62352ZM0.839524 9.61194H8.78352V1.57194H0.839524V9.61194ZM12.6235 1.95594H17.7955C18.1795 1.35594 18.5275 0.695939 18.8275 -6.12736e-05L19.6675 0.299939C19.3795 0.911939 19.0555 1.46394 18.6955 1.95594H20.9995V6.88794H17.2435V8.02794H22.1395V8.84394H17.2435V11.1239H16.3795V8.84394H11.4835V8.02794H16.3795V6.88794H12.6235V1.95594ZM20.1595 6.11994V4.77594H17.2435V6.11994H20.1595ZM16.3795 6.11994V4.77594H13.4635V6.11994H16.3795ZM13.4635 4.03194H16.3795V2.71194H13.4635V4.03194ZM17.2435 2.71194V4.03194H20.1595V2.71194H17.2435ZM14.7475 0.0599387C15.1435 0.515939 15.5155 1.03194 15.8755 1.58394L15.1555 1.94394C14.7955 1.36794 14.4235 0.863939 14.0155 0.407939L14.7475 0.0599387ZM27.8035 0.0839391H28.6915V3.79194H33.1435V4.63194H28.6915V9.76794H34.1635V10.6079H23.4835V9.76794H27.8035V0.0839391ZM36.8155 4.39194C36.4195 4.91994 35.9875 5.43594 35.5195 5.91594L35.2435 4.99194C36.5155 3.56394 37.4515 1.91994 38.0395 0.0719392L38.8555 0.455939C38.5435 1.37994 38.1595 2.25594 37.6795 3.08394V11.1119H36.8155V4.39194ZM39.0115 1.61994H41.3515L41.7115 0.0719392L42.5515 0.155939C42.4315 0.659939 42.3235 1.15194 42.2155 1.61994H45.8395V2.45994H41.9995C41.8675 2.93994 41.7355 3.40794 41.5915 3.85194H46.3315V4.67994H41.3155C41.1235 5.23194 40.9195 5.73594 40.7275 6.20394H45.6595V6.94794C45.1555 7.78794 44.3515 8.62794 43.2475 9.46794C43.8115 9.76794 44.3515 10.0919 44.8795 10.4399L44.3875 11.1839C42.9235 10.1759 41.4115 9.38394 39.8755 8.80794L40.3315 8.13594C41.0755 8.42394 41.7955 8.73594 42.4915 9.07194C43.4395 8.41194 44.1835 7.72794 44.7355 7.00794H39.5995C39.9115 6.26394 40.2115 5.48394 40.4875 4.67994H38.4835V3.85194H40.7515C40.8955 3.38394 41.0275 2.91594 41.1475 2.45994H39.0115V1.61994Z" fill="#1D2129"/>
</svg>
