<svg width="47" height="12" viewBox="0 0 47 12" fill="none" xmlns="http://www.w3.org/2000/svg">
<path d="M1.51213 4.14009V6.14409H3.44413V4.14009H1.51213ZM3.44413 3.36009V1.33209H1.51213V3.36009H3.44413ZM1.50013 6.92409C1.42813 8.60409 1.14013 9.98409 0.648125 11.0641L0.000125021 10.4641C0.480125 9.38409 0.720125 7.99209 0.732125 6.31209V0.552087H4.23613V9.91209C4.23613 10.6321 3.90013 11.0041 3.22813 11.0041H2.26813L2.06413 10.2361C2.40013 10.2601 2.70013 10.2841 2.98813 10.2841C3.28813 10.2841 3.44413 10.0681 3.44413 9.63609V6.92409H1.50013ZM6.06013 5.73609V11.0521H5.24413V0.540087H10.1041C10.1041 2.02809 10.0321 3.01209 9.88813 3.49209C9.74413 3.98409 9.30013 4.23609 8.54413 4.23609H7.57213L7.34413 3.49209C7.54813 3.49209 7.81213 3.50409 8.14813 3.50409C8.43613 3.50409 8.64013 3.48009 8.78413 3.44409C8.92813 3.39609 9.03613 3.27609 9.10813 3.09609C9.19213 2.83209 9.24013 2.24409 9.26413 1.33209H6.06013V4.96809H10.1401V5.70009C9.91213 6.93609 9.51613 7.99209 8.96413 8.85609C9.50413 9.38409 10.1401 9.85209 10.8721 10.2721L10.4401 11.0041C9.67213 10.5601 9.02413 10.0681 8.47213 9.52809C7.94413 10.1401 7.33213 10.6321 6.61213 11.0161L6.15613 10.3201C6.84013 9.94809 7.41613 9.48009 7.89613 8.90409C7.12813 7.96809 6.61213 6.91209 6.34813 5.73609H6.06013ZM7.09213 5.73609C7.34413 6.66009 7.77613 7.48809 8.38813 8.23209C8.83213 7.51209 9.15613 6.68409 9.37213 5.73609H7.09213ZM15.4561 8.72612e-05L16.3321 0.120087C16.2001 0.444087 16.0441 0.744088 15.8761 1.03209H21.1081V1.72809C20.3401 2.61609 19.4041 3.37209 18.3001 3.99609C19.6561 4.57209 21.1681 4.94409 22.8361 5.11209L22.4401 5.91609C20.5441 5.70009 18.8521 5.22009 17.3641 4.47609C15.9001 5.14809 14.1841 5.64009 12.2401 5.94009L11.8441 5.12409C13.5841 4.88409 15.1081 4.50009 16.4281 3.97209C15.7561 3.57609 15.1321 3.12009 14.5561 2.61609C14.1001 3.02409 13.6081 3.39609 13.0561 3.73209L12.5281 3.03609C13.9681 2.20809 14.9521 1.20009 15.4561 8.72612e-05ZM17.3521 3.55209C18.3241 3.07209 19.1641 2.49609 19.8721 1.84809H15.2881L15.1321 2.04009C15.8041 2.62809 16.5481 3.13209 17.3521 3.55209ZM16.6201 5.34009H17.4721C17.4721 5.82009 17.4241 6.27609 17.3521 6.70809H21.5761C21.5521 8.73609 21.3721 9.94809 21.0241 10.3441C20.6761 10.7401 20.0761 10.9441 19.2241 10.9441C18.8401 10.9441 18.3721 10.9201 17.8201 10.8961L17.6041 10.1161L19.0201 10.1761C19.7401 10.1641 20.1841 10.0081 20.3761 9.72009C20.5561 9.43209 20.6641 8.68809 20.7001 7.48809H17.1481C17.0521 7.80009 16.9201 8.10009 16.7641 8.38809C16.1521 9.46809 14.7481 10.3681 12.5401 11.0641L11.9641 10.3561C13.9321 9.78009 15.2401 9.04809 15.8641 8.17209C16.0081 7.95609 16.1401 7.72809 16.2361 7.48809H12.6601V6.70809H16.4761C16.5721 6.27609 16.6201 5.82009 16.6201 5.34009ZM27.1921 4.50009H26.3401V4.62009C26.2561 7.28409 25.6441 9.42009 24.5041 11.0041L23.8921 10.3681C24.8761 8.97609 25.4041 7.06809 25.4761 4.62009V0.912088C28.4761 0.876087 31.1761 0.624088 33.5761 0.156087L33.9841 0.900087C31.7041 1.33209 29.1601 1.58409 26.3401 1.65609V3.68409H33.5641V4.45209C33.1081 5.98809 32.2681 7.30809 31.0561 8.41209C32.0881 9.13209 33.3361 9.76809 34.8001 10.3201L34.3321 11.0761C32.7721 10.4521 31.4761 9.73209 30.4321 8.94009C29.3281 9.79209 27.9601 10.5001 26.3521 11.0761L25.8721 10.3441C27.4081 9.81609 28.7041 9.15609 29.7481 8.38809C28.4761 7.24809 27.6241 5.95209 27.1921 4.50009ZM30.3721 7.88409C31.4761 6.91209 32.2441 5.78409 32.6881 4.50009H28.0081C28.4161 5.77209 29.2081 6.90009 30.3721 7.88409ZM40.6801 0.696088H42.9241V0.0240877H43.7641V0.696088H46.0321V3.04809H43.7641V3.80409H46.6681V4.54809H40.0201V3.80409H42.9241V3.04809H40.6801V0.696088ZM45.2761 2.36409V1.39209H43.7641V2.36409H45.2761ZM42.9241 2.36409V1.39209H41.4361V2.36409H42.9241ZM45.8881 5.34009V8.90409H45.0841V6.06009H41.5081V8.90409H40.7041V5.34009H45.8881ZM44.1841 8.95209C45.1201 9.32409 45.9841 9.78009 46.7641 10.3321L46.2961 11.0521C45.4681 10.4281 44.6161 9.93609 43.7521 9.57609L44.1841 8.95209ZM42.8281 6.52809H43.6681V7.70409C43.6321 8.61609 43.3441 9.34809 42.7921 9.90009C42.2641 10.4041 41.3881 10.8121 40.1761 11.1001L39.7081 10.3681C40.8721 10.1281 41.6881 9.79209 42.1561 9.38409C42.5761 8.95209 42.8041 8.38809 42.8281 7.70409V6.52809ZM37.5721 2.86809C37.2361 3.85209 36.8041 4.68009 36.2881 5.35209L35.7481 4.69209C36.5401 3.56409 37.0681 2.04009 37.3561 0.120087L38.1961 0.264087C38.0881 0.912088 37.9561 1.51209 37.8121 2.07609H40.0201V2.74809C39.7081 3.46809 39.3721 4.08009 39.0001 4.58409L38.3761 4.09209C38.6401 3.73209 38.8801 3.32409 39.1081 2.86809H37.5721ZM37.5121 4.44009H38.3401V9.66009C38.8441 9.38409 39.3481 9.01209 39.8641 8.54409L40.0201 9.34809C39.3241 9.92409 38.5081 10.4041 37.5841 10.7761L37.2361 10.0441C37.4161 9.93609 37.5121 9.78009 37.5121 9.56409V4.44009Z" fill="#1D2129"/>
</svg>
