<svg width="47" height="12" viewBox="0 0 47 12" fill="none" xmlns="http://www.w3.org/2000/svg">
<path d="M5.1478 0.179923C3.7798 1.78792 2.0638 3.11992 -0.000203103 4.19992L0.623797 5.32792C2.6878 4.19992 4.3438 2.85592 5.5918 1.31992C6.9478 2.95192 8.5918 4.28392 10.5238 5.30392L11.1478 4.18792C9.2158 3.20392 7.5118 1.87192 6.0358 0.179923H5.1478ZM7.4158 5.44792V6.74392C7.4158 7.15192 7.2718 7.36792 7.0078 7.36792C6.5878 7.36792 6.0838 7.34392 5.4958 7.29592L5.8318 8.47192C6.3598 8.49592 6.9238 8.51992 7.5238 8.51992C8.2678 8.47192 8.6518 8.02792 8.6638 7.18792V4.30792H2.4238V9.67192C2.4238 10.5719 2.8558 11.0279 3.7318 11.0279H7.9318C8.8078 11.0279 9.3958 10.9079 9.6958 10.6799C9.9958 10.4519 10.2238 9.70792 10.3678 8.45992L9.2158 8.07592C9.1198 8.81992 8.9878 9.29992 8.8318 9.52792C8.6638 9.75592 8.2438 9.87592 7.5598 9.87592H4.3078C3.8998 9.87592 3.6958 9.64792 3.6958 9.20392V5.44792H7.4158ZM18.2278 0.035923L16.8238 0.275923C17.0158 0.515923 17.1838 0.779923 17.3398 1.06792H12.9598V4.81192C12.9358 7.13992 12.6238 8.96392 12.0238 10.2719L13.0918 11.2199C13.8118 9.61192 14.1958 7.47592 14.2318 4.81192V2.29192H22.9798V1.06792H18.7438C18.5758 0.683923 18.3958 0.347923 18.2278 0.035923ZM17.0398 2.39992C16.9198 2.73592 16.8118 3.07192 16.6918 3.39592H14.6998V4.48792H16.2358C15.8998 5.18392 15.5518 5.77192 15.1798 6.23992L15.4438 7.34392H18.3958V8.30392H14.2558V9.44392H18.3958V11.2439H19.6438V9.44392H23.0878V8.30392H19.6438V7.34392H22.1998V6.21592H19.6438V4.95592H18.3958V6.21592H16.7038C17.0158 5.71192 17.3038 5.13592 17.5798 4.48792H22.4518V3.39592H17.9998C18.0718 3.15592 18.1558 2.91592 18.2278 2.67592L17.0398 2.39992ZM24.1438 3.62392V4.82392H27.1558C26.9038 5.63992 26.6398 6.44392 26.3518 7.21192H32.1238C31.5598 7.82392 30.7798 8.43592 29.7958 9.03592C29.0518 8.79592 28.2718 8.57992 27.4558 8.37592L26.7958 9.35992C28.6678 9.82792 30.4798 10.4759 32.2558 11.3039L32.9518 10.2239C32.3758 9.97192 31.7878 9.73192 31.1638 9.51592C32.2798 8.71192 33.1078 7.91992 33.6358 7.13992V6.05992H28.1398C28.2718 5.67592 28.4038 5.25592 28.5358 4.82392H35.0398V3.62392H28.8598C28.9438 3.26392 29.0278 2.90392 29.1118 2.51992H34.3198V1.35592H29.3638C29.4358 0.947923 29.5198 0.539924 29.5918 0.107924L28.3078 -7.65324e-05C28.2118 0.455923 28.1278 0.899923 28.0318 1.35592H24.9718V2.51992H27.7678C27.6718 2.87992 27.5878 3.25192 27.4918 3.62392H24.1438ZM39.7558 2.45992L38.8438 3.33592C39.9358 4.16392 40.9318 4.97992 41.8318 5.78392C40.9198 6.71992 39.8398 7.45192 38.6158 7.95592L39.3478 9.08392C40.6438 8.53192 41.7958 7.72792 42.8038 6.68392C43.6318 7.46392 44.3638 8.23192 44.9878 8.99992L45.9598 8.01592C45.2518 7.24792 44.4718 6.47992 43.6318 5.69992C44.2918 4.83592 44.8678 3.82792 45.3718 2.68792L44.2318 2.08792C43.7878 3.10792 43.2598 4.01992 42.6598 4.82392C41.7718 4.04392 40.7998 3.25192 39.7558 2.45992ZM36.8158 0.563923V10.7519H46.8598V9.55192H38.0278V1.76392H46.4878V0.563923H36.8158Z" fill="black"/>
</svg>
