<svg width="47" height="12" viewBox="0 0 47 12" fill="none" xmlns="http://www.w3.org/2000/svg">
<path d="M0.743578 0.203939C1.55958 0.839939 2.25558 1.46394 2.81958 2.08794L2.20758 2.69994C1.70358 2.09994 1.01958 1.46394 0.143578 0.767939L0.743578 0.203939ZM7.75158 10.8719C7.10358 10.8719 6.40758 10.8599 5.65158 10.8479C4.89558 10.8359 4.27158 10.7639 3.79158 10.6319C3.33558 10.4879 2.91558 10.1879 2.54358 9.75594C2.38758 9.55194 2.23158 9.45594 2.08758 9.45594C1.79958 9.45594 1.31958 10.0079 0.647578 11.1119L-0.000421822 10.5239C0.647578 9.51594 1.21158 8.90394 1.71558 8.68794V5.03994H-0.000421822V4.24794H2.51958V8.74794C2.61558 8.81994 2.69958 8.90394 2.79558 9.01194C3.08358 9.35994 3.38358 9.61194 3.71958 9.76794C4.07958 9.93594 4.61958 10.0319 5.31558 10.0559C5.93958 10.0679 6.70758 10.0799 7.63158 10.0799C8.20758 10.0799 8.79558 10.0679 9.39558 10.0559C9.97158 10.0439 10.4276 10.0319 10.7516 10.0079L10.5356 10.8719H7.75158ZM4.16358 0.767939H9.67158V1.55994H4.16358V0.767939ZM3.43158 3.49194H10.5476V4.31994H6.80358C6.14358 6.02394 5.55558 7.23594 5.02758 7.95594C6.58758 7.78794 7.87158 7.57194 8.89158 7.33194C8.60358 6.65994 8.27958 6.01194 7.93158 5.38794L8.63958 5.15994C9.28758 6.26394 9.86358 7.52394 10.3676 8.93994L9.59958 9.14394C9.47958 8.77194 9.34758 8.41194 9.20358 8.07594C7.88358 8.38794 6.15558 8.63994 4.01958 8.84394L3.80358 8.08794C4.30758 7.94394 5.01558 6.68394 5.95158 4.31994H3.43158V3.49194ZM13.0796 1.95594H18.2516C18.6356 1.35594 18.9836 0.695939 19.2836 -6.12736e-05L20.1236 0.299939C19.8356 0.911939 19.5116 1.46394 19.1516 1.95594H21.4556V6.88794H17.6996V8.02794H22.5956V8.84394H17.6996V11.1239H16.8356V8.84394H11.9396V8.02794H16.8356V6.88794H13.0796V1.95594ZM20.6156 6.11994V4.77594H17.6996V6.11994H20.6156ZM16.8356 6.11994V4.77594H13.9196V6.11994H16.8356ZM13.9196 4.03194H16.8356V2.71194H13.9196V4.03194ZM17.6996 2.71194V4.03194H20.6156V2.71194H17.6996ZM15.2036 0.0599387C15.5996 0.515939 15.9716 1.03194 16.3316 1.58394L15.6116 1.94394C15.2516 1.36794 14.8796 0.863939 14.4716 0.407939L15.2036 0.0599387ZM28.8236 0.035939H29.7116V2.19594H34.0196V7.83594H33.1556V7.07994H29.7116V11.1719H28.8236V7.07994H25.3916V7.83594H24.5276V2.19594H28.8236V0.035939ZM25.3916 6.23994H28.8236V3.03594H25.3916V6.23994ZM29.7116 6.23994H33.1556V3.03594H29.7116V6.23994ZM42.8036 10.6919H40.1276C39.2876 10.6919 38.8796 10.2839 38.8796 9.47994V2.59194H39.7436V9.29994C39.7436 9.65994 39.9596 9.83994 40.3916 9.83994H42.6476C42.9356 9.83994 43.1396 9.71994 43.2596 9.49194C43.4036 9.20394 43.5116 8.36394 43.5716 6.95994L44.3876 7.23594C44.2916 8.87994 44.1236 9.87594 43.8716 10.2359C43.6436 10.5359 43.2836 10.6919 42.8036 10.6919ZM37.1036 3.87594L37.9316 4.04394C37.5956 6.10794 37.1156 7.88394 36.4916 9.37194L35.7476 8.90394C36.3716 7.37994 36.8156 5.69994 37.1036 3.87594ZM44.8316 3.50394C45.5996 5.06394 46.2596 6.71994 46.8356 8.48394L46.0436 8.84394C45.4196 6.93594 44.7356 5.24394 43.9916 3.77994L44.8316 3.50394ZM40.5116 0.131939C41.6156 1.29594 42.4676 2.31594 43.0556 3.19194L42.3356 3.68394C41.7116 2.74794 40.8716 1.70394 39.7916 0.575939L40.5116 0.131939Z" fill="#1D2129"/>
</svg>
