<svg width="47" height="12" viewBox="0 0 47 12" fill="none" xmlns="http://www.w3.org/2000/svg">
<path d="M0.743578 0.203939C1.55958 0.839939 2.25558 1.46394 2.81958 2.08794L2.20758 2.69994C1.70358 2.09994 1.01958 1.46394 0.143578 0.767939L0.743578 0.203939ZM7.75158 10.8719C7.10358 10.8719 6.40758 10.8599 5.65158 10.8479C4.89558 10.8359 4.27158 10.7639 3.79158 10.6319C3.33558 10.4879 2.91558 10.1879 2.54358 9.75594C2.38758 9.55194 2.23158 9.45594 2.08758 9.45594C1.79958 9.45594 1.31958 10.0079 0.647578 11.1119L-0.000421822 10.5239C0.647578 9.51594 1.21158 8.90394 1.71558 8.68794V5.03994H-0.000421822V4.24794H2.51958V8.74794C2.61558 8.81994 2.69958 8.90394 2.79558 9.01194C3.08358 9.35994 3.38358 9.61194 3.71958 9.76794C4.07958 9.93594 4.61958 10.0319 5.31558 10.0559C5.93958 10.0679 6.70758 10.0799 7.63158 10.0799C8.20758 10.0799 8.79558 10.0679 9.39558 10.0559C9.97158 10.0439 10.4276 10.0319 10.7516 10.0079L10.5356 10.8719H7.75158ZM4.16358 0.767939H9.67158V1.55994H4.16358V0.767939ZM3.43158 3.49194H10.5476V4.31994H6.80358C6.14358 6.02394 5.55558 7.23594 5.02758 7.95594C6.58758 7.78794 7.87158 7.57194 8.89158 7.33194C8.60358 6.65994 8.27958 6.01194 7.93158 5.38794L8.63958 5.15994C9.28758 6.26394 9.86358 7.52394 10.3676 8.93994L9.59958 9.14394C9.47958 8.77194 9.34758 8.41194 9.20358 8.07594C7.88358 8.38794 6.15558 8.63994 4.01958 8.84394L3.80358 8.08794C4.30758 7.94394 5.01558 6.68394 5.95158 4.31994H3.43158V3.49194ZM13.0796 1.95594H18.2516C18.6356 1.35594 18.9836 0.695939 19.2836 -6.12736e-05L20.1236 0.299939C19.8356 0.911939 19.5116 1.46394 19.1516 1.95594H21.4556V6.88794H17.6996V8.02794H22.5956V8.84394H17.6996V11.1239H16.8356V8.84394H11.9396V8.02794H16.8356V6.88794H13.0796V1.95594ZM20.6156 6.11994V4.77594H17.6996V6.11994H20.6156ZM16.8356 6.11994V4.77594H13.9196V6.11994H16.8356ZM13.9196 4.03194H16.8356V2.71194H13.9196V4.03194ZM17.6996 2.71194V4.03194H20.6156V2.71194H17.6996ZM15.2036 0.0599387C15.5996 0.515939 15.9716 1.03194 16.3316 1.58394L15.6116 1.94394C15.2516 1.36794 14.8796 0.863939 14.4716 0.407939L15.2036 0.0599387ZM32.6996 4.82394V7.17594H26.7116V8.00394H33.2516V11.0879H32.3996V10.5839H26.7116V11.0759H25.8476V4.82394H32.6996ZM26.7116 9.81594H32.3996V8.69994H26.7116V9.81594ZM26.7116 6.47994H31.8596V5.51994H26.7116V6.47994ZM34.3556 3.37194V5.54394H33.5156V4.11594H25.0196V5.54394H24.1796V3.37194H28.9316C28.8116 3.08394 28.6916 2.83194 28.5596 2.59194L29.3996 2.44794L29.3276 2.39994C29.9036 1.67994 30.3116 0.899939 30.5756 0.035939L31.4036 0.215939C31.3196 0.467939 31.2356 0.707939 31.1396 0.947939H34.6076V1.70394H32.4716C32.7236 2.03994 32.9276 2.35194 33.0716 2.63994L32.3036 2.92794C32.0876 2.49594 31.8356 2.08794 31.5476 1.70394H30.7916C30.5756 2.11194 30.3236 2.49594 30.0596 2.85594L29.4116 2.45994C29.5436 2.73594 29.6756 3.03594 29.7956 3.37194H34.3556ZM25.6196 1.70394C25.3316 2.17194 25.0196 2.60394 24.6596 2.99994L23.9036 2.51994C24.6236 1.77594 25.1516 0.935939 25.4876 0.0239391L26.3156 0.203939C26.2196 0.467939 26.1116 0.707939 26.0156 0.947939H29.2316V1.70394H27.2156C27.4796 2.06394 27.7076 2.41194 27.8756 2.73594L27.0836 3.03594C26.8676 2.57994 26.6036 2.13594 26.3036 1.70394H25.6196ZM40.2596 0.563939H46.1276V6.10794H43.6316V7.52394H46.3316V8.33994H43.6316V9.89994H46.7756V10.7279H39.5516V9.89994H42.7676V8.33994H40.0556V7.52394H42.7676V6.10794H40.2596V0.563939ZM45.2996 5.33994V3.71994H43.6316V5.33994H45.2996ZM42.7676 5.33994V3.71994H41.0876V5.33994H42.7676ZM41.0876 2.96394H42.7676V1.33194H41.0876V2.96394ZM43.6316 1.33194V2.96394H45.2996V1.33194H43.6316ZM36.0236 4.53594H37.3316V1.69194H35.8556V0.875939H39.6836V1.69194H38.2196V4.53594H39.5396V5.36394H38.2196V8.08794C38.6756 7.93194 39.1076 7.76394 39.5396 7.57194V8.41194C38.4356 8.86794 37.2476 9.25194 35.9756 9.56394L35.7596 8.73594C36.2876 8.63994 36.8156 8.51994 37.3316 8.37594V5.36394H36.0236V4.53594Z" fill="#1D2129"/>
</svg>
