<svg width="16" height="16" viewBox="0 0 16 16" fill="none" xmlns="http://www.w3.org/2000/svg">
<g clip-path="url(#clip0_693_20008)">
<path d="M6.22261 2.66675H3.66697C3.1147 2.66675 2.66699 3.11446 2.66699 3.66673V6.22237M9.77823 2.66675H12.3339C12.8861 2.66675 13.3338 3.11446 13.3338 3.66673V6.22237M13.3338 9.77798V12.3336C13.3338 12.8859 12.8861 13.3336 12.3339 13.3336H9.77823M2.66699 9.77798V12.3336C2.66699 12.8859 3.1147 13.3336 3.66697 13.3336H6.22261" stroke="#BFC5CC" stroke-width="0.999982"/>
<rect x="5.99902" y="6" width="4.00007" height="1.33336" transform="rotate(90 5.99902 6)" fill="#BFC5CC"/>
<rect x="7.66602" y="6" width="4.00007" height="1.00002" transform="rotate(90 7.66602 6)" fill="#BFC5CC"/>
<rect x="9.33203" y="6" width="3.9996" height="0.999982" transform="rotate(90 9.33203 6)" fill="#BFC5CC"/>
<rect x="11.333" y="6" width="4.00007" height="1.33336" transform="rotate(90 11.333 6)" fill="#BFC5CC"/>
</g>
<defs>
<clipPath id="clip0_693_20008">
<rect width="16" height="16" fill="white"/>
</clipPath>
</defs>
</svg>
