<svg width="87" height="32" viewBox="0 0 87 32" fill="none" xmlns="http://www.w3.org/2000/svg">
<rect x="0.250648" y="0.250648" width="86.4987" height="31.4987" rx="15.7494" fill="white" fill-opacity="0.6" stroke="#E9E9E9" stroke-width="0.501295"/>
<path fill-rule="evenodd" clip-rule="evenodd" d="M65.4999 25.0001C70.4704 25.0001 74.4999 20.9706 74.4999 16.0001C74.4999 11.0295 70.4704 7.00006 65.4999 7.00006C60.5293 7.00006 56.4999 11.0295 56.4999 16.0001C56.4999 20.9706 60.5293 25.0001 65.4999 25.0001ZM65.5 23.0001C61.634 23.0001 58.5 19.8661 58.5 16.0001C58.5 12.1341 61.634 9.00007 65.5 9.00007C69.366 9.00007 72.5 12.1341 72.5 16.0001C72.5 19.8661 69.366 23.0001 65.5 23.0001ZM65.4999 19.5001C67.4329 19.5001 68.9999 17.9331 68.9999 16.0001C68.9999 14.0671 67.4329 12.5001 65.4999 12.5001C63.5669 12.5001 61.9999 14.0671 61.9999 16.0001C61.9999 17.9331 63.5669 19.5001 65.4999 19.5001Z" fill="black"/>
<rect x="43" y="6.00002" width="0.5" height="20" fill="#E9E9E9"/>
<path fill-rule="evenodd" clip-rule="evenodd" d="M22.9999 19.5001C24.9329 19.5001 26.4999 17.9331 26.4999 16.0001C26.4999 14.0671 24.9329 12.5001 22.9999 12.5001C21.0669 12.5001 19.4999 14.0671 19.4999 16.0001C19.4999 17.9331 21.0669 19.5001 22.9999 19.5001ZM17.5 16C17.5 17.1046 16.6046 18 15.5 18C14.3954 18 13.5 17.1046 13.5 16C13.5 14.8955 14.3954 14 15.5 14C16.6046 14 17.5 14.8955 17.5 16ZM32.5 16.0001C32.5 17.1047 31.6046 18.0001 30.5 18.0001C29.3954 18.0001 28.5 17.1047 28.5 16.0001C28.5 14.8955 29.3954 14.0001 30.5 14.0001C31.6046 14.0001 32.5 14.8955 32.5 16.0001Z" fill="#333333"/>
</svg>
