<svg width="47" height="12" viewBox="0 0 47 12" fill="none" xmlns="http://www.w3.org/2000/svg">
<path d="M5.65168 5.61611V9.34811H10.2597V5.61611H5.65168ZM9.46768 8.59211H6.41968V6.38411H9.46768V8.59211ZM0.47968 1.72811V2.49611H2.30368V4.27211H0.33568V5.06411H2.55568V9.12011C2.14768 8.77211 1.78768 8.30411 1.47568 7.71611C1.54768 7.14011 1.59568 6.54011 1.61968 5.91611L0.87568 5.83211C0.82768 7.56011 0.52768 9.13211 -0.000320271 10.5241L0.62368 11.0881C0.91168 10.3801 1.12768 9.62411 1.29568 8.80811C1.79968 9.56411 2.38768 10.0921 3.03568 10.3921C3.77968 10.7281 5.65168 10.9081 8.63968 10.9081H10.7757L10.9197 10.0441C10.3797 10.0681 9.55168 10.0801 8.44768 10.0921C5.90368 10.0921 4.27168 9.96011 3.56368 9.72011C3.50368 9.69611 3.44368 9.67211 3.37168 9.63611V7.54811H4.91968V6.75611H3.37168V5.06411H4.90768V4.27211H3.13168V2.49611H4.93168V1.72811H3.13168V0.0961092H2.30368V1.72811H0.47968ZM6.99568 1.48811C6.87568 2.16011 6.68368 2.70011 6.43168 3.12011C6.14368 3.57611 5.71168 3.99611 5.13568 4.38011L5.69968 5.08811C6.34768 4.63211 6.83968 4.10411 7.17568 3.51611C7.43968 3.01211 7.64368 2.34011 7.79968 1.48811H9.59968C9.58768 2.72411 9.52768 3.48011 9.43168 3.76811C9.33568 4.06811 9.10768 4.22411 8.73568 4.23611L7.85968 4.17611L8.07568 4.93211C8.41168 4.95611 8.68768 4.98011 8.92768 4.98011C9.47968 4.98011 9.86368 4.77611 10.0797 4.36811C10.3077 3.96011 10.4277 2.73611 10.4277 0.696109H5.33968V1.48811H6.99568ZM12.9717 0.144109V1.48811H12.2277V2.29211H12.9717V7.36811H12.0957V8.18411H17.7717V7.36811H16.9917V2.29211H17.7117V1.48811H16.9917V0.168109H16.1517V1.48811H13.8117V0.144109H12.9717ZM13.8117 7.36811V6.19211H16.1517V7.36811H13.8117ZM16.1517 2.29211V3.49211H13.8117V2.29211H16.1517ZM13.8117 5.43611V4.24811H16.1517V5.43611H13.8117ZM15.9357 8.49611L15.2637 8.91611C15.8037 9.63611 16.2357 10.3081 16.5477 10.9201L17.1837 10.4641C17.1717 10.4881 17.1597 10.5121 17.1357 10.5361L17.7957 11.1481C18.5877 10.0921 19.0677 8.78411 19.2357 7.20011H21.5637V9.66011C21.5637 10.0201 21.4077 10.2001 21.0957 10.2001C20.7117 10.2001 20.3037 10.1761 19.8597 10.1521L20.0997 11.0041H21.3717C22.0677 11.0041 22.4277 10.6561 22.4277 9.97211V0.564109H18.4437V6.18011C18.4197 7.86011 18.0237 9.26411 17.2317 10.3801C16.9317 9.85211 16.4997 9.21611 15.9357 8.49611ZM13.5957 8.48411C13.1517 9.30011 12.6237 9.99611 12.0237 10.5841L12.7077 11.0761C13.3077 10.4401 13.8357 9.68411 14.2917 8.82011L13.5957 8.48411ZM19.2957 4.27211H21.5637V6.40811H19.2837C19.2837 6.31211 19.2957 6.21611 19.2957 6.10811V4.27211ZM21.5637 3.48011H19.2957V1.38011H21.5637V3.48011ZM28.9677 0.600109V1.41611H31.6317C31.5837 1.87211 31.5117 2.32811 31.4157 2.76011H29.4117V8.41211H30.2277V3.52811H33.6957V8.41211H34.5117V2.76011H32.2437C32.3397 2.32811 32.4237 1.88411 32.4837 1.41611H34.9197V0.600109H28.9677ZM32.8077 8.41211L32.2557 8.95211C33.1797 9.70811 33.9117 10.4281 34.4397 11.1001L35.0397 10.5001C34.4397 9.80411 33.6957 9.10811 32.8077 8.41211ZM31.5117 4.21211V6.37211C31.4877 7.40411 31.2597 8.23211 30.8517 8.88011C30.3957 9.50411 29.5917 9.99611 28.4517 10.3681L28.9197 11.1001C30.1077 10.6921 30.9597 10.1401 31.4877 9.43211C32.0277 8.67611 32.3157 7.65611 32.3517 6.37211V4.21211H31.5117ZM25.2837 2.11211L24.6477 2.50811C25.2957 3.13211 25.8597 3.73211 26.3277 4.28411H23.9997V5.08811H25.7277V9.90011C25.7277 10.1881 25.5957 10.3321 25.3557 10.3321C25.0197 10.3321 24.6717 10.3081 24.3117 10.2721L24.4797 11.0521H25.6317C26.2317 11.0521 26.5437 10.7281 26.5437 10.1041V5.08811H27.8157C27.6477 5.73611 27.4437 6.27611 27.2277 6.73211L27.9357 7.00811C28.1997 6.48011 28.4397 5.74811 28.6317 4.81211V4.28411H27.2637C27.0957 4.06811 26.9037 3.82811 26.6757 3.56411C27.2517 2.92811 27.7917 2.17211 28.2837 1.28411V0.600109H24.3357V1.40411H27.3597C26.9997 2.00411 26.6037 2.54411 26.1717 3.01211C25.9077 2.72411 25.6077 2.42411 25.2837 2.11211ZM36.3477 0.612109V1.24811H37.7997V1.68011L37.1997 1.58411C36.9957 2.35211 36.6117 2.96411 36.0477 3.42011L36.5157 3.99611C36.9477 3.63611 37.2957 3.19211 37.5597 2.66411H40.8117C40.7997 3.45611 40.7637 3.97211 40.7037 4.18811C40.6317 4.40411 40.4637 4.51211 40.1997 4.53611H39.8997V3.13211H37.3437V4.77611H39.7677L39.8637 5.10011H40.3557C40.5477 5.08811 40.7157 5.05211 40.8717 5.00411C40.9677 5.14811 41.0757 5.32811 41.1717 5.53211H36.2997V6.16811H46.6557V5.53211H41.9877C41.8677 5.24411 41.7597 4.99211 41.6397 4.76411L41.1717 4.83611C41.2317 4.78811 41.2917 4.71611 41.3397 4.63211C41.5077 4.32011 41.6037 3.46811 41.6037 2.07611H37.7997C37.8357 1.98011 37.8717 1.88411 37.8957 1.78811H38.5197V1.24811H39.8277V1.78811H40.5477V1.24811H41.9877V0.612109H40.5477V0.0721087H39.8277V0.612109H38.5197V0.0721087H37.7997V0.612109H36.3477ZM39.2397 4.29611H37.9917V3.60011H39.2397V4.29611ZM42.8397 2.48411C43.0317 2.89211 43.3077 3.27611 43.6917 3.63611C43.1997 3.97211 42.5877 4.21211 41.8437 4.38011L42.1677 5.07611C42.9957 4.88411 43.7037 4.56011 44.2917 4.12811C44.8437 4.51211 45.5517 4.84811 46.3917 5.12411L46.7877 4.42811C46.0437 4.20011 45.3957 3.92411 44.8557 3.60011C45.3357 3.06011 45.6717 2.37611 45.8517 1.53611H46.5237V0.816109H43.6677C43.7397 0.600109 43.7997 0.384109 43.8597 0.144109L43.0677 0.000108957C42.8157 1.12811 42.3357 2.02811 41.6277 2.70011L42.1077 3.30011C42.3717 3.06011 42.6237 2.78411 42.8397 2.48411ZM43.3797 1.53611H45.0957C44.9517 2.16011 44.6637 2.71211 44.2437 3.16811C43.7637 2.76011 43.4397 2.29211 43.2717 1.76411C43.2957 1.69211 43.3317 1.62011 43.3797 1.53611ZM37.7637 6.73211V7.26011H45.2877V6.73211H37.7637ZM37.7637 7.81211V8.34011H45.2877V7.81211H37.7637ZM45.6717 8.92811H37.4037V11.2081H38.2437V10.8481H44.8317V11.2081H45.6717V8.92811ZM38.2437 10.2601V9.50411H44.8317V10.2601H38.2437Z" fill="#1D2129"/>
</svg>
