<svg width="36" height="12" viewBox="0 0 36 12" fill="none" xmlns="http://www.w3.org/2000/svg">
<path d="M2.50795 -2.36034e-05L3.26395 0.347976C2.63995 1.66798 1.64395 2.84398 0.251945 3.86398L-5.46575e-05 3.03598C1.15195 2.14798 1.97995 1.13998 2.50795 -2.36034e-05ZM2.95195 2.75998L3.69595 3.10798C3.40795 3.75598 3.04795 4.36798 2.61595 4.94398V11.016H1.78795V5.90398C1.35595 6.35998 0.875945 6.77998 0.359945 7.17598L0.107945 6.34798C1.40395 5.30398 2.35195 4.10398 2.95195 2.75998ZM6.99595 0.0479758H7.82395V1.35598H10.5239V2.13598H7.82395V3.63598H11.0159V4.42798H3.86395V3.63598H6.99595V2.13598H4.31995V1.35598H6.99595V0.0479758ZM3.92395 5.89198H8.57995V5.00398H9.44395V5.89198H10.8479V6.69598H9.44395V9.77998C9.44395 10.56 9.04795 10.956 8.27995 10.956H6.57595L6.38395 10.128C6.93595 10.164 7.47595 10.188 7.97995 10.188C8.37595 10.188 8.57995 9.97198 8.57995 9.56398V6.69598H3.92395V5.89198ZM5.33995 7.16398C6.01195 7.84798 6.52795 8.44798 6.88795 8.95198L6.21595 9.43198C5.83195 8.87998 5.31595 8.25598 4.66795 7.58398L5.33995 7.16398ZM20.3519 6.94798L21.1919 7.17598C20.8799 8.17198 20.4959 9.07198 20.0399 9.86398H22.6199V10.668H12.4919V9.86398H19.1159C19.5839 9.04798 19.9919 8.07598 20.3519 6.94798ZM14.6159 7.09198C14.9639 7.73998 15.2759 8.49598 15.5519 9.33598L14.7719 9.53998C14.5319 8.77198 14.2199 8.03998 13.8359 7.34398L14.6159 7.09198ZM17.3879 6.85198C17.6639 7.54798 17.9159 8.33998 18.1319 9.23998L17.3639 9.44398C17.1599 8.62798 16.9079 7.84798 16.5959 7.10398L17.3879 6.85198ZM14.4359 5.69998H20.6639V6.46798H14.4359V5.69998ZM13.9559 1.87198C13.6439 2.47198 13.2959 3.02398 12.8999 3.52798L12.1559 3.05998C12.8999 2.14798 13.4399 1.13998 13.7759 0.0359759L14.6159 0.215976C14.5199 0.527976 14.4119 0.815976 14.3039 1.10398H17.4599V1.87198H15.7319C15.9239 2.29198 16.0919 2.68798 16.2119 3.04798L15.4199 3.33598C15.2639 2.83198 15.0839 2.33998 14.8679 1.87198H13.9559ZM19.0079 1.87198C18.7919 2.29198 18.5639 2.68798 18.3119 3.04798L17.5799 2.57998C18.1439 1.81198 18.5519 0.971976 18.8039 0.0359759L19.6319 0.215976C19.5359 0.527976 19.4399 0.815976 19.3439 1.10398H22.8479V1.87198H20.9399C21.2039 2.32798 21.4079 2.74798 21.5639 3.15598L20.7719 3.44398C20.5559 2.90398 20.3159 2.37598 20.0519 1.87198H19.0079ZM17.2679 3.05998H17.8199C19.3079 4.15198 21.0359 5.01598 22.9919 5.63998L22.5719 6.38398C20.6039 5.71198 18.9359 4.84798 17.5439 3.76798C16.2719 4.77598 14.5919 5.63998 12.5039 6.37198L12.0959 5.62798C14.1599 4.93198 15.8879 4.07998 17.2679 3.05998ZM24.6239 8.69998L24.3599 7.96798C24.5279 7.89598 24.6239 7.79998 24.6239 7.67998V1.10398H25.4639V7.65598C26.0639 7.48798 26.6639 7.28398 27.2639 7.05598V0.131976H28.1159V11.004H27.2639V7.89598C26.4239 8.19598 25.5359 8.45998 24.6239 8.69998ZM30.5639 2.74798C30.4199 3.13198 30.2759 3.49198 30.1199 3.82798C30.5519 5.00398 31.1039 6.08398 31.7999 7.06798C32.5199 5.84398 32.9039 4.40398 32.9759 2.74798H30.5639ZM29.6159 4.76398C29.3879 5.12398 29.1479 5.44798 28.8959 5.74798L28.3559 5.08798C29.3399 3.83998 30.0119 2.14798 30.3599 0.0359759L31.2239 0.179976C31.1039 0.791976 30.9719 1.36798 30.8279 1.89598H34.8359V2.74798H33.8039C33.7199 4.71598 33.2399 6.40798 32.3519 7.79998C33.1439 8.78398 34.0559 9.65998 35.1119 10.428L34.5239 11.124C33.4799 10.344 32.5799 9.47998 31.8239 8.54398C31.0319 9.53998 30.0119 10.368 28.7639 11.04L28.2719 10.26C29.5319 9.63598 30.5399 8.83198 31.2839 7.84798C30.6119 6.88798 30.0479 5.86798 29.6159 4.76398Z" fill="#1D2129"/>
</svg>
