<svg width="35" height="12" viewBox="0 0 35 12" fill="none" xmlns="http://www.w3.org/2000/svg">
<path d="M2.50795 -2.36034e-05L3.26395 0.347976C2.63995 1.66798 1.64395 2.84398 0.251945 3.86398L-5.46575e-05 3.03598C1.15195 2.14798 1.97995 1.13998 2.50795 -2.36034e-05ZM2.95195 2.75998L3.69595 3.10798C3.40795 3.75598 3.04795 4.36798 2.61595 4.94398V11.016H1.78795V5.90398C1.35595 6.35998 0.875945 6.77998 0.359945 7.17598L0.107945 6.34798C1.40395 5.30398 2.35195 4.10398 2.95195 2.75998ZM6.99595 0.0479758H7.82395V1.35598H10.5239V2.13598H7.82395V3.63598H11.0159V4.42798H3.86395V3.63598H6.99595V2.13598H4.31995V1.35598H6.99595V0.0479758ZM3.92395 5.89198H8.57995V5.00398H9.44395V5.89198H10.8479V6.69598H9.44395V9.77998C9.44395 10.56 9.04795 10.956 8.27995 10.956H6.57595L6.38395 10.128C6.93595 10.164 7.47595 10.188 7.97995 10.188C8.37595 10.188 8.57995 9.97198 8.57995 9.56398V6.69598H3.92395V5.89198ZM5.33995 7.16398C6.01195 7.84798 6.52795 8.44798 6.88795 8.95198L6.21595 9.43198C5.83195 8.87998 5.31595 8.25598 4.66795 7.58398L5.33995 7.16398ZM13.0199 0.191976C13.8359 0.827976 14.5319 1.45198 15.0959 2.07598L14.4839 2.68798C13.9799 2.08798 13.2959 1.45198 12.4199 0.755976L13.0199 0.191976ZM20.0279 10.86C19.3799 10.86 18.6839 10.848 17.9279 10.836C17.1719 10.824 16.5479 10.752 16.0679 10.62C15.6119 10.476 15.1919 10.176 14.8199 9.74398C14.6639 9.53998 14.5079 9.44398 14.3639 9.44398C14.0759 9.44398 13.5959 9.99598 12.9239 11.1L12.2759 10.512C12.9239 9.50398 13.4879 8.89198 13.9919 8.67598V5.02798H12.2759V4.23598H14.7959V8.73598C14.8919 8.80798 14.9759 8.89198 15.0719 8.99998C15.3599 9.34798 15.6599 9.59998 15.9959 9.75598C16.3559 9.92398 16.8959 10.02 17.5919 10.044C18.2159 10.056 18.9839 10.068 19.9079 10.068C20.4839 10.068 21.0719 10.056 21.6719 10.044C22.2479 10.032 22.7039 10.02 23.0279 9.99598L22.8119 10.86H20.0279ZM16.4399 0.755976H21.9479V1.54798H16.4399V0.755976ZM15.7079 3.47998H22.8239V4.30798H19.0799C18.4199 6.01198 17.8319 7.22398 17.3039 7.94398C18.8639 7.77598 20.1479 7.55998 21.1679 7.31998C20.8799 6.64798 20.5559 5.99998 20.2079 5.37598L20.9159 5.14798C21.5639 6.25198 22.1399 7.51198 22.6439 8.92798L21.8759 9.13198C21.7559 8.75998 21.6239 8.39998 21.4799 8.06398C20.1599 8.37598 18.4319 8.62798 16.2959 8.83198L16.0799 8.07598C16.5839 7.93198 17.2919 6.67198 18.2279 4.30798H15.7079V3.47998ZM24.2279 2.27998H25.5839V0.083976H26.4239V2.27998H27.7199V3.10798H26.4239V5.62798C26.8679 5.43598 27.2999 5.21998 27.7199 4.99198V5.81998C27.2879 6.04798 26.8559 6.25198 26.4239 6.44398V9.87598C26.4239 10.572 26.0879 10.932 25.4159 10.932H24.4079L24.2279 10.128C24.5399 10.164 24.8399 10.188 25.1279 10.188C25.4279 10.188 25.5839 10.008 25.5839 9.65998V6.79198C25.1519 6.95998 24.7079 7.10398 24.2759 7.24798L24.0599 6.43198C24.5879 6.29998 25.0919 6.14398 25.5839 5.97598V3.10798H24.2279V2.27998ZM28.2119 10.74L27.9839 10.008C28.1999 9.92398 28.3199 9.76798 28.3199 9.55198V1.43998C30.7439 1.11598 32.6159 0.755976 33.9599 0.371976L34.4639 1.09198C33.8759 1.25998 33.1799 1.42798 32.3639 1.58398C32.3759 2.71198 32.4119 3.68398 32.4599 4.51198H34.8359V5.35198H32.5199C32.5679 5.87998 32.6159 6.34798 32.6879 6.74398C32.8679 7.81198 33.0959 8.62798 33.3599 9.17998C33.5999 9.68398 33.7919 9.93598 33.9359 9.93598C34.0559 9.92398 34.1759 9.26398 34.2839 7.95598L35.0039 8.35198C34.7879 10.08 34.4879 10.944 34.0799 10.944C33.7199 10.944 33.3479 10.62 32.9399 9.98398C32.5319 9.31198 32.1959 8.32798 31.9439 7.04398C31.8359 6.53998 31.7519 5.97598 31.6919 5.35198H29.1479V9.63598C29.4839 9.49198 29.8079 9.34798 30.1319 9.20398L30.2759 9.95998C29.6879 10.212 29.0039 10.476 28.2119 10.74ZM31.6199 4.51198C31.5599 3.67198 31.5239 2.74798 31.5239 1.73998C30.8039 1.85998 30.0119 1.97998 29.1479 2.09998V4.51198H31.6199ZM31.0439 8.43598C31.6439 9.26398 32.1119 9.99598 32.4359 10.632L31.7759 11.076C31.4279 10.38 30.9839 9.64798 30.4319 8.87998L31.0439 8.43598Z" fill="#1D2129"/>
</svg>
