<svg width="24" height="24" viewBox="0 0 24 24" fill="none" xmlns="http://www.w3.org/2000/svg">
<g clip-path="url(#clip0_383_872)">
<path d="M8.5 9L13.5 9" stroke="#00AAA6" stroke-width="1.5" stroke-linecap="round"/>
<path d="M8.5 13H10.5" stroke="#00AAA6" stroke-width="1.5" stroke-linecap="round"/>
<path fill-rule="evenodd" clip-rule="evenodd" d="M5.5 18.5V5.5H16.5V12H18V5C18 4.44772 17.5523 4 17 4H5C4.44772 4 4 4.44772 4 5V19C4 19.5523 4.44772 20 5 20L12.0001 20V18.5H5.5Z" fill="#00AAA6"/>
<path fill-rule="evenodd" clip-rule="evenodd" d="M14.548 12.9978C13.692 12.9978 12.998 13.6918 12.998 14.5478V15.5826H14.498V14.5478C14.498 14.5202 14.5204 14.4978 14.548 14.4978H15.5829V12.9978H14.548ZM17.4177 14.4978H18.4526C18.4802 14.4978 18.5026 14.5202 18.5026 14.5478V15.5826H20.0026V14.5478C20.0026 13.6918 19.3086 12.9978 18.4526 12.9978H17.4177V14.4978ZM14.498 18.4523V17.4175H12.998V18.4523C12.998 19.3084 13.692 20.0023 14.548 20.0023H15.5829V18.5023H14.548C14.5204 18.5023 14.498 18.4799 14.498 18.4523ZM18.5026 17.4175V18.4523C18.5026 18.4799 18.4802 18.5023 18.4526 18.5023H17.4177V20.0023H18.4526C19.3086 20.0023 20.0026 19.3084 20.0026 18.4523V17.4175H18.5026ZM15.1248 15.7501C14.7105 15.7501 14.3748 16.0859 14.3748 16.5001C14.3748 16.9143 14.7105 17.2501 15.1248 17.2501H17.877C18.2912 17.2501 18.627 16.9143 18.627 16.5001C18.627 16.0859 18.2912 15.7501 17.877 15.7501H15.1248Z" fill="#00AAA6"/>
</g>
<defs>
<clipPath id="clip0_383_872">
<rect width="24" height="24" fill="white"/>
</clipPath>
</defs>
</svg>
