<svg width="24" height="24" viewBox="0 0 24 24" fill="none" xmlns="http://www.w3.org/2000/svg">
<g clip-path="url(#clip0_383_871)">
<path fill-rule="evenodd" clip-rule="evenodd" d="M11.3989 3.45508L11.6795 3.56826L18.8704 6.46907L19.3399 6.65844V7.16461V11.9994L17.8399 11.9994V8.27612L12.1492 10.5717L12.1492 18.6234L12.8371 18.3459V19.9633L11.6795 20.4303L11.3989 20.5435L11.1184 20.4303L3.92743 17.5295L3.45801 17.3401V16.834V7.16461V6.65844L3.92743 6.46907L11.1184 3.56826L11.3989 3.45508ZM10.6492 18.6236L10.6492 10.5719L4.95801 8.27612V16.3278L10.6492 18.6236ZM6.21249 7.16473L11.3989 9.25693L16.5854 7.16473L11.3989 5.07253L6.21249 7.16473ZM15.2685 12.9812C14.46 12.9812 13.8045 13.6367 13.8045 14.4452V15.4638H15.2213V14.4452C15.2213 14.4191 15.2424 14.398 15.2685 14.398H16.2721V12.9812H15.2685ZM18.0314 14.398H19.035C19.0611 14.398 19.0822 14.4191 19.0822 14.4452V15.4638H20.499V14.4452C20.499 13.6367 19.8435 12.9812 19.035 12.9812H18.0314V14.398ZM15.2213 18.2565V17.238H13.8045V18.2565C13.8045 19.0651 14.46 19.7205 15.2685 19.7205H16.2721V18.3038H15.2685C15.2424 18.3038 15.2213 18.2826 15.2213 18.2565ZM19.0822 17.238V18.2565C19.0822 18.2826 19.0611 18.3038 19.035 18.3038H18.0314V19.7205H19.035C19.8435 19.7205 20.499 19.0651 20.499 18.2565V17.238H19.0822ZM15.8323 15.6425C15.4411 15.6425 15.124 15.9596 15.124 16.3508C15.124 16.7421 15.4411 17.0592 15.8323 17.0592H18.4712C18.8624 17.0592 19.1795 16.7421 19.1795 16.3508C19.1795 15.9596 18.8624 15.6425 18.4712 15.6425H15.8323Z" fill="#00AAA6"/>
</g>
<defs>
<clipPath id="clip0_383_871">
<rect width="24" height="24" fill="white"/>
</clipPath>
</defs>
</svg>
