<svg width="16" height="16" viewBox="0 0 16 16" fill="none" xmlns="http://www.w3.org/2000/svg">
<path fill-rule="evenodd" clip-rule="evenodd" d="M8.00011 12.4446C10.4547 12.4446 12.4446 10.4547 12.4446 8.00011C12.4446 5.54551 10.4547 3.55566 8.00011 3.55566C5.54551 3.55566 3.55566 5.54551 3.55566 8.00011C3.55566 10.4547 5.54551 12.4446 8.00011 12.4446ZM13.5557 8.00011C13.5557 11.0684 11.0684 13.5557 8.00011 13.5557C4.93186 13.5557 2.44455 11.0684 2.44455 8.00011C2.44455 4.93186 4.93186 2.44455 8.00011 2.44455C11.0684 2.44455 13.5557 4.93186 13.5557 8.00011ZM7.44455 10.7779L7.44455 9.66676L8.55566 9.66676L8.55566 10.7779L7.44455 10.7779ZM8.55566 5.22231L8.55566 9.1112L7.44455 9.1112L7.44455 5.22231L8.55566 5.22231Z" fill="#1D2129"/>
</svg>
