<svg width="67" height="12" viewBox="0 0 67 12" fill="none" xmlns="http://www.w3.org/2000/svg">
<path opacity="0.35" d="M45.0004 0.502686H61.6664C62.863 0.502686 63.8334 1.47306 63.8334 2.66968V8.66968C63.8332 9.86615 62.8629 10.8357 61.6664 10.8357H45.0004C43.8039 10.8357 42.8336 9.86615 42.8334 8.66968V2.66968L42.8441 2.448C42.955 1.35534 43.8785 0.502686 45.0004 0.502686Z" stroke="black"/>
<path opacity="0.4" d="M65.3334 3.66936V7.66936C66.1381 7.33058 66.6614 6.54249 66.6614 5.66936C66.6614 4.79622 66.1381 4.00813 65.3334 3.66936Z" fill="black"/>
<path d="M44.3334 3.33602C44.3334 2.59964 44.9303 2.00269 45.6667 2.00269H61C61.7364 2.00269 62.3334 2.59964 62.3334 3.33602V8.00268C62.3334 8.73906 61.7364 9.33602 61 9.33602H45.6667C44.9303 9.33602 44.3334 8.73907 44.3334 8.00269V3.33602Z" fill="black"/>
<path fill-rule="evenodd" clip-rule="evenodd" d="M29.6637 2.27733C31.8796 2.27742 34.0108 3.12886 35.6167 4.65566C35.7376 4.77354 35.9309 4.77205 36.05 4.65233L37.206 3.48566C37.2663 3.42494 37.3 3.34269 37.2995 3.25711C37.299 3.17153 37.2644 3.08967 37.2034 3.02966C32.9883 -1.00989 26.3385 -1.00989 22.1234 3.02966C22.0623 3.08963 22.0277 3.17146 22.0271 3.25704C22.0265 3.34262 22.0601 3.42489 22.1204 3.48566L23.2767 4.65233C23.3957 4.77223 23.5892 4.77372 23.71 4.65566C25.3162 3.12876 27.4476 2.27732 29.6637 2.27733ZM29.6637 6.07299C30.8812 6.07292 32.0552 6.52545 32.9577 7.34266C33.0798 7.45864 33.272 7.45613 33.391 7.33699L34.5457 6.17033C34.6065 6.10913 34.6403 6.02612 34.6394 5.93985C34.6385 5.85359 34.6031 5.77127 34.541 5.71133C31.7928 3.15494 27.5369 3.15494 24.7887 5.71133C24.7266 5.77127 24.6912 5.85363 24.6904 5.93992C24.6896 6.02621 24.7234 6.10922 24.7844 6.17033L25.9387 7.33699C26.0577 7.45613 26.25 7.45864 26.372 7.34266C27.2739 6.52599 28.447 6.0735 29.6637 6.07299ZM31.9767 8.62681C31.9785 8.71332 31.9445 8.79672 31.8827 8.85733L29.8854 10.873C29.8268 10.9322 29.747 10.9656 29.6637 10.9656C29.5804 10.9656 29.5006 10.9322 29.442 10.873L27.4444 8.85733C27.3827 8.79668 27.3487 8.71325 27.3505 8.62674C27.3524 8.54023 27.3898 8.45831 27.454 8.40033C28.7296 7.32144 30.5978 7.32144 31.8734 8.40033C31.9375 8.45836 31.9749 8.54031 31.9767 8.62681Z" fill="black"/>
<path fill-rule="evenodd" clip-rule="evenodd" d="M16 0.335938H15C14.4477 0.335938 14 0.783653 14 1.33594V10.0026C14 10.5549 14.4477 11.0026 15 11.0026H16C16.5523 11.0026 17 10.5549 17 10.0026V1.33594C17 0.783653 16.5523 0.335938 16 0.335938ZM10.3333 2.66927H11.3333C11.8856 2.66927 12.3333 3.11699 12.3333 3.66927V10.0026C12.3333 10.5549 11.8856 11.0026 11.3333 11.0026H10.3333C9.78105 11.0026 9.33333 10.5549 9.33333 10.0026V3.66927C9.33333 3.11699 9.78105 2.66927 10.3333 2.66927ZM6.66667 5.0026H5.66667C5.11438 5.0026 4.66667 5.45032 4.66667 6.0026V10.0026C4.66667 10.5549 5.11438 11.0026 5.66667 11.0026H6.66667C7.21895 11.0026 7.66667 10.5549 7.66667 10.0026V6.0026C7.66667 5.45032 7.21895 5.0026 6.66667 5.0026ZM2 7.0026H1C0.447715 7.0026 0 7.45032 0 8.0026V10.0026C0 10.5549 0.447715 11.0026 1 11.0026H2C2.55228 11.0026 3 10.5549 3 10.0026V8.0026C3 7.45032 2.55228 7.0026 2 7.0026Z" fill="black"/>
</svg>
