<svg width="16" height="16" viewBox="0 0 16 16" fill="none" xmlns="http://www.w3.org/2000/svg">
<g clip-path="url(#clip0_2290_34386)">
<circle cx="7.99967" cy="7.99992" r="6.66667" fill="#BFC5CC"/>
<path d="M5.32876 10.7421C5.16931 10.5826 5.16931 10.3241 5.32876 10.1647L10.1408 5.35287C10.3003 5.19342 10.5588 5.19342 10.7183 5.35287C10.8777 5.51232 10.8777 5.77084 10.7183 5.93029L5.90621 10.7421C5.74675 10.9015 5.48822 10.9015 5.32876 10.7421Z" fill="white"/>
<path d="M5.29526 5.29823C5.45472 5.13878 5.71325 5.13878 5.87271 5.29823L10.6848 10.11C10.8442 10.2695 10.8442 10.528 10.6848 10.6874C10.5253 10.8469 10.2668 10.8469 10.1073 10.6874L5.29526 5.87564C5.1358 5.71619 5.1358 5.45768 5.29526 5.29823Z" fill="white"/>
</g>
<defs>
<clipPath id="clip0_2290_34386">
<rect width="16" height="16" fill="white"/>
</clipPath>
</defs>
</svg>
