<svg width="16" height="16" viewBox="0 0 16 16" fill="none" xmlns="http://www.w3.org/2000/svg">
<path d="M7.04202 4.16H11.3622C11.6273 4.16 11.8423 4.37491 11.8423 4.64002V8.96023C11.8423 9.22534 12.0572 9.44026 12.3223 9.44026C12.5874 9.44026 12.8023 9.22534 12.8023 8.96023V4.64002C12.8023 3.84469 12.1576 3.19995 11.3622 3.19995H7.04202C6.77691 3.19995 6.562 3.41487 6.562 3.67997C6.562 3.94508 6.77691 4.16 7.04202 4.16Z" fill="#1D2129"/>
<path fill-rule="evenodd" clip-rule="evenodd" d="M4.16024 5.11723C3.63002 5.11723 3.2002 5.54706 3.2002 6.07728V11.8376C3.2002 12.3678 3.63002 12.7976 4.16024 12.7976H9.92052C10.4507 12.7976 10.8806 12.3678 10.8806 11.8376V6.07728C10.8806 5.54706 10.4507 5.11723 9.92052 5.11723H4.16024ZM9.91934 6.06514H4.17305V11.8343H9.91934V6.06514Z" fill="#1D2129"/>
</svg>
