<svg width="16" height="16" viewBox="0 0 16 16" fill="none" xmlns="http://www.w3.org/2000/svg">
<path d="M10.3384 9.20712L9.99653 8.84232L9.99065 8.84783L9.98495 8.85352L10.3384 9.20712ZM9.95771 9.58774L9.60421 9.23415L9.60416 9.2342L9.95771 9.58774ZM6.70073 6.33077L7.05427 6.68431L6.70073 6.33077ZM7.12839 5.9031L7.48194 6.25664L7.49054 6.24804L7.49872 6.23902L7.12839 5.9031ZM4.61243 3.42741C4.64203 3.39782 4.69 3.39782 4.7196 3.42741L5.42668 2.72033C5.00658 2.30023 4.32546 2.30023 3.90535 2.72033L4.61243 3.42741ZM3.79819 4.24166L4.61243 3.42741L3.90535 2.72033L3.09111 3.53457L3.79819 4.24166ZM6.24092 10.0485C5.04285 8.85045 4.19677 7.56147 3.78508 6.46363C3.35598 5.31936 3.45996 4.57988 3.79819 4.24166L3.09111 3.53457C2.3051 4.32058 2.39379 5.60142 2.84878 6.81474C3.32119 8.07448 4.25859 9.48036 5.53384 10.7556L6.24092 10.0485ZM12.0478 12.4913C11.7096 12.8295 10.9701 12.9335 9.82582 12.5044C8.72798 12.0927 7.439 11.2466 6.24092 10.0485L5.53384 10.7556C6.80909 12.0309 8.21496 12.9683 9.47471 13.4407C10.688 13.8957 11.9689 13.9843 12.7549 13.1983L12.0478 12.4913ZM12.862 11.677L12.0478 12.4913L12.7549 13.1983L13.5691 12.3841L12.862 11.677ZM12.862 11.5699C12.8916 11.5994 12.8916 11.6474 12.862 11.677L13.5691 12.3841C13.9892 11.964 13.9892 11.2829 13.5691 10.8628L12.862 11.5699ZM10.8264 9.53424L12.862 11.5699L13.5691 10.8628L11.5335 8.82716L10.8264 9.53424ZM10.7193 9.53424C10.7489 9.50465 10.7968 9.50465 10.8264 9.53424L11.5335 8.82716C11.1134 8.40706 10.4323 8.40706 10.0122 8.82716L10.7193 9.53424ZM10.6804 9.57191C10.6935 9.5596 10.7065 9.54705 10.7193 9.53424L10.0122 8.82716C10.007 8.83232 10.0018 8.83738 9.99653 8.84232L10.6804 9.57191ZM9.98495 8.85352L9.60421 9.23415L10.3112 9.94133L10.6919 9.56071L9.98495 8.85352ZM9.60416 9.2342C9.58537 9.25299 9.44876 9.34076 9.06308 9.2122C8.70913 9.09422 8.27522 8.82667 7.86851 8.41996L7.16143 9.12704C7.65411 9.61972 8.21672 9.98414 8.74687 10.1609C9.24529 10.327 9.88035 10.3722 10.3112 9.94128L9.60416 9.2342ZM7.86851 8.41996C7.4618 8.01325 7.19425 7.57934 7.07627 7.22539C6.94771 6.83971 7.03548 6.7031 7.05427 6.68431L6.34719 5.97722C5.91629 6.40813 5.96148 7.04318 6.12762 7.5416C6.30433 8.07175 6.66875 8.63436 7.16143 9.12704L7.86851 8.41996ZM7.05427 6.68431L7.48194 6.25664L6.77485 5.54956L6.34719 5.97722L7.05427 6.68431ZM6.75521 5.46302C6.78381 5.49162 6.78478 5.53774 6.75807 5.56718L7.49872 6.23902C7.88201 5.81649 7.86988 5.16353 7.46229 4.75594L6.75521 5.46302ZM4.7196 3.42741L6.75521 5.46302L7.46229 4.75594L5.42668 2.72033L4.7196 3.42741Z" fill="#00AAA6"/>
</svg>
