<svg width="24" height="24" viewBox="0 0 24 24" fill="none" xmlns="http://www.w3.org/2000/svg">
<g clip-path="url(#clip0_815_24086)">
<path d="M3 8C3 7.44772 3.44772 7 4 7H20C20.5523 7 21 7.44772 21 8V18.5C21 19.0523 20.5523 19.5 20 19.5H4C3.44772 19.5 3 19.0523 3 18.5V8Z" stroke="#1D2129" stroke-width="1.5" stroke-linecap="round"/>
<path d="M8 7H16V5.5C16 4.94772 15.5523 4.5 15 4.5H9C8.44772 4.5 8 4.94772 8 5.5V7Z" stroke="#1D2129" stroke-width="1.5" stroke-linecap="round"/>
<circle cx="12" cy="13.25" r="4" stroke="#1D2129" stroke-width="1.5" stroke-linecap="round"/>
<circle cx="1" cy="1" r="1" transform="matrix(-1 0 0 1 19 9)" fill="#1D2129"/>
</g>
<defs>
<clipPath id="clip0_815_24086">
<rect width="24" height="24" fill="white"/>
</clipPath>
</defs>
</svg>
