<svg width="32" height="32" viewBox="0 0 32 32" fill="none" xmlns="http://www.w3.org/2000/svg">
<rect width="32" height="32" rx="16" fill="url(#paint0_linear_2390_38029)"/>
<path d="M12.25 8.5H8.5V12.25M19.75 8.5H23.5V12.25M8.5 19.75V23.5H12.25M19.75 23.5H23.5V19.75" stroke="white" stroke-linecap="square" stroke-linejoin="round"/>
<rect x="11" y="11" width="4" height="4" rx="0.5" stroke="white"/>
<rect x="11" y="17" width="4" height="4" rx="0.5" stroke="white"/>
<path d="M16.5 17H19" stroke="white"/>
<path d="M17 18L17 19" stroke="white"/>
<path d="M18.5 20.75L18.5 21.5" stroke="white"/>
<path d="M20 18.5L18.5 18.5L18.5 20.25" stroke="white"/>
<path d="M19.5 21L21 21L21 19" stroke="white"/>
<path d="M17 19.5L17 21.5" stroke="white"/>
<path d="M21 16.5L21 18.5" stroke="white"/>
<path d="M19.5 16.5L19.5 17.5" stroke="white"/>
<rect x="17" y="11" width="4" height="4" rx="0.5" stroke="white"/>
<circle cx="13" cy="13" r="0.75" fill="white"/>
<circle cx="13" cy="19" r="0.75" fill="white"/>
<circle cx="19" cy="13" r="0.75" fill="white"/>
<defs>
<linearGradient id="paint0_linear_2390_38029" x1="16" y1="0" x2="16" y2="32" gradientUnits="userSpaceOnUse">
<stop stop-color="#FFC996"/>
<stop offset="1" stop-color="#FF7D00"/>
</linearGradient>
</defs>
</svg>
