<svg width="24" height="24" viewBox="0 0 24 24" fill="none" xmlns="http://www.w3.org/2000/svg">
<path d="M12 5.25C15.4518 5.25 18.25 8.04822 18.25 11.5V20.25H5.75V11.5C5.75 8.04822 8.54822 5.25 12 5.25Z" stroke="#1D2129" stroke-width="1.5"/>
<path d="M2.5 20.25L21.5 20.25" stroke="#1D2129" stroke-width="1.5" stroke-linecap="round"/>
<path d="M11.7143 9.5L10.1493 13.1515C10.0786 13.3165 10.1997 13.5 10.3791 13.5H13.6209C13.8003 13.5 13.9214 13.6835 13.8507 13.8485L12.2857 17.5" stroke="#00AAA6" stroke-width="1.5" stroke-linecap="round"/>
<path d="M3.25 10.5V13.5" stroke="#1D2129" stroke-width="1.5" stroke-linecap="round"/>
<path d="M20.75 10.5V13.5" stroke="#1D2129" stroke-width="1.5" stroke-linecap="round"/>
<path d="M6.25 4L4.12868 6.12132" stroke="#1D2129" stroke-width="1.5" stroke-linecap="round"/>
<path d="M17.75 4L19.8713 6.12132" stroke="#1D2129" stroke-width="1.5" stroke-linecap="round"/>
<path d="M13.5 2.75L10.5 2.75" stroke="#1D2129" stroke-width="1.5" stroke-linecap="round"/>
</svg>
