<svg width="24" height="24" viewBox="0 0 24 24" fill="none" xmlns="http://www.w3.org/2000/svg">
<path d="M9.33333 4H5.49995C4.67155 4 4 4.67155 4 5.49995V9.33333M14.6667 4H18.5001C19.3285 4 20 4.67155 20 5.49995V9.33333M20 14.6667V18.5001C20 19.3285 19.3285 20 18.5001 20H14.6667M4 14.6667V18.5001C4 19.3285 4.67155 20 5.49995 20H9.33333" stroke="#00AAA6" stroke-width="1.49995"/>
<rect x="9" y="9" width="6" height="2" transform="rotate(90 9 9)" fill="#00AAA6"/>
<rect x="11.5" y="9" width="6" height="1.5" transform="rotate(90 11.5 9)" fill="#00AAA6"/>
<rect x="13.999" y="9" width="5.9993" height="1.49995" transform="rotate(90 13.999 9)" fill="#00AAA6"/>
<rect x="17" y="9" width="6" height="2" transform="rotate(90 17 9)" fill="#00AAA6"/>
</svg>
