<svg width="48" height="58" viewBox="0 0 48 58" fill="none" xmlns="http://www.w3.org/2000/svg">
<g filter="url(#filter0_f_2629_78490)">
<ellipse cx="24" cy="45" rx="17" ry="7" fill="#00D1C6" fill-opacity="0.5"/>
</g>
<g filter="url(#filter1_f_2629_78490)">
<path d="M30.5 47C30.5 48.6569 27.5899 50 24 50C20.4101 50 17.5 48.6569 17.5 47C17.5 45.3431 20.4101 44 24 44C27.5899 44 30.5 45.3431 30.5 47Z" fill="white"/>
</g>
<path d="M48 24C48 41.6731 41.6726 48 23.9995 48C6.32636 48 0 41.673 0 23.9999C0 6.32681 6.32636 0 23.9995 0C41.6726 0 48 6.32689 48 24Z" fill="url(#paint0_linear_2629_78490)"/>
<g filter="url(#filter2_di_2629_78490)">
<path fill-rule="evenodd" clip-rule="evenodd" d="M14 10C12.8954 10 12 10.8954 12 12V26H12.4615L13.4782 19.3918C13.7784 17.4404 15.4574 16 17.4317 16H30.5683C32.5426 16 34.2216 17.4404 34.5218 19.3918L35.5385 26H36V12C36 10.8954 35.1046 10 34 10H14Z" fill="#EBFFFA"/>
</g>
<g filter="url(#filter3_di_2629_78490)">
<path fill-rule="evenodd" clip-rule="evenodd" d="M18.3383 17C16.4052 17 14.7486 18.3825 14.4028 20.2845L13.0323 27.8226C13.0108 27.9406 13 28.0604 13 28.1803V35C13 35.5523 13.4477 36 14 36H16C16 37.1046 16.8954 38 18 38C19.1046 38 20 37.1046 20 36H28C28 37.1046 28.8954 38 30 38C31.1046 38 32 37.1046 32 36H34C34.5523 36 35 35.5523 35 35V28.1803C35 28.0604 34.9892 27.9406 34.9677 27.8226L33.5972 20.2845C33.2514 18.3825 31.5948 17 29.6617 17H18.3383ZM17 29C16.4477 29 16 29.4477 16 30C16 30.5523 16.4477 31 17 31H19C19.5523 31 20 30.5523 20 30C20 29.4477 19.5523 29 19 29H17ZM28 30C28 29.4477 28.4477 29 29 29H31C31.5523 29 32 29.4477 32 30C32 30.5523 31.5523 31 31 31H29C28.4477 31 28 30.5523 28 30ZM16.8673 20C16.3696 20 15.9477 20.3659 15.8773 20.8586L15.1631 25.8586C15.077 26.461 15.5445 27 16.153 27H31.847C32.4555 27 32.923 26.461 32.8369 25.8586L32.1227 20.8586C32.0523 20.3659 31.6304 20 31.1327 20H16.8673Z" fill="#EBFFFA"/>
</g>
<defs>
<filter id="filter0_f_2629_78490" x="1" y="32" width="46" height="26" filterUnits="userSpaceOnUse" color-interpolation-filters="sRGB">
<feFlood flood-opacity="0" result="BackgroundImageFix"/>
<feBlend mode="normal" in="SourceGraphic" in2="BackgroundImageFix" result="shape"/>
<feGaussianBlur stdDeviation="3" result="effect1_foregroundBlur_2629_78490"/>
</filter>
<filter id="filter1_f_2629_78490" x="12.5" y="39" width="23" height="16" filterUnits="userSpaceOnUse" color-interpolation-filters="sRGB">
<feFlood flood-opacity="0" result="BackgroundImageFix"/>
<feBlend mode="normal" in="SourceGraphic" in2="BackgroundImageFix" result="shape"/>
<feGaussianBlur stdDeviation="2.5" result="effect1_foregroundBlur_2629_78490"/>
</filter>
<filter id="filter2_di_2629_78490" x="7.5" y="7.5" width="32" height="24" filterUnits="userSpaceOnUse" color-interpolation-filters="sRGB">
<feFlood flood-opacity="0" result="BackgroundImageFix"/>
<feColorMatrix in="SourceAlpha" type="matrix" values="0 0 0 0 0 0 0 0 0 0 0 0 0 0 0 0 0 0 127 0" result="hardAlpha"/>
<feOffset dx="-0.5" dy="1.5"/>
<feGaussianBlur stdDeviation="2"/>
<feComposite in2="hardAlpha" operator="out"/>
<feColorMatrix type="matrix" values="0 0 0 0 0 0 0 0 0 0.719499 0 0 0 0 0.672496 0 0 0 1 0"/>
<feBlend mode="normal" in2="BackgroundImageFix" result="effect1_dropShadow_2629_78490"/>
<feBlend mode="normal" in="SourceGraphic" in2="effect1_dropShadow_2629_78490" result="shape"/>
<feColorMatrix in="SourceAlpha" type="matrix" values="0 0 0 0 0 0 0 0 0 0 0 0 0 0 0 0 0 0 127 0" result="hardAlpha"/>
<feOffset dx="-0.5" dy="0.5"/>
<feComposite in2="hardAlpha" operator="arithmetic" k2="-1" k3="1"/>
<feColorMatrix type="matrix" values="0 0 0 0 1 0 0 0 0 1 0 0 0 0 1 0 0 0 1 0"/>
<feBlend mode="normal" in2="shape" result="effect2_innerShadow_2629_78490"/>
</filter>
<filter id="filter3_di_2629_78490" x="8.5" y="14.5" width="30" height="29" filterUnits="userSpaceOnUse" color-interpolation-filters="sRGB">
<feFlood flood-opacity="0" result="BackgroundImageFix"/>
<feColorMatrix in="SourceAlpha" type="matrix" values="0 0 0 0 0 0 0 0 0 0 0 0 0 0 0 0 0 0 127 0" result="hardAlpha"/>
<feOffset dx="-0.5" dy="1.5"/>
<feGaussianBlur stdDeviation="2"/>
<feComposite in2="hardAlpha" operator="out"/>
<feColorMatrix type="matrix" values="0 0 0 0 0 0 0 0 0 0.719499 0 0 0 0 0.672496 0 0 0 1 0"/>
<feBlend mode="normal" in2="BackgroundImageFix" result="effect1_dropShadow_2629_78490"/>
<feBlend mode="normal" in="SourceGraphic" in2="effect1_dropShadow_2629_78490" result="shape"/>
<feColorMatrix in="SourceAlpha" type="matrix" values="0 0 0 0 0 0 0 0 0 0 0 0 0 0 0 0 0 0 127 0" result="hardAlpha"/>
<feOffset dx="-0.5" dy="0.5"/>
<feComposite in2="hardAlpha" operator="arithmetic" k2="-1" k3="1"/>
<feColorMatrix type="matrix" values="0 0 0 0 1 0 0 0 0 1 0 0 0 0 1 0 0 0 1 0"/>
<feBlend mode="normal" in2="shape" result="effect2_innerShadow_2629_78490"/>
</filter>
<linearGradient id="paint0_linear_2629_78490" x1="0" y1="0" x2="48" y2="48" gradientUnits="userSpaceOnUse">
<stop stop-color="#12E4CF"/>
<stop offset="1" stop-color="#00B5B5"/>
</linearGradient>
</defs>
</svg>
