<svg width="48" height="58" viewBox="0 0 48 58" fill="none" xmlns="http://www.w3.org/2000/svg">
<g filter="url(#filter0_f_3129_55366)">
<ellipse cx="24" cy="45" rx="17" ry="7" fill="#99D7FF"/>
</g>
<g filter="url(#filter1_f_3129_55366)">
<path d="M30.5 47C30.5 48.6569 27.5899 50 24 50C20.4101 50 17.5 48.6569 17.5 47C17.5 45.3431 20.4101 44 24 44C27.5899 44 30.5 45.3431 30.5 47Z" fill="white"/>
</g>
<path d="M48 24C48 41.6731 41.6726 48 23.9995 48C6.32636 48 0 41.673 0 23.9999C0 6.32681 6.32636 0 23.9995 0C41.6726 0 48 6.32689 48 24Z" fill="url(#paint0_linear_3129_55366)"/>
<g filter="url(#filter2_d_3129_55366)">
<rect x="19" y="10" width="10" height="4" rx="2" fill="white" fill-opacity="0.5"/>
<path fill-rule="evenodd" clip-rule="evenodd" d="M18.05 12C18.0172 12.1616 18 12.3288 18 12.5C18 13.8807 19.1193 15 20.5 15H27.5C28.8807 15 30 13.8807 30 12.5C30 12.3288 29.9828 12.1616 29.95 12H34C35.1046 12 36 12.8954 36 14V36C36 37.1046 35.1046 38 34 38H14C12.8954 38 12 37.1046 12 36V14C12 12.8954 12.8954 12 14 12H18.05ZM31.469 21.7041C31.81 21.3632 31.81 20.8104 31.469 20.4694L29.617 18.6174C29.276 18.2764 28.7232 18.2764 28.3823 18.6174L21.5915 25.4082L21.5914 25.4082V25.4083L21.5915 25.4083L21.3776 27.7602C21.3283 28.3032 21.7832 28.7581 22.3262 28.7088L24.6781 28.4949L24.6781 28.495L24.6782 28.495L24.6782 28.4949L31.469 21.7041ZM23 20C23.5523 20 24 19.5523 24 19C24 18.4477 23.5523 18 23 18H18C16.8954 18 16 18.8954 16 20V32C16 33.1046 16.8954 34 18 34H30C31.1046 34 32 33.1046 32 32V28.1429C32 27.5906 31.5523 27.1429 31 27.1429C30.4477 27.1429 30 27.5906 30 28.1429V32H18V20H23Z" fill="#EBFAFF"/>
<path fill-rule="evenodd" clip-rule="evenodd" d="M31.4694 21.7041C31.8103 21.3631 31.8103 20.8103 31.4694 20.4694L29.6173 18.6173C29.2764 18.2764 28.7236 18.2764 28.3827 18.6173L21.5918 25.4082L21.5918 25.4082C21.5918 25.4082 21.5918 25.4082 21.5918 25.4082C21.5918 25.4082 21.5918 25.4082 21.5918 25.4082L21.378 27.7602C21.3287 28.3032 21.7836 28.7581 22.3265 28.7087L24.6785 28.4949C24.6785 28.4949 24.6785 28.4949 24.6785 28.4949C24.6785 28.4949 24.6786 28.4949 24.6786 28.4949L24.6786 28.4949L31.4694 21.7041Z" fill="#A8D6F7"/>
</g>
<defs>
<filter id="filter0_f_3129_55366" x="1" y="32" width="46" height="26" filterUnits="userSpaceOnUse" color-interpolation-filters="sRGB">
<feFlood flood-opacity="0" result="BackgroundImageFix"/>
<feBlend mode="normal" in="SourceGraphic" in2="BackgroundImageFix" result="shape"/>
<feGaussianBlur stdDeviation="3" result="effect1_foregroundBlur_3129_55366"/>
</filter>
<filter id="filter1_f_3129_55366" x="12.5" y="39" width="23" height="16" filterUnits="userSpaceOnUse" color-interpolation-filters="sRGB">
<feFlood flood-opacity="0" result="BackgroundImageFix"/>
<feBlend mode="normal" in="SourceGraphic" in2="BackgroundImageFix" result="shape"/>
<feGaussianBlur stdDeviation="2.5" result="effect1_foregroundBlur_3129_55366"/>
</filter>
<filter id="filter2_d_3129_55366" x="9" y="9" width="32" height="34" filterUnits="userSpaceOnUse" color-interpolation-filters="sRGB">
<feFlood flood-opacity="0" result="BackgroundImageFix"/>
<feColorMatrix in="SourceAlpha" type="matrix" values="0 0 0 0 0 0 0 0 0 0 0 0 0 0 0 0 0 0 127 0" result="hardAlpha"/>
<feOffset dy="2"/>
<feGaussianBlur stdDeviation="1.5"/>
<feComposite in2="hardAlpha" operator="out"/>
<feColorMatrix type="matrix" values="0 0 0 0 0.192157 0 0 0 0 0.596078 0 0 0 0 0.905882 0 0 0 0.8 0"/>
<feBlend mode="normal" in2="BackgroundImageFix" result="effect1_dropShadow_3129_55366"/>
<feBlend mode="normal" in="SourceGraphic" in2="effect1_dropShadow_3129_55366" result="shape"/>
</filter>
<linearGradient id="paint0_linear_3129_55366" x1="0" y1="0" x2="48" y2="48" gradientUnits="userSpaceOnUse">
<stop stop-color="#7CC5F9"/>
<stop offset="1" stop-color="#3AA0E8"/>
</linearGradient>
</defs>
</svg>
