<svg width="48" height="58" viewBox="0 0 48 58" fill="none" xmlns="http://www.w3.org/2000/svg">
<g filter="url(#filter0_f_2629_78489)">
<ellipse cx="24" cy="45" rx="17" ry="7" fill="#9BC8FF"/>
</g>
<g filter="url(#filter1_f_2629_78489)">
<path d="M30.5 47C30.5 48.6569 27.5899 50 24 50C20.4101 50 17.5 48.6569 17.5 47C17.5 45.3431 20.4101 44 24 44C27.5899 44 30.5 45.3431 30.5 47Z" fill="white"/>
</g>
<path d="M48 24C48 41.6731 41.6726 48 23.9995 48C6.32636 48 0 41.6731 0 23.9999C0 6.32681 6.32636 0 23.9995 0C41.6726 0 48 6.32689 48 24Z" fill="url(#paint0_linear_2629_78489)"/>
<g filter="url(#filter2_d_2629_78489)">
<path d="M13.3549 30.4806C13.5363 30.1822 13.8602 30 14.2095 30H33.7905C34.1398 30 34.4637 30.1822 34.6451 30.4806L37.0764 34.4806C37.4815 35.147 37.0018 36 36.2219 36H11.7781C10.9982 36 10.5185 35.147 10.9236 34.4806L13.3549 30.4806Z" fill="white" fill-opacity="0.5"/>
<g filter="url(#filter3_di_2629_78489)">
<path fill-rule="evenodd" clip-rule="evenodd" d="M13 12C11.8954 12 11 12.8954 11 14V29C11 30.1046 11.8954 31 13 31H35C36.1046 31 37 30.1046 37 29V14C37 12.8954 36.1046 12 35 12H13ZM18.5 18C17.6716 18 17 18.6716 17 19.5C17 20.3284 17.6716 21 18.5 21H29.5C30.3284 21 31 20.3284 31 19.5C31 18.6716 30.3284 18 29.5 18H18.5Z" fill="#EDFBFF"/>
</g>
</g>
<defs>
<filter id="filter0_f_2629_78489" x="1" y="32" width="46" height="26" filterUnits="userSpaceOnUse" color-interpolation-filters="sRGB">
<feFlood flood-opacity="0" result="BackgroundImageFix"/>
<feBlend mode="normal" in="SourceGraphic" in2="BackgroundImageFix" result="shape"/>
<feGaussianBlur stdDeviation="3" result="effect1_foregroundBlur_2629_78489"/>
</filter>
<filter id="filter1_f_2629_78489" x="12.5" y="39" width="23" height="16" filterUnits="userSpaceOnUse" color-interpolation-filters="sRGB">
<feFlood flood-opacity="0" result="BackgroundImageFix"/>
<feBlend mode="normal" in="SourceGraphic" in2="BackgroundImageFix" result="shape"/>
<feGaussianBlur stdDeviation="2.5" result="effect1_foregroundBlur_2629_78489"/>
</filter>
<filter id="filter2_d_2629_78489" x="7.27637" y="10.5" width="32.4473" height="30" filterUnits="userSpaceOnUse" color-interpolation-filters="sRGB">
<feFlood flood-opacity="0" result="BackgroundImageFix"/>
<feColorMatrix in="SourceAlpha" type="matrix" values="0 0 0 0 0 0 0 0 0 0 0 0 0 0 0 0 0 0 127 0" result="hardAlpha"/>
<feOffset dx="-0.5" dy="1.5"/>
<feGaussianBlur stdDeviation="1.5"/>
<feComposite in2="hardAlpha" operator="out"/>
<feColorMatrix type="matrix" values="0 0 0 0 0 0 0 0 0 0.380357 0 0 0 0 0.8875 0 0 0 0.8 0"/>
<feBlend mode="normal" in2="BackgroundImageFix" result="effect1_dropShadow_2629_78489"/>
<feBlend mode="normal" in="SourceGraphic" in2="effect1_dropShadow_2629_78489" result="shape"/>
</filter>
<filter id="filter3_di_2629_78489" x="7.5" y="10.5" width="32" height="25" filterUnits="userSpaceOnUse" color-interpolation-filters="sRGB">
<feFlood flood-opacity="0" result="BackgroundImageFix"/>
<feColorMatrix in="SourceAlpha" type="matrix" values="0 0 0 0 0 0 0 0 0 0 0 0 0 0 0 0 0 0 127 0" result="hardAlpha"/>
<feOffset dx="-0.5" dy="1.5"/>
<feGaussianBlur stdDeviation="1.5"/>
<feComposite in2="hardAlpha" operator="out"/>
<feColorMatrix type="matrix" values="0 0 0 0 0.192157 0 0 0 0 0.596078 0 0 0 0 0.905882 0 0 0 0.8 0"/>
<feBlend mode="normal" in2="BackgroundImageFix" result="effect1_dropShadow_2629_78489"/>
<feBlend mode="normal" in="SourceGraphic" in2="effect1_dropShadow_2629_78489" result="shape"/>
<feColorMatrix in="SourceAlpha" type="matrix" values="0 0 0 0 0 0 0 0 0 0 0 0 0 0 0 0 0 0 127 0" result="hardAlpha"/>
<feOffset dy="0.5"/>
<feComposite in2="hardAlpha" operator="arithmetic" k2="-1" k3="1"/>
<feColorMatrix type="matrix" values="0 0 0 0 1 0 0 0 0 1 0 0 0 0 1 0 0 0 1 0"/>
<feBlend mode="normal" in2="shape" result="effect2_innerShadow_2629_78489"/>
</filter>
<linearGradient id="paint0_linear_2629_78489" x1="0" y1="0" x2="48" y2="48" gradientUnits="userSpaceOnUse">
<stop stop-color="#5398FF"/>
<stop offset="1" stop-color="#0075FF"/>
</linearGradient>
</defs>
</svg>
